<svg width="125" height="108" viewBox="0 0 125 108" fill="none" xmlns="http://www.w3.org/2000/svg">
<path d="M28.288 106.424C23.424 105.997 18.9867 104.76 14.976 102.712C5.504 98.0187 0.768 90.168 0.768 79.16C0.768 75.064 1.49333 70.7547 2.944 66.232C6.784 53.688 15.0613 41.6133 27.776 30.008C40.4907 18.3173 54.5707 9.86933 70.016 4.66399C74.7947 3.04266 79.5307 1.84799 84.224 1.07999C86.528 0.73866 89.8987 0.567993 94.336 0.567993C98.7733 0.567993 101.931 0.73866 103.808 1.07999C110.123 2.35999 114.859 4.57866 118.016 7.73599C120.32 9.95466 121.941 12.3013 122.88 14.776C123.904 17.2507 124.416 20.1947 124.416 23.608C124.416 31.6293 120.917 39.9493 113.92 48.568C111.445 51.7253 107.947 55.3093 103.424 59.32C98.9013 63.3307 94.5493 66.7013 90.368 69.432C86.784 71.8213 82.9013 73.9973 78.72 75.96C74.5387 77.8373 70.912 79.0747 67.84 79.672C64.1707 80.44 61.696 80.4827 60.416 79.8C59.4773 79.3733 58.7947 78.5627 58.368 77.368C58.0267 76.1733 58.0693 75.0213 58.496 73.912C58.752 73.4 58.8373 73.144 58.752 73.144C58.6667 73.0587 57.8133 73.5707 56.192 74.68C52.4373 77.3253 48.5547 79.3307 44.544 80.696C42.8373 81.2933 40.6187 81.592 37.888 81.592C35.9253 81.592 34.6453 81.5493 34.048 81.464C33.536 81.3787 32.8107 81.1227 31.872 80.696C27.0933 78.4773 25.3013 73.912 26.496 67C27.0933 63.3307 28.5013 59.32 30.72 54.968C33.024 50.616 35.7973 46.4773 39.04 42.552C42.112 38.8827 46.0373 35.512 50.816 32.44C55.68 29.2827 60.16 27.192 64.256 26.168C65.9627 25.7413 67.84 25.528 69.888 25.528C72.0213 25.4427 73.6853 25.6133 74.88 26.04C75.9893 26.296 77.1413 26.808 78.336 27.576L80 28.6L80.512 27.32C80.8533 26.552 81.2373 26.0827 81.664 25.912C81.92 25.7413 84.48 25.656 89.344 25.656C94.2933 25.5707 96.8107 25.6133 96.896 25.784C96.9813 25.9547 94.3787 31.288 89.088 41.784C83.8827 52.1947 81.28 57.784 81.28 58.552C81.28 61.2827 83.7547 61.4107 88.704 58.936C91.52 57.4853 94.4213 55.3947 97.408 52.664C100.395 49.848 102.912 46.8187 104.96 43.576C108.715 37.8587 110.208 32.312 109.44 26.936C109.184 24.888 108.8 23.352 108.288 22.328C107.776 21.304 106.752 20.0667 105.216 18.616C103.509 16.9093 101.717 15.5867 99.84 14.648C90.9653 10.296 80.0427 10.2107 67.072 14.392C54.6987 18.4027 43.6907 25.0587 34.048 34.36C24.4053 43.576 18.3467 53.304 15.872 63.544C14.592 68.4933 14.5493 72.9733 15.744 76.984C17.792 84.3227 22.8267 89.1013 30.848 91.32C32.2133 91.7467 33.3653 92.0027 34.304 92.088C35.2427 92.1733 37.2907 92.216 40.448 92.216C44.8853 92.216 48.2987 92.0027 50.688 91.576C67.328 88.3333 86.8693 79.5867 109.312 65.336C111.275 64.056 112.299 63.4587 112.384 63.544C112.64 63.8 111.189 65.6347 108.032 69.048C104.875 72.4613 102.144 75.2347 99.84 77.368C88.832 87.1813 76.8853 94.6907 64 99.896C51.1147 105.187 39.2107 107.363 28.288 106.424ZM47.488 71.992C49.7067 71.224 52.1813 69.688 54.912 67.384C59.52 63.3733 63.8293 57.7413 67.84 50.488C71.8507 43.1493 73.3867 38.072 72.448 35.256C72.2773 34.488 71.8507 33.848 71.168 33.336C70.2293 32.4827 68.6933 32.2693 66.56 32.696C64.4267 33.1227 62.1653 34.0613 59.776 35.512C58.24 36.4507 56.2773 38.1147 53.888 40.504C51.584 42.808 49.8347 44.856 48.64 46.648C46.08 50.6587 44.032 54.584 42.496 58.424C40.96 62.264 40.2347 65.336 40.32 67.64C40.4907 69.8587 41.3013 71.352 42.752 72.12C43.9467 72.7173 45.5253 72.6747 47.488 71.992Z" fill="white"/>
</svg>
