<svg width="1560" height="1012" viewBox="0 0 1560 1012" fill="none" xmlns="http://www.w3.org/2000/svg">
<path d="M347.205 1255.33C285.839 1249.95 229.855 1234.35 179.255 1208.54C59.7516 1149.38 0 1050.42 0 911.66C0 860.03 9.15114 805.71 27.4534 748.701C75.9006 590.583 180.331 438.381 340.745 292.094C501.159 144.732 678.799 38.2442 873.665 -27.3695C933.954 -47.8066 993.706 -62.8655 1052.92 -72.5462C1081.99 -76.8487 1124.51 -79 1180.5 -79C1236.48 -79 1276.31 -76.8487 1300 -72.5462C1379.67 -56.4117 1439.42 -28.4451 1479.25 11.3534C1508.32 39.3199 1528.78 68.8999 1540.62 100.093C1553.54 131.287 1560 168.396 1560 211.422C1560 312.531 1515.86 417.406 1427.58 526.045C1396.36 565.843 1352.22 611.02 1295.16 661.575C1238.1 712.13 1183.19 754.617 1130.43 789.038C1085.22 819.156 1036.23 846.584 983.478 871.324C930.725 894.988 884.969 910.585 846.211 918.114C799.917 927.795 768.696 928.333 752.547 919.728C740.704 914.349 732.091 904.131 726.708 889.072C722.402 874.013 722.94 859.492 728.323 845.509C731.553 839.055 732.629 835.828 731.553 835.828C730.476 834.752 719.71 841.206 699.255 855.189C651.884 888.534 602.899 913.811 552.298 931.022C530.766 938.551 502.774 942.316 468.323 942.316C443.561 942.316 427.412 941.778 419.876 940.702C413.416 939.627 404.265 936.4 392.422 931.022C332.133 903.055 309.524 845.509 324.596 758.382C332.133 712.13 349.896 661.575 377.888 606.718C406.957 551.86 441.946 499.692 482.857 450.213C521.615 403.96 571.139 361.473 631.429 322.75C692.795 282.951 749.317 256.598 800.994 243.691C822.526 238.313 846.211 235.623 872.05 235.623C898.965 234.548 919.959 236.699 935.031 242.077C949.027 245.304 963.561 251.758 978.634 261.439L999.627 274.346L1006.09 258.212C1010.39 248.531 1015.24 242.615 1020.62 240.464C1023.85 238.312 1056.15 237.237 1117.52 237.237C1179.96 236.161 1211.72 236.699 1212.8 238.85C1213.87 241.002 1181.04 308.229 1114.29 440.532C1048.61 571.759 1015.78 642.214 1015.78 651.894C1015.78 686.315 1047 687.928 1109.44 656.735C1144.97 638.449 1181.57 612.096 1219.25 577.675C1256.94 542.179 1288.7 503.994 1314.53 463.12C1361.9 391.053 1380.75 321.136 1371.06 253.371C1367.83 227.556 1362.98 208.195 1356.52 195.287C1350.06 182.379 1337.14 166.783 1317.76 148.497C1296.23 126.984 1273.62 110.312 1249.94 98.4799C1137.97 43.6225 1000.17 42.5468 836.522 95.253C680.414 145.808 541.532 229.707 419.876 346.952C298.219 463.12 221.781 585.743 190.559 714.819C174.41 777.206 173.872 833.677 188.944 884.232C214.783 976.736 278.302 1036.97 379.503 1064.94C396.729 1070.32 411.263 1073.54 423.106 1074.62C434.948 1075.69 460.787 1076.23 500.621 1076.23C556.605 1076.23 599.669 1073.54 629.814 1068.17C839.752 1027.29 1086.29 917.038 1369.44 737.407C1394.2 721.273 1407.12 713.743 1408.2 714.819C1411.43 718.046 1393.13 741.172 1353.29 784.197C1313.46 827.223 1279.01 862.181 1249.94 889.072C1111.06 1012.77 960.331 1107.43 797.764 1173.04C635.197 1239.73 485.01 1267.16 347.205 1255.33ZM589.441 821.307C617.433 811.626 648.654 792.265 683.106 763.223C741.242 712.668 795.611 641.676 846.211 550.247C896.812 457.742 916.19 393.742 904.348 358.246C902.195 348.565 896.812 340.498 888.199 334.044C876.356 323.288 856.977 320.599 830.062 325.977C803.147 331.355 774.617 343.187 744.472 361.473C725.093 373.305 700.331 394.28 670.186 424.397C641.118 453.44 619.048 479.255 603.975 501.843C571.677 552.398 545.838 601.877 526.46 650.281C507.081 698.684 497.93 737.407 499.006 766.449C501.159 794.416 511.387 813.24 529.689 822.92C544.762 830.45 564.679 829.912 589.441 821.307Z" fill="black"/>
</svg>
