<svg width="1600" height="2572" viewBox="0 0 1600 2572" fill="none" xmlns="http://www.w3.org/2000/svg">
<g clip-path="url(#clip0_1105_719)">
<rect width="1600" height="2572" rx="60" transform="matrix(-1 0 0 1 1600 0)" fill="black"/>
<path d="M12 396.74C12 401.354 13.9916 405.743 17.4639 408.781L35.8041 424.829C41.0124 429.386 44 435.97 44 442.89V737H1572C1580.84 737 1588 729.837 1588 721V64C1588 35.2812 1564.72 12 1536 12H64C35.2812 12 12 35.2812 12 64V396.74Z" fill="white"/>
<path fill-rule="evenodd" clip-rule="evenodd" d="M64 32C46.3269 32 32 46.3269 32 64V394.926L48.9727 409.777C58.5214 418.132 64 430.203 64 442.891V560V609.5H44V442.891C44 435.97 41.0129 429.385 35.8047 424.828L17.4648 408.781C13.9926 405.743 12 401.352 12 396.738V64C12 35.7305 34.5585 12.7283 62.6562 12.0156L64 12H1536L1537.34 12.0156C1565.44 12.7283 1588 35.7305 1588 64V638C1588 646.56 1581.28 653.552 1572.82 653.98L1572 654H1568V634V64C1568 46.3269 1553.67 32 1536 32H64Z" fill="#B2BDDD"/>
<path fill-rule="evenodd" clip-rule="evenodd" d="M32.0004 64C32.0004 46.3269 46.3273 32 64.0004 32V12L62.6566 12.0156C34.5588 12.7283 12.0004 35.7305 12.0004 64V396.738C12.0004 401.352 13.9929 405.743 17.4652 408.781L35.8051 424.828C41.0133 429.385 44.0004 435.97 44.0004 442.891L43.9999 634.5H63.9999L64.0004 560V442.891C64.0004 430.203 58.5217 418.132 48.973 409.777L32.0004 394.926V64Z" fill="url(#paint0_linear_1105_719)"/>
<path fill-rule="evenodd" clip-rule="evenodd" d="M41.0703 418.809C48.0148 424.885 52 433.663 52 442.891V572V598.5H44V442.891C44 435.97 41.0129 429.385 35.8047 424.828L17.4648 408.781C13.9926 405.743 12 401.352 12 396.738H20C20 399.045 20.9945 401.243 22.7305 402.762L41.0703 418.809Z" fill="url(#paint1_linear_1105_719)"/>
<path d="M17.4639 691.219C13.9916 694.257 12 698.646 12 703.26V2508C12 2536.72 35.2812 2560 64 2560H1536C1564.72 2560 1588 2536.72 1588 2508V608C1588 599.163 1584.84 592 1576 592H44V657.11C44 664.03 41.0124 670.614 35.8041 675.171L17.4639 691.219Z" fill="url(#paint2_linear_1105_719)"/>
<path d="M60 600H120V784H16V700H32L60 664V600Z" fill="url(#paint3_linear_1105_719)"/>
<path fill-rule="evenodd" clip-rule="evenodd" d="M1536 2560H64L62.6562 2559.98C35.0051 2559.28 12.7172 2536.99 12.0156 2509.34L12 2508V703.262C12 698.648 13.9926 694.257 17.4648 691.219L35.8047 675.172C41.0129 670.615 44 664.03 44 657.109V592H64V612V657.109C64 669.797 58.5214 681.868 48.9727 690.223L32 705.07V2508C32.0001 2525.67 46.327 2540 64 2540H1536C1553.67 2540 1568 2525.67 1568 2508V612V592H1576C1584.84 592 1588 599.163 1588 608V2508L1587.98 2509.34C1587.28 2536.99 1564.99 2559.28 1537.34 2559.98L1536 2560Z" fill="url(#paint4_linear_1105_719)"/>
<path fill-rule="evenodd" clip-rule="evenodd" d="M32 708H12V703.262C12 698.648 13.9926 694.257 17.4648 691.219L35.8047 675.172C41.0129 670.615 44 664.03 44 657.109V592H64V612V657.109C64 669.797 58.5214 681.868 48.9727 690.223L32 705.07V708Z" fill="url(#paint5_linear_1105_719)"/>
<path fill-rule="evenodd" clip-rule="evenodd" d="M52 592V600V657.109C52 666.337 48.0148 675.115 41.0703 681.191L22.7305 697.238C20.9945 698.757 20 700.955 20 703.262V708H12V703.262C12 698.648 13.9926 694.257 17.4648 691.219L35.8047 675.172C41.0129 670.615 44 664.03 44 657.109V592H52Z" fill="url(#paint6_linear_1105_719)"/>
<path d="M92 716H120V784H32L20 772V712V708H32L66 716H92Z" fill="url(#paint7_linear_1105_719)"/>
<path fill-rule="evenodd" clip-rule="evenodd" d="M1484.15 788V596L1480 592V788V792H1484.15V788Z" fill="url(#paint8_linear_1105_719)"/>
<rect x="-4" y="4" width="1592" height="2564" rx="56" transform="matrix(-1 0 0 1 1592 0)" stroke="black" stroke-width="8"/>
<mask id="mask0_1105_719" style="mask-type:alpha" maskUnits="userSpaceOnUse" x="4" y="425" width="28" height="250">
<path d="M32 440.407C32 436.787 30.3663 433.361 27.5541 431.083L23.5541 427.842C15.709 421.486 4 427.07 4 437.166V662.834C4 672.93 15.709 678.514 23.5541 672.158L27.5541 668.917C30.3663 666.639 32 663.213 32 659.593V440.407Z" fill="#338CA2"/>
</mask>
<g mask="url(#mask0_1105_719)">
<path d="M32 440.407C32 436.787 30.3663 433.361 27.5541 431.083L23.5541 427.842C15.709 421.486 4 427.07 4 437.166V662.834C4 672.93 15.709 678.514 23.5541 672.158L27.5541 668.917C30.3663 666.639 32 663.213 32 659.593V440.407Z" fill="#338CA2"/>
<g filter="url(#filter0_f_1105_719)">
<path d="M38.481 449.643C38.7501 447.018 37.9853 444.392 36.349 442.322V442.322C30.705 435.183 19.2415 438.522 18.3131 447.575L-2.4811 650.357C-3.40946 659.41 7.13793 665.006 14.1134 659.161V659.161C16.1357 657.466 17.4176 655.05 17.6868 652.425L38.481 449.643Z" fill="#5EBABE"/>
</g>
</g>
<path fill-rule="evenodd" clip-rule="evenodd" d="M1084 2492H1464C1472.84 2492 1480 2499.16 1480 2508V2560H1474V2508C1474 2502.48 1469.52 2498 1464 2498H1084V2492Z" fill="url(#paint9_linear_1105_719)"/>
<path d="M1464 2494H1084C1076.27 2494 1070 2500.27 1070 2508V2570H1478V2508C1478 2500.27 1471.73 2494 1464 2494Z" stroke="black" stroke-width="4"/>
<path d="M329 1315.62V1188.12H368.125V1315.62H329Z" fill="#A8626A"/>
<path d="M380.25 1315.62V1188H558.125L558.375 1188.38H561.875C563.042 1188.62 563.875 1188.83 564.375 1189C564.958 1189.08 565.542 1189.17 566.125 1189.25C566.708 1189.33 567.292 1189.5 567.875 1189.75C568.458 1190 569.042 1190.25 569.625 1190.5C570.208 1190.67 570.792 1190.96 571.375 1191.38C571.958 1191.71 572.5 1192.04 573 1192.38C573.583 1192.71 574.167 1193.04 574.75 1193.38C575.333 1193.71 575.917 1194 576.5 1194.25C577.083 1194.5 577.667 1194.88 578.25 1195.38C578.833 1195.79 579.375 1196.25 579.875 1196.75C580.458 1197.17 581.042 1197.67 581.625 1198.25C582.208 1198.75 583.083 1199.46 584.25 1200.38V1200.75L592.5 1214.12C592.917 1215.29 593.25 1216.17 593.5 1216.75C593.75 1217.33 594 1218.08 594.25 1219V1220.75L594.5 1221.12V1224.5C594.75 1225.67 595.125 1226.58 595.625 1227.25V1315.62H556.375V1227.25H507.5V1315.62H468.25V1227.25H419.375V1315.62H380.25Z" fill="#A8626A"/>
<path d="M645.75 1315.62C644.083 1315.38 642.833 1315.17 642 1315C641.25 1314.83 640.458 1314.67 639.625 1314.5C638.875 1314.33 638.083 1314.17 637.25 1314C636.5 1313.83 635.708 1313.58 634.875 1313.25C634.042 1312.92 633.208 1312.58 632.375 1312.25C631.625 1312 630.833 1311.62 630 1311.12C629.25 1310.62 628.458 1310.21 627.625 1309.88C626.875 1309.54 626.083 1309.04 625.25 1308.38C624.417 1307.79 623.583 1307.17 622.75 1306.5C622 1305.92 621.208 1305.29 620.375 1304.62C619.625 1303.96 618.917 1303.33 618.25 1302.75V1302.25L611 1290.62L608.625 1282.5C608.292 1280.92 608.042 1279.71 607.875 1278.88C607.792 1278.04 607.75 1277.17 607.75 1276.25C608.333 1274.67 608.625 1273.46 608.625 1272.62C608.625 1271.79 608.708 1271 608.875 1270.25C609.042 1269.42 609.208 1268.62 609.375 1267.88C609.542 1267.04 609.792 1266.25 610.125 1265.5C610.458 1264.67 610.667 1263.83 610.75 1263C610.917 1262.17 611.25 1261.38 611.75 1260.62C612.25 1259.79 612.667 1259 613 1258.25C613.333 1257.42 613.708 1256.62 614.125 1255.88C614.625 1255.04 615.208 1254.21 615.875 1253.38C616.542 1252.54 617.167 1251.75 617.75 1251C618.417 1250.17 619.375 1249.12 620.625 1247.88H621.125L634.125 1239.62H634.625C636.208 1239.04 637.417 1238.67 638.25 1238.5C639.083 1238.33 640.292 1238.08 641.875 1237.75H644.75L645.25 1237.25H726.125V1218H608.125V1188.12H729.375C731.042 1188.46 732.25 1188.71 733 1188.88C733.833 1189.04 734.625 1189.21 735.375 1189.38C736.208 1189.54 737 1189.79 737.75 1190.12C738.583 1190.46 739.417 1190.79 740.25 1191.12C741.083 1191.38 741.875 1191.75 742.625 1192.25C743.458 1192.75 744.25 1193.17 745 1193.5C745.833 1193.83 746.625 1194.33 747.375 1195C748.208 1195.58 749.042 1196.21 749.875 1196.88C750.708 1197.46 751.5 1198.08 752.25 1198.75C753.083 1199.42 753.875 1200.17 754.625 1201C755.458 1201.75 756.042 1202.29 756.375 1202.62V1203.12L763.125 1214.62C763.792 1216.21 764.25 1217.33 764.5 1218V1224.25L765 1224.75V1315.62H645.75ZM726.125 1285.38V1266.62H647.125V1285.38H726.125Z" fill="#A8626A"/>
<path d="M776.5 1315.62V1286.5H893.875V1266.5H813.75L813.5 1266.12H810C808.917 1265.88 808.083 1265.71 807.5 1265.62C806.917 1265.54 806.333 1265.46 805.75 1265.38C805.25 1265.21 804.708 1265.08 804.125 1265C803.542 1264.83 802.958 1264.67 802.375 1264.5C801.792 1264.25 801.208 1264.08 800.625 1264C800.125 1263.83 799.583 1263.62 799 1263.38C798.417 1263.12 797.833 1262.92 797.25 1262.75C796.75 1262.5 796.208 1262.29 795.625 1262.12C795.042 1261.88 794.458 1261.58 793.875 1261.25C793.375 1260.83 792.833 1260.46 792.25 1260.12C791.667 1259.79 791.083 1259.46 790.5 1259.12C789.917 1258.79 789.333 1258.42 788.75 1258C788.25 1257.5 787.708 1257 787.125 1256.5C786.542 1255.92 785.958 1255.42 785.375 1255C784.875 1254.5 784.042 1253.67 782.875 1252.5V1252.25L778.5 1245.38L777.125 1241.38C776.875 1240.21 776.708 1239.33 776.625 1238.75C776.542 1238.17 776.5 1237.62 776.5 1237.12C776.5 1236.54 776.5 1236.12 776.5 1235.88V1215.88C776.667 1214.71 776.792 1213.88 776.875 1213.38C777.042 1212.79 777.208 1212.21 777.375 1211.62C777.625 1211.04 777.875 1210.5 778.125 1210C778.375 1209.42 778.583 1208.83 778.75 1208.25C779 1207.67 779.292 1207.08 779.625 1206.5C779.958 1205.92 780.333 1205.38 780.75 1204.88C781.25 1204.29 781.708 1203.71 782.125 1203.12C782.625 1202.54 783.083 1202 783.5 1201.5C784 1200.92 784.833 1200.04 786 1198.88H786.25L796.125 1192.5L801.5 1190.38C802.667 1189.96 803.542 1189.71 804.125 1189.62C804.708 1189.46 805.458 1189.25 806.375 1189H807C808.167 1188.83 809 1188.71 809.5 1188.62C810.083 1188.46 810.667 1188.38 811.25 1188.38C811.833 1188.38 812.458 1188.38 813.125 1188.38H813.5L813.75 1188H933.625V1217.25H815.5V1237.25H895.625L896 1237.62H899.375C900.458 1237.79 901.292 1237.96 901.875 1238.12C902.458 1238.21 903.042 1238.33 903.625 1238.5C904.208 1238.58 904.75 1238.71 905.25 1238.88C905.833 1238.96 906.417 1239.04 907 1239.12C907.583 1239.21 908.125 1239.38 908.625 1239.62C909.208 1239.88 909.792 1240.12 910.375 1240.38C910.958 1240.54 911.5 1240.75 912 1241C912.583 1241.25 913.167 1241.5 913.75 1241.75C914.333 1241.92 914.917 1242.17 915.5 1242.5C916.083 1242.83 916.625 1243.17 917.125 1243.5C917.708 1243.83 918.292 1244.21 918.875 1244.62C919.458 1244.96 920 1245.29 920.5 1245.62C921.083 1245.96 921.667 1246.38 922.25 1246.88C922.833 1247.29 923.375 1247.79 923.875 1248.38C924.458 1248.88 925.042 1249.38 925.625 1249.88C926.208 1250.29 926.833 1250.83 927.5 1251.5V1251.88L932 1259.38C932.417 1260.46 932.667 1261.29 932.75 1261.88C932.917 1262.46 933.083 1263.21 933.25 1264.12V1264.75L933.625 1265.12V1287.88C933.375 1288.96 933.208 1289.79 933.125 1290.38C933.042 1290.96 932.875 1291.54 932.625 1292.12C932.375 1292.71 932.125 1293.29 931.875 1293.88C931.708 1294.38 931.5 1294.92 931.25 1295.5C931 1296.08 930.708 1296.67 930.375 1297.25C930.042 1297.75 929.708 1298.29 929.375 1298.88C929.042 1299.46 928.625 1300 928.125 1300.5C927.708 1301.08 927.208 1301.67 926.625 1302.25C926.125 1302.83 925.75 1303.25 925.5 1303.5H925.125L912.625 1311.62L908.125 1313.25C907.042 1313.75 906.208 1314.04 905.625 1314.12C905.042 1314.29 904.208 1314.46 903.125 1314.62H902.375C901.292 1314.88 900.458 1315.04 899.875 1315.12C899.292 1315.29 898.708 1315.38 898.125 1315.38C897.542 1315.38 896.917 1315.38 896.25 1315.38H896L895.625 1315.62H776.5Z" fill="#A8626A"/>
<path d="M945.25 1315.62V1188H984.375V1276.5H1062.75V1188H1101.88V1212.38L1102.12 1212.62V1274.62L1101.88 1275V1279.88C1101.71 1280.96 1101.54 1281.75 1101.38 1282.25C1101.29 1282.75 1101.25 1283.25 1101.25 1283.75C1101.25 1284.25 1101.21 1284.79 1101.12 1285.38C1101.04 1285.88 1100.88 1286.38 1100.62 1286.88C1100.46 1287.38 1100.29 1287.88 1100.12 1288.38C1100.04 1288.88 1099.88 1289.42 1099.62 1290C1099.46 1290.5 1099.25 1291 1099 1291.5C1098.83 1292 1098.62 1292.5 1098.38 1293C1098.21 1293.5 1098 1294.04 1097.75 1294.62C1097.58 1295.12 1097.33 1295.62 1097 1296.12C1096.75 1296.62 1096.42 1297.12 1096 1297.62C1095.58 1298.12 1095.21 1298.62 1094.88 1299.12C1094.62 1299.71 1094.21 1300.25 1093.62 1300.75C1093.12 1301.25 1092.67 1301.75 1092.25 1302.25C1091.92 1302.75 1091.54 1303.25 1091.12 1303.75C1090.71 1304.33 1090.29 1304.83 1089.88 1305.25H1089.5L1077.88 1312.62L1074.12 1313.88C1073.12 1314.29 1072.33 1314.54 1071.75 1314.62C1071.25 1314.71 1070.5 1314.88 1069.5 1315.12H1068.25C1067.25 1315.29 1066.46 1315.42 1065.88 1315.5C1065.38 1315.58 1064.88 1315.62 1064.38 1315.62C1063.88 1315.62 1063.38 1315.62 1062.88 1315.62C1062.38 1315.62 1061.83 1315.62 1061.25 1315.62C1060.75 1315.62 1060.25 1315.62 1059.75 1315.62C1059.25 1315.62 1058.75 1315.62 1058.25 1315.62C1057.75 1315.62 1057.21 1315.62 1056.62 1315.62C1056.12 1315.62 1055.62 1315.62 1055.12 1315.62C1054.62 1315.62 1054.12 1315.62 1053.62 1315.62C1053.12 1315.62 1052.58 1315.62 1052 1315.62C1051.5 1315.62 1051 1315.62 1050.5 1315.62C1050 1315.62 1049.5 1315.62 1049 1315.62C1048.5 1315.62 1047.96 1315.62 1047.38 1315.62C1046.88 1315.62 1046.38 1315.62 1045.88 1315.62C1045.38 1315.62 1044.88 1315.62 1044.38 1315.62C1043.88 1315.62 1043.33 1315.62 1042.75 1315.62C1042.25 1315.62 1041.75 1315.62 1041.25 1315.62C1040.75 1315.62 1040.25 1315.62 1039.75 1315.62C1039.25 1315.62 1038.71 1315.62 1038.12 1315.62C1037.62 1315.62 1037.12 1315.62 1036.62 1315.62C1036.12 1315.62 1035.62 1315.62 1035.12 1315.62C1034.62 1315.62 1034.08 1315.62 1033.5 1315.62C1033 1315.62 1032.5 1315.62 1032 1315.62C1031.5 1315.62 1031 1315.62 1030.5 1315.62C1030 1315.62 1029.46 1315.62 1028.88 1315.62C1028.38 1315.62 1027.88 1315.62 1027.38 1315.62C1026.88 1315.62 1026.38 1315.62 1025.88 1315.62C1025.38 1315.62 1024.83 1315.62 1024.25 1315.62C1023.75 1315.62 1023.25 1315.62 1022.75 1315.62C1022.25 1315.62 1021.75 1315.62 1021.25 1315.62C1020.75 1315.62 1020.21 1315.62 1019.62 1315.62C1019.12 1315.62 1018.62 1315.62 1018.12 1315.62C1017.62 1315.62 1017.12 1315.62 1016.62 1315.62C1016.12 1315.62 1015.58 1315.62 1015 1315.62C1014.5 1315.62 1014 1315.62 1013.5 1315.62C1013 1315.62 1012.5 1315.62 1012 1315.62C1011.5 1315.62 1010.96 1315.62 1010.38 1315.62C1009.88 1315.62 1009.38 1315.62 1008.88 1315.62C1008.38 1315.62 1007.88 1315.62 1007.38 1315.62C1006.88 1315.62 1006.33 1315.62 1005.75 1315.62C1005.25 1315.62 1004.75 1315.62 1004.25 1315.62C1003.75 1315.62 1003.25 1315.62 1002.75 1315.62C1002.25 1315.62 1001.71 1315.62 1001.12 1315.62C1000.62 1315.62 1000.12 1315.62 999.625 1315.62C999.125 1315.62 998.625 1315.62 998.125 1315.62C997.625 1315.62 997.083 1315.62 996.5 1315.62C996 1315.62 995.5 1315.62 995 1315.62C994.5 1315.62 993.958 1315.62 993.375 1315.62C992.875 1315.62 992.375 1315.62 991.875 1315.62C991.375 1315.62 990.875 1315.62 990.375 1315.62C989.875 1315.62 989.333 1315.62 988.75 1315.62C988.25 1315.62 987.75 1315.62 987.25 1315.62C986.75 1315.62 986.25 1315.62 985.75 1315.62C985.25 1315.62 984.708 1315.62 984.125 1315.62C983.625 1315.62 983.125 1315.62 982.625 1315.62C982.125 1315.62 981.625 1315.62 981.125 1315.62C980.625 1315.62 980.083 1315.62 979.5 1315.62C979 1315.62 978.5 1315.62 978 1315.62C977.5 1315.62 977 1315.62 976.5 1315.62C976 1315.62 975.458 1315.62 974.875 1315.62C974.375 1315.62 973.875 1315.62 973.375 1315.62C972.875 1315.62 972.375 1315.62 971.875 1315.62C971.375 1315.62 970.833 1315.62 970.25 1315.62C969.75 1315.62 969.25 1315.62 968.75 1315.62C968.25 1315.62 967.75 1315.62 967.25 1315.62C966.75 1315.62 966.208 1315.62 965.625 1315.62C965.125 1315.62 964.625 1315.62 964.125 1315.62C963.625 1315.62 963.125 1315.62 962.625 1315.62C962.125 1315.62 961.583 1315.62 961 1315.62C960.5 1315.62 960 1315.62 959.5 1315.62C959 1315.62 958.5 1315.62 958 1315.62C957.5 1315.62 956.958 1315.62 956.375 1315.62C955.875 1315.62 955.375 1315.62 954.875 1315.62C954.375 1315.62 953.875 1315.62 953.375 1315.62C952.875 1315.62 952.333 1315.62 951.75 1315.62C951.25 1315.62 950.75 1315.62 950.25 1315.62C949.75 1315.62 949.25 1315.62 948.75 1315.62C948.25 1315.62 947.708 1315.62 947.125 1315.62C946.625 1315.62 946 1315.62 945.25 1315.62Z" fill="#A8626A"/>
<path d="M1114 1315.62V1188.12H1233.88C1235.12 1188.38 1236.04 1188.5 1236.62 1188.5C1237.29 1188.5 1237.96 1188.58 1238.62 1188.75C1239.29 1188.83 1239.92 1189 1240.5 1189.25C1241.17 1189.5 1241.83 1189.71 1242.5 1189.88C1243.17 1189.96 1243.79 1190.12 1244.38 1190.38C1245.04 1190.62 1245.71 1190.88 1246.38 1191.12C1247.04 1191.38 1247.67 1191.71 1248.25 1192.12C1248.92 1192.54 1249.58 1192.96 1250.25 1193.38C1250.92 1193.71 1251.54 1194.08 1252.12 1194.5C1252.79 1194.83 1253.46 1195.29 1254.12 1195.88C1254.79 1196.38 1255.42 1196.88 1256 1197.38C1256.67 1197.88 1257.33 1198.38 1258 1198.88C1258.67 1199.38 1259.25 1199.92 1259.75 1200.5V1200.88L1267.5 1213.62C1268 1214.88 1268.29 1215.83 1268.38 1216.5C1268.54 1217.17 1268.88 1218.12 1269.38 1219.38V1220.12L1270.12 1222.12V1226.75L1270.5 1227.12V1315.62H1231.12V1227.12H1153V1315.62H1114Z" fill="#A8626A"/>
<path d="M377.072 1350.18C377.072 1355.52 374.47 1359.52 369.268 1362.21C365.47 1364.23 361.308 1365.23 356.782 1365.23H336.648V1383.11H329V1335.07H356.782C361.308 1335.07 365.47 1336.06 369.268 1338.03C374.47 1340.8 377.072 1344.85 377.072 1350.18ZM369.424 1350.18C369.424 1347.16 367.967 1344.83 365.054 1343.2C362.713 1341.89 359.955 1341.24 356.782 1341.24H336.648V1359.06H356.782C359.955 1359.06 362.713 1358.41 365.054 1357.11C367.967 1355.47 369.424 1353.16 369.424 1350.18Z" fill="#344265"/>
<path d="M434.196 1383.11H425.845L414.92 1363.28H390.338V1383.11H382.69V1335.07L414.14 1335.01C418.978 1335.01 423.14 1335.89 426.626 1337.65C431.516 1340.09 433.961 1343.91 433.961 1349.11C433.961 1355.7 430.19 1360.05 422.646 1362.15L434.196 1383.11ZM426.392 1349.11C426.392 1343.83 422.308 1341.18 414.14 1341.18H390.338V1357.05H414.14C422.308 1357.05 426.392 1354.4 426.392 1349.11Z" fill="#344265"/>
<path d="M496.782 1359.06C496.782 1366.11 493.999 1372.14 488.432 1377.13C482.865 1382.13 476.154 1384.63 468.298 1384.63C460.39 1384.63 453.627 1382.13 448.008 1377.13C442.442 1372.14 439.658 1366.11 439.658 1359.06C439.658 1352.05 442.442 1346.05 448.008 1341.05C453.627 1336.1 460.39 1333.62 468.298 1333.62C476.154 1333.62 482.891 1336.1 488.51 1341.05C494.025 1346.05 496.782 1352.05 496.782 1359.06ZM489.135 1359.13C489.135 1353.79 487.106 1349.22 483.048 1345.4C478.99 1341.62 474.099 1339.73 468.376 1339.73C462.55 1339.73 457.555 1341.64 453.393 1345.46C449.283 1349.24 447.228 1353.79 447.228 1359.13C447.228 1364.46 449.309 1369.01 453.471 1372.79C457.581 1376.57 462.55 1378.45 468.376 1378.45C474.099 1378.45 478.99 1376.57 483.048 1372.79C487.106 1369.01 489.135 1364.46 489.135 1359.13Z" fill="#344265"/>
<path d="M558.589 1359.06C558.589 1375.1 549.172 1383.11 530.339 1383.11H502.947V1335.07H530.339C549.172 1335.07 558.589 1343.07 558.589 1359.06ZM550.863 1359.06C550.863 1351.8 548.652 1346.78 544.23 1344.01C541.212 1342.17 536.582 1341.24 530.339 1341.24H510.595V1376.94H530.339C536.582 1376.94 541.212 1376 544.23 1374.11C548.652 1371.34 550.863 1366.32 550.863 1359.06Z" fill="#344265"/>
<path d="M616.103 1362.71C616.103 1371.32 612.903 1377.43 606.504 1381.04C602.342 1383.43 597.035 1384.63 590.584 1384.63C584.081 1384.63 578.722 1383.43 574.508 1381.04C568.109 1377.43 564.91 1371.32 564.91 1362.71V1335.07H572.557V1362.71C572.557 1373.33 578.566 1378.64 590.584 1378.64C602.498 1378.64 608.455 1373.33 608.455 1362.71V1335.07H616.103V1362.71Z" fill="#344265"/>
<path d="M672.759 1383.11H650.674C631.893 1383.11 622.502 1375.1 622.502 1359.06C622.502 1343.07 631.893 1335.07 650.674 1335.07H672.759V1341.24H650.674C644.483 1341.24 639.852 1342.17 636.783 1344.01C632.361 1346.78 630.15 1351.8 630.15 1359.06C630.15 1366.32 632.361 1371.34 636.783 1374.11C639.904 1376 644.535 1376.94 650.674 1376.94H672.759V1383.11Z" fill="#344265"/>
<path d="M724.654 1383.11H702.101C693.309 1383.11 687.144 1381.56 683.606 1378.45C680.068 1375.43 678.299 1370.12 678.299 1362.53V1335.07H724.654V1341.24H685.947V1355.35H722.469V1361.45H685.947V1362.53C685.947 1368.02 687.092 1371.82 689.381 1373.92C691.67 1375.94 695.91 1376.94 702.101 1376.94H724.654V1383.11Z" fill="#344265"/>
<path d="M781.7 1383.11H773.35L762.425 1363.28H737.843V1383.11H730.195V1335.07L761.644 1335.01C766.483 1335.01 770.645 1335.89 774.13 1337.65C779.021 1340.09 781.466 1343.91 781.466 1349.11C781.466 1355.7 777.694 1360.05 770.15 1362.15L781.7 1383.11ZM773.896 1349.11C773.896 1343.83 769.812 1341.18 761.644 1341.18H737.843V1357.05H761.644C769.812 1357.05 773.896 1354.4 773.896 1349.11Z" fill="#344265"/>
<path d="M821.422 1383.11H813.852V1335.07H821.422V1383.11Z" fill="#344265"/>
<path d="M883.462 1359.06C883.462 1375.1 874.045 1383.11 855.212 1383.11H827.821V1335.07H855.212C874.045 1335.07 883.462 1343.07 883.462 1359.06ZM875.736 1359.06C875.736 1351.8 873.525 1346.78 869.103 1344.01C866.085 1342.17 861.455 1341.24 855.212 1341.24H835.468V1376.94H855.212C861.455 1376.94 866.085 1376 869.103 1374.11C873.525 1371.34 875.736 1366.32 875.736 1359.06Z" fill="#344265"/>
<path d="M969.304 1368.07C969.304 1378.1 962.541 1383.11 949.014 1383.11H918.423V1376.94H949.014C953.124 1376.94 956.116 1376.42 957.988 1375.37C960.434 1373.98 961.656 1371.55 961.656 1368.07C961.656 1363.24 957.754 1360.83 949.951 1360.83H936.762C931.351 1360.83 926.773 1359.8 923.027 1357.74C918.813 1355.35 916.706 1352.03 916.706 1347.79C916.706 1343.13 919.021 1339.71 923.652 1337.53C927.085 1335.89 931.091 1335.07 935.67 1335.07H966.885V1341.24H935.67C932.288 1341.24 929.609 1341.75 927.632 1342.75C925.447 1343.93 924.354 1345.61 924.354 1347.79C924.354 1349.81 925.421 1351.46 927.554 1352.77C929.687 1354.03 932.756 1354.65 936.762 1354.65H949.951C954.945 1354.65 959.185 1355.56 962.671 1357.36C967.093 1359.75 969.304 1363.32 969.304 1368.07Z" fill="#344265"/>
<path d="M1032.12 1335.07L1006.84 1363.91V1383.11H999.271V1363.91L973.986 1335.07H983.351L1003.09 1357.55L1022.76 1335.07H1032.12Z" fill="#344265"/>
<path d="M1089.87 1368.07C1089.87 1378.1 1083.11 1383.11 1069.58 1383.11H1038.99V1376.94H1069.58C1073.69 1376.94 1076.68 1376.42 1078.56 1375.37C1081 1373.98 1082.23 1371.55 1082.23 1368.07C1082.23 1363.24 1078.32 1360.83 1070.52 1360.83H1057.33C1051.92 1360.83 1047.34 1359.8 1043.6 1357.74C1039.38 1355.35 1037.28 1352.03 1037.28 1347.79C1037.28 1343.13 1039.59 1339.71 1044.22 1337.53C1047.65 1335.89 1051.66 1335.07 1056.24 1335.07H1087.45V1341.24H1056.24C1052.86 1341.24 1050.18 1341.75 1048.2 1342.75C1046.02 1343.93 1044.92 1345.61 1044.92 1347.79C1044.92 1349.81 1045.99 1351.46 1048.12 1352.77C1050.26 1354.03 1053.33 1354.65 1057.33 1354.65H1070.52C1075.51 1354.65 1079.75 1355.56 1083.24 1357.36C1087.66 1359.75 1089.87 1363.32 1089.87 1368.07Z" fill="#344265"/>
<path d="M1149.42 1341.24H1126V1383.11H1118.44V1341.24H1095.02V1335.07H1149.42V1341.24Z" fill="#344265"/>
<path d="M1200.92 1383.11H1178.37C1169.58 1383.11 1163.41 1381.56 1159.87 1378.45C1156.34 1375.43 1154.57 1370.12 1154.57 1362.53V1335.07H1200.92V1341.24H1162.21V1355.35H1198.74V1361.45H1162.21V1362.53C1162.21 1368.02 1163.36 1371.82 1165.65 1373.92C1167.94 1375.94 1172.18 1376.94 1178.37 1376.94H1200.92V1383.11Z" fill="#344265"/>
<path d="M1271 1383.11H1263.43V1342.63L1241.97 1383.11H1235.57L1214.03 1342.57V1383.11H1206.46V1335.07H1218.48L1238.77 1373.42L1259.14 1335.07H1271V1383.11Z" fill="#344265"/>
<rect width="4" height="32" rx="2" transform="matrix(-1 0 0 1 12 488)" fill="#8CDDEE"/>
</g>
<defs>
<filter id="filter0_f_1105_719" x="-17.7385" y="423.26" width="71.4723" height="253.496" filterUnits="userSpaceOnUse" color-interpolation-filters="sRGB">
<feFlood flood-opacity="0" result="BackgroundImageFix"/>
<feBlend mode="normal" in="SourceGraphic" in2="BackgroundImageFix" result="shape"/>
<feGaussianBlur stdDeviation="7.6" result="effect1_foregroundBlur_1105_719"/>
</filter>
<linearGradient id="paint0_linear_1105_719" x1="53.9998" y1="482" x2="35.9998" y2="600" gradientUnits="userSpaceOnUse">
<stop stop-color="#B2BDDD"/>
<stop offset="0.950374" stop-color="white"/>
</linearGradient>
<linearGradient id="paint1_linear_1105_719" x1="32" y1="396.738" x2="32" y2="580" gradientUnits="userSpaceOnUse">
<stop stop-color="#B2BDDD"/>
<stop offset="0.57763" stop-color="#8D92A6"/>
</linearGradient>
<linearGradient id="paint2_linear_1105_719" x1="800" y1="592" x2="800" y2="2560" gradientUnits="userSpaceOnUse">
<stop stop-color="white"/>
<stop offset="1" stop-color="#B2BDDD"/>
</linearGradient>
<linearGradient id="paint3_linear_1105_719" x1="68" y1="592" x2="68" y2="2572" gradientUnits="userSpaceOnUse">
<stop stop-color="white"/>
<stop offset="1" stop-color="#B2BDDD"/>
</linearGradient>
<linearGradient id="paint4_linear_1105_719" x1="800" y1="592" x2="800" y2="2560" gradientUnits="userSpaceOnUse">
<stop stop-color="#B2BDDD"/>
<stop offset="0.0995687" stop-color="#B2BDDD"/>
<stop offset="1" stop-color="white"/>
</linearGradient>
<linearGradient id="paint5_linear_1105_719" x1="84" y1="572" x2="30" y2="708" gradientUnits="userSpaceOnUse">
<stop offset="0.14703" stop-color="white"/>
<stop offset="0.711538" stop-color="#D6DBE8"/>
<stop offset="1" stop-color="white"/>
</linearGradient>
<linearGradient id="paint6_linear_1105_719" x1="32" y1="592" x2="32" y2="708" gradientUnits="userSpaceOnUse">
<stop stop-color="#8D92A6"/>
<stop offset="1" stop-color="#B2BDDD"/>
</linearGradient>
<linearGradient id="paint7_linear_1105_719" x1="68" y1="592" x2="68" y2="2572" gradientUnits="userSpaceOnUse">
<stop stop-color="white"/>
<stop offset="1" stop-color="#B2BDDD"/>
</linearGradient>
<linearGradient id="paint8_linear_1105_719" x1="1534" y1="592" x2="1534" y2="2560" gradientUnits="userSpaceOnUse">
<stop stop-color="white"/>
<stop offset="1" stop-color="#B2BDDD"/>
</linearGradient>
<linearGradient id="paint9_linear_1105_719" x1="1480" y1="2526" x2="1084" y2="2526" gradientUnits="userSpaceOnUse">
<stop stop-color="white"/>
<stop offset="1" stop-color="#B4BFDE"/>
</linearGradient>
<clipPath id="clip0_1105_719">
<rect width="1600" height="2572" rx="60" transform="matrix(-1 0 0 1 1600 0)" fill="white"/>
</clipPath>
</defs>
</svg>
