<svg width="256" height="220" viewBox="0 0 256 220" fill="none" xmlns="http://www.w3.org/2000/svg">
<rect x="4" y="44" width="248" height="172" rx="20" stroke="#344265" stroke-width="8"/>
<path d="M94.7314 62V134.938C94.7314 146.838 97.7647 154.668 102.787 159.581C107.834 164.518 115.917 167.515 128.171 167.515C140.299 167.515 148.289 164.525 153.28 159.6C158.257 154.689 161.269 146.851 161.269 134.938V62H190V134.938C190 157.224 182.403 174.267 166.178 184.398L166.177 184.397C155.861 190.947 143.06 194 128.171 194C113.16 194 100.248 190.945 89.8223 184.397V184.398C73.5974 174.267 66 157.224 66 134.938V62H94.7314Z" fill="#344265" stroke="#344265" stroke-width="12"/>
<path d="M29.2317 15.6345C29.2317 20.4907 27.4047 23.9374 23.7507 25.9746C21.3742 27.3249 18.3441 28 14.6604 28C10.947 28 7.88721 27.3249 5.48094 25.9746C1.82698 23.9374 0 20.4907 0 15.6345V0.035533H4.36693V15.6345C4.36693 21.6277 7.79809 24.6244 14.6604 24.6244C21.4633 24.6244 24.8648 21.6277 24.8648 15.6345V0.035533H29.2317V15.6345Z" fill="#344265"/>
<path d="M61.3152 27.1472H56.9483L37.2971 4.61929V27.1472H32.8856V0.035533H38.2329L56.9483 21.4975V0.035533H61.3152V27.1472Z" fill="#344265"/>
<path d="M69.247 27.1472H64.9246V0.035533H69.247V27.1472Z" fill="#344265"/>
<path d="M103.291 3.51777H89.9231V27.1472H85.6007V3.51777H72.2326V0.035533H103.291V3.51777Z" fill="#344265"/>
<path d="M150.08 27.1472H137.469C126.745 27.1472 121.383 22.6227 121.383 13.5736C121.383 4.54822 126.745 0.035533 137.469 0.035533H150.08V3.51777H137.469C133.934 3.51777 131.29 4.03892 129.537 5.08122C127.012 6.64467 125.75 9.47546 125.75 13.5736C125.75 17.6717 127.012 20.5025 129.537 22.066C131.32 23.132 133.964 23.665 137.469 23.665H150.08V27.1472Z" fill="#344265"/>
<path d="M188.892 27.1472H184.124L180.559 20.6091H160.507L157.076 27.1472H152.308L166.478 0.035533H169.998C171.781 0.035533 173.132 0.367174 174.053 1.03046C174.737 1.50423 175.494 2.48731 176.326 3.9797L188.892 27.1472ZM178.688 17.1269L171.959 4.69036C171.484 3.81387 170.86 3.37563 170.087 3.37563H169.419L162.289 17.1269H178.688Z" fill="#344265"/>
<path d="M221.02 27.1472H216.252L210.014 15.9543H195.977V27.1472H191.61V0.035533L209.568 0C212.331 0 214.707 0.497462 216.698 1.49239C219.49 2.86633 220.886 5.022 220.886 7.95939C220.886 11.6785 218.733 14.1303 214.425 15.3147L221.02 27.1472ZM216.564 7.95939C216.564 4.97462 214.232 3.48223 209.568 3.48223H195.977V12.4365H209.568C214.232 12.4365 216.564 10.9442 216.564 7.95939Z" fill="#344265"/>
<path d="M256 13.5736C256 22.6227 250.623 27.1472 239.869 27.1472H224.228V0.035533H239.869C250.623 0.035533 256 4.54822 256 13.5736ZM251.589 13.5736C251.589 9.47546 250.326 6.64467 247.801 5.08122C246.078 4.03892 243.434 3.51777 239.869 3.51777H228.595V23.665H239.869C243.434 23.665 246.078 23.132 247.801 22.066C250.326 20.5025 251.589 17.6717 251.589 13.5736Z" fill="#344265"/>
</svg>
