<svg width="2360" height="516" viewBox="0 0 2360 516" fill="none" xmlns="http://www.w3.org/2000/svg">
<path d="M-248.603 -1082.63L5.80859 1825.3" stroke="black" stroke-width="3"/>
<path d="M-95.5535 -1096.02L158.858 1811.91" stroke="black" stroke-width="3"/>
<path d="M57.4956 -1109.41L311.907 1798.52" stroke="black" stroke-width="3"/>
<path d="M210.545 -1122.8L464.956 1785.13" stroke="black" stroke-width="3"/>
<path d="M363.595 -1136.19L618.006 1771.74" stroke="black" stroke-width="3"/>
<path d="M516.644 -1149.58L771.055 1758.35" stroke="black" stroke-width="3"/>
<path d="M669.693 -1162.97L924.104 1744.96" stroke="black" stroke-width="3"/>
<path d="M822.742 -1176.36L1077.15 1731.57" stroke="black" stroke-width="3"/>
<path d="M975.791 -1189.75L1230.2 1718.18" stroke="black" stroke-width="3"/>
<path d="M1128.84 -1203.14L1383.25 1704.79" stroke="black" stroke-width="3"/>
<path d="M1281.89 -1216.53L1536.3 1691.4" stroke="black" stroke-width="3"/>
<path d="M1434.94 -1229.92L1689.35 1678.01" stroke="black" stroke-width="3"/>
<path d="M1587.99 -1243.31L1842.4 1664.62" stroke="black" stroke-width="3"/>
<path d="M1741.04 -1256.7L1995.45 1651.23" stroke="black" stroke-width="3"/>
<path d="M1894.09 -1270.09L2148.5 1637.84" stroke="black" stroke-width="3"/>
<path d="M2047.14 -1283.48L2301.55 1624.45" stroke="black" stroke-width="3"/>
<path d="M2200.18 -1296.87L2454.6 1611.06" stroke="black" stroke-width="3"/>
<path d="M2353.23 -1310.26L2607.65 1597.67" stroke="black" stroke-width="3"/>
<path d="M-307.921 2.10352L2600.01 -252.308" stroke="black" stroke-width="3"/>
<path d="M-294.531 155.152L2613.4 -99.259" stroke="black" stroke-width="3"/>
<path d="M-281.141 308.203L2626.79 53.7917" stroke="black" stroke-width="3"/>
<path d="M-267.751 461.252L2640.18 206.841" stroke="black" stroke-width="3"/>
<path d="M-254.361 614.301L2653.57 359.889" stroke="black" stroke-width="3"/>
<path d="M-240.971 767.35L2666.96 512.938" stroke="black" stroke-width="3"/>
</svg>
