<svg width="2360" height="516" viewBox="0 0 2360 516" fill="none" xmlns="http://www.w3.org/2000/svg">
<path opacity="0.025641" d="M3096.6 866.921C3096.6 866.921 2821.8 522.68 2397.82 423.708C1576.89 232.074 1120.5 624.916 388.04 481.648C-290.836 348.86 -118.489 7.25273 -118.489 7.25273" stroke="white" stroke-width="4"/>
<path opacity="0.0512821" d="M3095.65 840.891C3095.65 840.891 2814.06 502.189 2388.94 408.815C1565.81 228.021 1119 623.483 385.175 489.697C-294.965 365.699 -130.415 24.4199 -130.415 24.4199" stroke="white" stroke-width="4"/>
<path opacity="0.0769231" d="M3094.18 815.144C3094.18 815.144 2806.03 482.017 2379.91 394.167C1554.85 224.069 1117.48 621.921 382.514 497.482C-298.689 382.145 -141.784 41.34 -141.784 41.34" stroke="white" stroke-width="4"/>
<path opacity="0.102564" d="M3092.21 789.705C3092.21 789.705 2797.75 462.18 2370.75 379.772C1544 220.212 1115.95 620.225 380.046 504.982C-302.024 398.17 -152.605 57.9795 -152.605 57.9795" stroke="white" stroke-width="4"/>
<path opacity="0.128205" d="M3089.74 764.607C3089.74 764.607 2789.21 442.7 2361.47 365.646C1533.28 216.451 1114.39 618.396 377.757 512.19C-304.992 413.752 -162.89 74.3146 -162.89 74.3146" stroke="white" stroke-width="4"/>
<path opacity="0.153846" d="M3086.8 739.875C3086.8 739.875 2780.43 423.592 2352.08 351.795C1522.68 212.781 1112.8 616.432 375.633 519.088C-307.611 428.866 -172.652 90.3139 -172.652 90.3139" stroke="white" stroke-width="4"/>
<path opacity="0.179487" d="M3083.38 715.533C3083.38 715.533 2771.44 404.872 2342.59 338.23C1512.22 209.196 1111.17 614.33 373.658 525.666C-309.905 443.488 -181.905 105.95 -181.905 105.95" stroke="white" stroke-width="4"/>
<path opacity="0.205128" d="M3079.53 691.609C3079.53 691.609 2762.25 386.558 2333.01 324.962C1501.9 205.697 1109.5 612.091 371.818 531.912C-311.896 457.598 -190.665 121.198 -190.665 121.198" stroke="white" stroke-width="4"/>
<path opacity="0.230769" d="M3075.24 668.127C3075.24 668.127 2752.89 368.663 2323.37 311.996C1491.73 202.277 1107.77 609.713 370.099 537.814C-313.606 471.175 -198.948 136.032 -198.948 136.032" stroke="white" stroke-width="4"/>
<path opacity="0.25641" d="M3070.54 645.11C3070.54 645.11 2743.36 351.201 2313.67 299.343C1481.7 198.933 1105.98 607.197 368.484 543.363C-315.06 484.198 -206.774 150.425 -206.774 150.425" stroke="white" stroke-width="4"/>
<path opacity="0.282051" d="M3065.46 622.582C3065.46 622.582 2733.68 334.186 2303.93 287.008C1471.82 195.661 1104.12 604.542 366.958 548.548C-316.282 496.651 -214.16 164.357 -214.16 164.357" stroke="white" stroke-width="4"/>
<path opacity="0.307692" d="M3060.01 600.561C3060.01 600.561 2723.89 317.629 2294.16 274.999C1462.1 192.457 1102.2 601.747 365.505 553.36C-317.297 508.514 -221.127 177.8 -221.127 177.8" stroke="white" stroke-width="4"/>
<path opacity="0.333333" d="M3054.21 579.069C3054.21 579.069 2713.99 301.541 2284.37 263.32C1452.53 189.314 1100.19 598.811 364.109 557.789C-318.128 519.769 -227.694 190.735 -227.694 190.735" stroke="white" stroke-width="4"/>
<path opacity="0.358974" d="M3048.09 558.128C3048.09 558.128 2704.01 285.935 2274.58 251.98C1443.12 186.234 1098.11 595.738 362.756 561.831C-318.802 530.405 -233.883 203.142 -233.883 203.142" stroke="white" stroke-width="4"/>
<path opacity="0.384615" d="M3041.66 537.755C3041.66 537.755 2693.96 270.822 2264.81 240.984C1433.88 183.21 1095.93 592.528 361.428 565.479C-319.343 540.408 -239.715 215.002 -239.715 215.002" stroke="white" stroke-width="4"/>
<path opacity="0.410256" d="M3034.95 517.966C3034.95 517.966 2683.86 256.206 2255.06 230.333C1424.8 180.236 1093.66 589.18 360.113 568.722C-319.774 549.761 -245.212 226.294 -245.212 226.294" stroke="white" stroke-width="4"/>
<path opacity="0.435897" d="M3027.99 498.776C3027.99 498.776 2673.74 242.098 2245.35 220.033C1415.88 177.31 1091.29 585.694 358.793 571.556C-320.122 558.453 -250.396 237.001 -250.396 237.001" stroke="white" stroke-width="4"/>
<path opacity="0.461538" d="M3020.79 480.203C3020.79 480.203 2663.61 228.506 2235.69 210.089C1407.13 174.428 1088.82 582.072 357.456 573.978C-320.409 566.475 -255.287 247.107 -255.287 247.107" stroke="white" stroke-width="4"/>
<path opacity="0.487179" d="M3013.38 462.258C3013.38 462.258 2653.48 215.435 2226.09 200.501C1398.55 171.585 1086.24 578.315 356.085 575.979C-320.659 573.815 -259.91 256.597 -259.91 256.597" stroke="white" stroke-width="4"/>
<path opacity="0.512821" d="M3005.77 444.957C3005.77 444.957 2643.38 202.893 2216.56 191.275C1390.13 168.78 1083.55 574.425 354.67 577.56C-320.893 580.465 -264.284 265.458 -264.284 265.458" stroke="white" stroke-width="4"/>
<path opacity="0.538462" d="M2997.99 428.311C2997.99 428.311 2633.33 190.886 2207.12 182.413C1381.88 166.008 1080.75 570.403 353.195 578.715C-321.135 586.418 -268.431 273.677 -268.431 273.677" stroke="white" stroke-width="4"/>
<path opacity="0.564103" d="M2990.07 412.327C2990.07 412.327 2623.32 179.415 2197.77 173.914C1373.8 163.264 1077.82 566.248 351.649 579.438C-321.405 591.663 -272.372 281.239 -272.372 281.239" stroke="white" stroke-width="4"/>
<path opacity="0.589744" d="M2982.01 397.019C2982.01 397.019 2613.4 168.486 2188.53 165.782C1365.89 160.545 1074.78 561.963 350.02 579.729C-321.723 596.196 -276.128 288.135 -276.128 288.135" stroke="white" stroke-width="4"/>
<path opacity="0.615385" d="M2973.84 382.397C2973.84 382.397 2603.55 158.105 2179.4 158.019C1358.14 157.852 1071.61 557.55 348.298 579.588C-322.106 600.013 -279.716 294.357 -279.716 294.357" stroke="white" stroke-width="4"/>
<path opacity="0.641026" d="M2965.59 368.465C2965.59 368.465 2593.81 148.272 2170.39 150.624C1350.56 155.177 1068.32 553.009 346.471 579.009C-322.575 603.107 -283.158 299.894 -283.158 299.894" stroke="white" stroke-width="4"/>
<path opacity="0.666667" d="M2957.25 355.23C2957.25 355.23 2584.18 138.99 2161.52 143.598C1343.14 152.519 1064.9 548.34 344.53 577.992C-323.144 605.474 -286.47 304.738 -286.47 304.738" stroke="white" stroke-width="4"/>
<path opacity="0.692308" d="M2948.86 342.701C2948.86 342.701 2574.67 130.261 2152.77 136.942C1335.89 149.876 1061.35 543.547 342.468 576.536C-323.83 607.111 -289.669 308.883 -289.669 308.883" stroke="white" stroke-width="4"/>
<path opacity="0.717949" d="M2940.43 330.881C2940.43 330.881 2565.29 122.088 2144.17 130.656C1328.79 147.246 1057.68 538.63 340.275 574.641C-324.645 608.017 -292.773 312.324 -292.773 312.324" stroke="white" stroke-width="4"/>
<path opacity="0.74359" d="M2931.97 319.774C2931.97 319.774 2556.06 114.468 2135.72 124.739C1321.86 144.625 1053.87 533.589 337.947 572.304C-325.601 608.188 -295.794 315.054 -295.794 315.054" stroke="white" stroke-width="4"/>
<path opacity="0.769231" d="M2923.49 309.384C2923.49 309.384 2546.97 107.406 2127.42 119.192C1315.08 142.012 1049.93 528.427 335.477 569.529C-326.711 607.623 -298.748 317.07 -298.748 317.07" stroke="white" stroke-width="4"/>
<path opacity="0.794872" d="M2915.01 299.713C2915.01 299.713 2538.04 100.899 2119.28 114.013C1308.45 139.405 1045.86 523.143 332.859 566.311C-327.983 606.321 -301.647 318.367 -301.647 318.367" stroke="white" stroke-width="4"/>
<path opacity="0.820513" d="M2906.54 290.764C2906.54 290.764 2529.27 94.9481 2111.29 109.203C1301.98 136.802 1041.66 517.74 330.091 562.654C-329.426 604.283 -304.503 318.946 -304.503 318.946" stroke="white" stroke-width="4"/>
<path opacity="0.846154" d="M2898.08 282.539C2898.08 282.539 2520.67 89.555 2103.46 104.762C1295.66 134.205 1037.33 512.22 327.169 558.56C-331.045 601.51 -307.324 318.805 -307.324 318.805" stroke="white" stroke-width="4"/>
<path opacity="0.871795" d="M2889.65 275.036C2889.65 275.036 2512.23 84.7146 2095.8 100.685C1289.48 131.608 1032.88 506.58 324.092 554.026C-332.844 598.001 -310.12 317.94 -310.12 317.94" stroke="white" stroke-width="4"/>
<path opacity="0.897436" d="M2881.25 268.256C2881.25 268.256 2503.97 80.4287 2088.29 96.9754C1283.44 129.014 1028.3 500.824 320.859 549.055C-334.827 593.758 -312.898 316.355 -312.898 316.355" stroke="white" stroke-width="4"/>
<path opacity="0.923077" d="M2872.88 262.196C2872.88 262.196 2495.87 76.6939 2080.94 93.6288C1277.55 126.419 1023.59 494.952 317.471 543.648C-336.995 588.783 -315.664 314.047 -315.664 314.047" stroke="white" stroke-width="4"/>
<path opacity="0.948718" d="M2864.55 256.857C2864.55 256.857 2487.94 73.5093 2073.75 90.6451C1271.79 123.824 1018.77 488.964 313.928 537.807C-339.348 583.077 -318.423 311.02 -318.423 311.02" stroke="white" stroke-width="4"/>
<path opacity="0.974359" d="M2856.26 252.236C2856.26 252.236 2480.18 70.8728 2066.72 88.0228C1266.16 121.229 1013.82 482.862 310.233 531.534C-341.884 576.646 -321.176 307.276 -321.176 307.276" stroke="white" stroke-width="4"/>
<path d="M2848.01 248.328C2848.01 248.328 2472.58 68.7811 2059.84 85.7594C1260.67 118.633 1008.76 476.645 306.39 524.83C-344.598 569.49 -323.926 302.818 -323.926 302.818" stroke="white" stroke-width="4"/>
</svg>
