<svg width="1676" height="1012" viewBox="0 0 1676 1012" fill="none" xmlns="http://www.w3.org/2000/svg">
<path fill-rule="evenodd" clip-rule="evenodd" d="M888.489 574.454C858.803 502.467 753.791 248.394 488.212 140.884C312.116 69.6089 206.099 105.16 54.9677 48.3543C-50.3629 44.1073 8.3494 361.309 126.041 418.94C126.041 418.94 128.343 595.592 252.489 649.418C252.489 649.418 256.302 753.379 449.361 801.275C449.361 801.275 406.547 845.925 389.372 888.643L407.408 1094.79C407.408 1094.79 321.182 1071.1 260.453 1126.97C223.973 1160.53 285.301 1349.75 505.449 1221.46C505.449 1221.46 811.46 1317.62 867.685 1054.52C891.392 825.47 646.65 756.916 620.166 931.256C613.663 974.062 633.845 1048.28 728.401 1008.74C728.401 1008.74 771.241 1076.47 672.187 1139.26C656.594 1149.06 638.899 1155 620.559 1156.61C602.22 1158.21 583.76 1155.43 566.703 1148.49C566.703 1148.49 580.234 1141.63 576.477 1094.49L560.119 907.522C560.119 907.522 541.254 851.41 654.691 773.651C654.691 773.651 553.927 738.889 455.303 593.032C356.678 447.176 446.23 293.825 627.612 408.876C656.419 427.192 684.005 447.37 710.193 469.28C710.193 469.28 538.181 397.118 513.854 544.419C489.528 691.721 684.816 724.77 713.605 618.729C723.11 583.719 695.31 549.647 645.405 557.061C645.405 557.061 645.952 504.573 720.023 526.382C789.253 546.763 857.261 659.299 857.261 659.299L869.844 803.123C869.844 803.123 881.469 884.225 915.332 881.262M862.363 441.464C862.363 441.464 861.222 152.133 666.393 23.8364C578.119 -34.2932 526.388 52.6637 525.907 74.7688C525.427 96.8738 536.881 175.947 624.134 148.301C643.604 142.129 648.718 112.607 644.335 103.055C644.335 103.055 710.853 92.1563 786.188 288.707C805.166 338.297 827.954 414.278 862.364 441.476L862.363 441.464ZM369.26 1156.09C369.26 1156.09 329.611 1151.3 317.36 1170.29C305.109 1189.28 332.277 1195.78 353.017 1191.33C373.757 1186.87 402.679 1158.58 369.286 1156.1L369.26 1156.09ZM888.464 574.444C905.199 498.396 962.996 230.079 1205.87 78.0846C1366.91 -22.6865 1477.49 -6.08488 1616.47 -88.2721C1719.46 -110.744 1716.72 211.833 1610.83 289.026C1610.83 289.026 1639.24 463.393 1526.32 537.96C1526.32 537.96 1540.62 641.003 1358.81 721.696C1358.81 721.696 1408.72 758.233 1433.06 797.319L1451.1 1003.47C1451.1 1003.47 1531.9 965.164 1601.41 1009.64C1643.16 1036.36 1615.62 1233.35 1376.54 1145.24C1376.54 1145.24 1091.87 1293.08 990.821 1043.74C927.693 822.281 1156.82 712.269 1213.17 879.362C1227.01 920.389 1220.02 996.987 1120.03 974.466C1120.03 974.466 1089.6 1048.6 1198.06 1093.24C1215.12 1100.18 1233.58 1102.96 1251.92 1101.36C1270.25 1099.76 1287.95 1093.81 1303.54 1084.01C1303.54 1084.01 1289.02 1079.61 1284.55 1032.53L1268.19 845.574C1268.19 845.574 1277.02 787.038 1151.8 730.159C1151.8 730.159 1245 678.427 1316.8 517.661C1388.6 356.895 1273.8 221.409 1115.16 366.221C1089.97 389.263 1066.3 413.924 1044.31 440.048C1044.31 440.048 1201.19 339.112 1250.72 479.952C1300.25 620.793 1113.68 687.249 1066.91 587.82C1051.47 554.991 1072.93 516.61 1123.36 515.246C1123.36 515.246 1113.71 463.649 1044.55 497.989C979.909 530.077 932.477 652.731 932.477 652.731L945.06 796.555C945.06 796.555 949.195 878.312 915.333 881.275M889.632 439.09C889.632 439.09 840.51 153.988 1010.1 -6.22204C1086.94 -78.7971 1152.98 -2.14381 1157.29 19.542C1161.61 41.2278 1164.06 121.088 1073.33 109.014C1053.09 106.316 1042.93 78.1302 1045.58 67.9631C1045.58 67.9631 978.177 68.7809 938.118 275.427C928.044 327.546 918.791 406.331 889.632 439.09ZM1499.31 1057.23C1499.31 1057.23 1537.52 1045.63 1552.88 1062.21C1568.25 1078.78 1542.63 1089.9 1521.42 1089.12C1500.22 1088.33 1466.86 1065.48 1499.31 1057.23ZM291.625 272.131L318.468 309.914L363.278 298.303L335.712 335.542L360.599 374.648L316.718 359.883L287.288 395.665L287.731 349.3L244.662 332.301L288.817 318.41L291.625 272.131ZM294.128 525.4L311.185 548.477L338.909 540.772L322.156 564.139L338.012 588.056L310.595 579.423L292.653 601.915L292.462 573.206L265.534 563.191L292.829 554.078L294.128 525.4ZM1391.83 -118.054L1406.17 -41.1038L1483.01 -27.0287L1414.42 10.4031L1424.81 87.9861L1368.07 34.1707L1297.66 68.0407L1331.19 -2.65248L1277.28 -59.301L1354.74 -49.1749L1391.83 -118.054ZM1473.68 218.232L1500.73 259.755L1549.02 249.298L1518.04 287.894L1542.95 330.745L1496.75 313.079L1463.86 349.999L1466.28 300.482L1421.06 280.48L1468.75 267.545L1473.68 218.232ZM1602.84 -238.155L1600.12 -186.287L1647.55 -165.263L1597.43 -151.779L1592.05 -100.115L1563.77 -143.631L1513.03 -132.728L1545.7 -173.118L1519.73 -218.057L1568.17 -199.484L1602.84 -238.155ZM271.173 1314.72L280.016 1389.98L353.342 1408.61L284.633 1440.26L289.623 1515.86L238.317 1460.18L168.077 1488.27L205.08 1422.21L156.674 1363.98L230.851 1378.83L271.173 1314.72ZM499.778 1270L537.929 1323.89L601.98 1307.48L562.438 1360.45L597.775 1416.23L535.178 1395.07L492.965 1445.95L493.838 1379.91L432.408 1355.58L495.546 1335.92L499.778 1270Z" fill="black" style="mix-blend-mode:overlay"/>
</svg>
