<svg width="340" height="44" viewBox="0 0 340 44" fill="none" xmlns="http://www.w3.org/2000/svg">
<mask id="mask0_1046_559" style="mask-type:alpha" maskUnits="userSpaceOnUse" x="0" y="0" width="340" height="44">
<path d="M71.0044 9.97282L69.4291 21.9558H62.4404L65.2187 0.855582H77.4918L81.0577 16.6641H81.4873L81.072 12.652C81.0529 12.5365 81.0386 12.4076 81.029 12.2655C81.029 12.1233 81.0338 11.99 81.0434 11.8656L82.4898 0.855582H89.4784L86.7001 21.9558H74.9713L71.0617 5.20093H70.6177L70.9757 9.25303C70.9948 9.35967 71.0092 9.47963 71.0187 9.61292C71.0282 9.74622 71.0235 9.86618 71.0044 9.97282Z" fill="white"/>
<path d="M87.4742 21.9558L90.2524 0.855582H106.936L106.22 6.25394H96.5536L96.2529 8.58657H105.504L104.788 13.9849H95.5368L94.4914 21.9558H87.4742Z" fill="white"/>
<path d="M116.299 22.0625C112.795 22.0625 110.126 21.2538 108.293 19.6366C106.47 18.0104 105.811 15.2779 106.317 11.439C106.823 7.59132 108.203 4.8677 110.456 3.26818C112.709 1.65978 115.587 0.855582 119.091 0.855582C122.614 0.855582 125.206 1.61535 126.868 3.13489C128.538 4.65443 129.164 7.00483 128.744 10.1861L121.669 10.0528C121.946 7.91122 121.76 6.68937 121.11 6.38724C120.461 6.07622 119.545 5.92071 118.361 5.92071C117.139 5.92071 116.098 6.14731 115.239 6.60051C114.389 7.04482 113.778 8.6621 113.406 11.4524C113.043 14.2337 113.224 15.8555 113.95 16.3176C114.685 16.7708 115.664 16.9974 116.886 16.9974C118.06 16.9974 119.015 16.833 119.75 16.5042C120.495 16.1754 121.01 14.9535 121.297 12.8386L128.4 12.7053C127.989 15.8421 126.748 18.1881 124.676 19.7432C122.614 21.2894 119.822 22.0625 116.299 22.0625Z" fill="white"/>
<path d="M149.248 22.0625C145.744 22.0625 143.076 21.2538 141.243 19.6366C139.419 18.0104 138.76 15.2779 139.266 11.439C139.772 7.59132 141.152 4.8677 143.405 3.26818C145.658 1.65978 148.537 0.855582 152.041 0.855582C155.564 0.855582 158.156 1.61535 159.817 3.13489C161.488 4.65443 162.113 7.00483 161.693 10.1861L154.618 10.0528C154.895 7.91122 154.709 6.68937 154.06 6.38724C153.411 6.07622 152.494 5.92071 151.31 5.92071C150.088 5.92071 149.048 6.14731 148.188 6.60051C147.339 7.04482 146.728 8.6621 146.355 11.4524C145.992 14.2337 146.174 15.8555 146.899 16.3176C147.635 16.7708 148.613 16.9974 149.835 16.9974C151.01 16.9974 151.964 16.833 152.699 16.5042C153.444 16.1754 153.96 14.9535 154.246 12.8386L161.349 12.7053C160.939 15.8421 159.698 18.1881 157.626 19.7432C155.564 21.2894 152.771 22.0625 149.248 22.0625Z" fill="white"/>
<path d="M172.397 22.1291C168.883 22.1291 166.186 21.3516 164.305 19.7965C162.425 18.2414 161.751 15.4734 162.286 11.4924C162.802 7.50245 164.205 4.7344 166.497 3.18821C168.788 1.63312 171.69 0.855582 175.204 0.855582C178.708 0.855582 181.4 1.63312 183.281 3.18821C185.161 4.7344 185.844 7.49801 185.329 11.479C184.794 15.4689 183.381 18.2414 181.09 19.7965C178.808 21.3516 175.91 22.1291 172.397 22.1291ZM173.055 17.104C174.449 17.104 175.59 16.8285 176.478 16.2776C177.376 15.7177 177.996 14.1227 178.34 11.4924C178.693 8.85316 178.493 7.25808 177.738 6.70714C176.994 6.1562 175.924 5.88072 174.531 5.88072C173.146 5.88072 172.005 6.1562 171.108 6.70714C170.22 7.25808 169.604 8.85316 169.26 11.4924C168.917 14.1227 169.117 15.7177 169.862 16.2776C170.607 16.8285 171.671 17.104 173.055 17.104Z" fill="white"/>
<path d="M192.677 14.0516L191.631 21.9558H184.7L187.478 0.855582H198.72L199.766 9.82619C199.804 10.0839 199.823 10.3771 199.823 10.7059C199.823 11.0258 199.809 11.3235 199.78 11.599L199.307 15.2379H199.737L200.21 11.599C200.238 11.3235 200.296 11.0258 200.381 10.7059C200.477 10.3771 200.577 10.0794 200.682 9.81286L204.019 0.855582H215.118L212.325 21.9558H205.408L206.439 14.0916C206.477 13.8161 206.539 13.5184 206.625 13.1985C206.711 12.8697 206.812 12.572 206.926 12.3054L208.688 6.054H208.258L202.601 21.9558H194.438L192.978 6.054H192.548L192.662 12.2788C192.701 12.5454 192.72 12.8386 192.72 13.1585C192.72 13.4784 192.705 13.7761 192.677 14.0516Z" fill="white"/>
<path d="M213.622 21.9558L216.4 0.855582H229.575C232.229 0.855582 234.062 1.52205 235.074 2.85497C236.086 4.17902 236.411 6.22729 236.048 8.99978C235.685 11.7989 234.821 13.8605 233.456 15.1846C232.091 16.4997 230.081 17.1573 227.427 17.1573H221.269L220.639 21.9558H213.622ZM221.928 12.0255H226.453C227.236 12.0255 227.823 11.91 228.215 11.679C228.616 11.4479 228.916 10.5549 229.117 8.99978C229.327 7.46247 229.265 6.57829 228.931 6.34725C228.597 6.10732 228.038 5.98736 227.255 5.98736H222.73L221.928 12.0255Z" fill="white"/>
<path d="M231.62 21.9558L241.158 0.855582H252.2L255.766 21.9558H248.519L247.832 17.7971H240.657L238.867 21.9558H231.62ZM245.139 6.92041L243.306 12.4121H246.743L246.357 6.90708C246.28 6.56052 246.233 6.17397 246.213 5.74743C246.204 5.31201 246.228 4.91213 246.285 4.54779L246.357 4.05461H245.927L245.87 4.54779C245.822 4.92101 245.731 5.32534 245.598 5.76076C245.464 6.1873 245.311 6.57385 245.139 6.92041Z" fill="white"/>
<path d="M267.285 8.1467L265.466 21.9558H258.449L260.526 6.25394H253.752L254.468 0.855582H274.99L274.288 6.25394H265.595L265.538 6.65382H265.882C266.369 6.65382 266.741 6.79156 266.999 7.06703C267.257 7.33362 267.352 7.69351 267.285 8.1467Z" fill="white"/>
<path d="M272.975 21.9558L275.754 0.855582H282.728L279.935 21.9558H272.975Z" fill="white"/>
<path d="M280.695 21.9558L283.473 0.855582H296.42C299.398 0.855582 301.346 1.28212 302.263 2.13519C303.189 2.98827 303.547 4.29454 303.337 6.054C303.155 7.62686 302.659 8.73319 301.847 9.373C301.246 10.0039 300.281 10.4038 298.954 10.5726L298.883 11.0392C299.99 11.0836 300.964 11.4613 301.804 12.1721C302.644 12.8742 302.94 14.1404 302.692 15.971C302.415 18.1126 301.709 19.6454 300.573 20.5696C299.436 21.4938 297.35 21.9558 294.314 21.9558H280.695ZM288.285 16.8774H294.114C294.763 16.8774 295.183 16.7485 295.374 16.4908C295.575 16.2243 295.723 15.7533 295.818 15.0779C295.894 14.4115 295.871 13.9316 295.746 13.6384C295.632 13.3451 295.25 13.1985 294.601 13.1985H288.772L288.285 16.8774ZM289.402 8.43995H295.145C295.67 8.43995 296.028 8.32443 296.219 8.09339C296.41 7.86234 296.534 7.52911 296.591 7.09369C296.649 6.64938 296.606 6.33392 296.463 6.14731C296.329 5.9607 296.004 5.86739 295.489 5.86739H289.746L289.402 8.43995Z" fill="white"/>
<path d="M308.867 15.9843H308.566L308.509 16.4242H319.364L318.634 21.9558H302.68L305.458 0.855582H312.476L310.671 14.4914C310.614 14.9358 310.418 15.2956 310.084 15.5711C309.759 15.8466 309.354 15.9843 308.867 15.9843Z" fill="white"/>
<path d="M319.406 21.9558L322.185 0.855582H340L339.284 6.25394H328.486L328.171 8.67988H338.754L338.038 14.0649H327.455L327.14 16.5575H337.938L337.222 21.9558H319.406Z" fill="white"/>
<path d="M69.3939 34.5989L68.4278 41.9498H66.2555L67.306 33.9833H63.4609L63.6748 32.3659H73.5243L73.3104 33.9833H68.8687L68.8492 34.1221H68.9595C69.1108 34.1221 69.2253 34.1664 69.3031 34.2549C69.3853 34.3434 69.4155 34.4581 69.3939 34.5989Z" fill="white"/>
<path d="M73.0946 41.9498L74.359 32.3659H76.5247L76.0125 36.3008H81.4203L81.939 32.3659H84.1048L82.8403 41.9498H80.6746L81.1804 38.0933H75.7725L75.2603 41.9498H73.0946Z" fill="white"/>
<path d="M83.961 41.9498L85.2254 32.3659H93.8624L93.6484 33.9833H87.1836L86.8854 36.2827H93.1361L92.9222 37.8941H86.6649L86.3472 40.3323H92.8119L92.598 41.9498H83.961Z" fill="white"/>
<path d="M98.8154 41.9498L99.7491 34.8403H101.902L100.962 41.9498H98.8154ZM100.034 32.6133H102.187L101.999 34.1221H99.8464L100.034 32.6133Z" fill="white"/>
<path d="M102.16 41.9498L103.424 32.3659H108.89C110.308 32.3659 111.367 32.728 112.067 33.4522C112.772 34.1724 113.01 35.4056 112.781 37.1518C112.547 38.91 111.983 40.1493 111.088 40.8695C110.198 41.5897 109.044 41.9498 107.626 41.9498H102.16ZM104.533 40.3806H107.379C108.296 40.3806 109.02 40.1694 109.552 39.7469C110.083 39.3204 110.436 38.4554 110.608 37.1518C110.777 35.8643 110.652 35.0073 110.232 34.5808C109.813 34.1503 109.147 33.935 108.235 33.935H105.382L104.533 40.3806Z" fill="white"/>
<path d="M118.562 42.0222C116.945 42.0222 115.674 41.652 114.749 40.9117C113.824 40.1714 113.476 38.9342 113.705 37.2001C113.93 35.4619 114.602 34.2227 115.722 33.4824C116.845 32.738 118.216 32.3659 119.833 32.3659C121.445 32.3659 122.714 32.738 123.639 33.4824C124.568 34.2227 124.918 35.4599 124.689 37.194C124.46 38.9322 123.784 40.1714 122.66 40.9117C121.54 41.652 120.174 42.0222 118.562 42.0222ZM118.763 40.4712C119.731 40.4712 120.557 40.2438 121.24 39.7892C121.927 39.3345 122.355 38.4695 122.523 37.194C122.692 35.9226 122.493 35.0596 121.927 34.6049C121.361 34.1503 120.593 33.923 119.625 33.923C118.657 33.923 117.831 34.1503 117.148 34.6049C116.465 35.0596 116.039 35.9226 115.871 37.194C115.702 38.4695 115.899 39.3345 116.461 39.7892C117.027 40.2438 117.794 40.4712 118.763 40.4712Z" fill="white"/>
<path d="M126.913 40.1332H126.815L126.796 40.2901H132.8L132.586 41.9498H125.006L126.271 32.3659H128.443L127.477 39.6564C127.459 39.8012 127.399 39.9179 127.295 40.0064C127.191 40.0909 127.064 40.1332 126.913 40.1332Z" fill="white"/>
<path d="M136.428 36.2646L135.676 41.9498H133.529L134.794 32.3659H138.315L139.981 38.558C139.994 38.6505 140.001 38.7551 140.001 38.8718C140.005 38.9845 140.003 39.0911 139.994 39.1917L139.91 39.9763H140.04L140.163 39.1917C140.176 39.0911 140.2 38.9845 140.234 38.8718C140.269 38.7551 140.305 38.6485 140.344 38.552L143.612 32.3659H147.088L145.824 41.9498H143.677L144.429 36.2224C144.442 36.1218 144.464 36.0131 144.494 35.8965C144.524 35.7798 144.559 35.6732 144.598 35.5766L145.052 33.9773H144.922L140.96 41.9498H138.393L136.538 33.9773H136.408L136.428 35.6249C136.441 35.7215 136.447 35.8281 136.447 35.9448C136.447 36.0574 136.441 36.164 136.428 36.2646Z" fill="white"/>
<path d="M159.374 34.2489L158.913 37.8338C158.909 37.87 158.903 37.9223 158.894 37.9907C158.885 38.0591 158.875 38.1375 158.862 38.2261C158.853 38.3106 158.842 38.3991 158.829 38.4916C158.821 38.5841 158.81 38.6727 158.797 38.7572C158.788 38.8376 158.779 38.91 158.771 38.9744C158.762 39.0388 158.756 39.0831 158.751 39.1072C158.738 39.2118 158.738 39.3043 158.751 39.3848C158.769 39.4653 158.799 39.5317 158.842 39.584C158.885 39.6363 158.946 39.6765 159.024 39.7047C159.102 39.7328 159.194 39.7469 159.303 39.7469L159.166 40.7367H158.55C158.347 40.7367 158.168 40.7146 158.012 40.6703C157.857 40.622 157.723 40.5597 157.61 40.4832C157.502 40.4028 157.413 40.3102 157.344 40.2056C157.275 40.101 157.223 39.9903 157.189 39.8737L156.994 39.765L156.657 39.922L156.676 39.765L157.266 35.136L157.571 35.2929L157.669 35.2447L157.532 34.9791L157.889 34.2489H159.374ZM154.161 40.8514C153.032 40.8393 152.276 40.5838 151.891 40.0849C151.506 39.586 151.385 38.7572 151.528 37.5984C151.679 36.3672 152.014 35.5062 152.533 35.0153C153.052 34.5245 153.877 34.271 155.01 34.2549C156.026 34.2468 156.756 34.4279 157.202 34.7981C157.647 35.1682 157.848 35.5263 157.805 35.8723L157.059 36.7233C157.12 36.2727 157.02 35.9266 156.761 35.6852C156.506 35.4438 156.076 35.3231 155.47 35.3231C154.908 35.3191 154.476 35.4499 154.174 35.7154C153.875 35.981 153.666 36.6106 153.545 37.6044C153.432 38.5339 153.488 39.1313 153.713 39.3969C153.942 39.6624 154.338 39.7952 154.9 39.7952C155.509 39.7952 155.974 39.6745 156.294 39.4331C156.614 39.1877 156.802 38.8437 156.858 38.4011L157.377 39.24C157.334 39.586 157.04 39.9441 156.495 40.3142C155.95 40.6804 155.172 40.8594 154.161 40.8514ZM159.179 39.7469H159.88C159.957 39.7469 160.04 39.7308 160.126 39.6987C160.217 39.6624 160.301 39.6081 160.379 39.5357C160.461 39.4633 160.532 39.3727 160.593 39.2641C160.653 39.1515 160.694 39.0167 160.716 38.8598C160.738 38.6908 160.757 38.5238 160.774 38.3588C160.796 38.1939 160.818 38.0329 160.839 37.876C160.861 37.7151 160.88 37.5582 160.898 37.4053C160.919 37.2524 160.939 37.1015 160.956 36.9526C160.973 36.8038 160.991 36.6589 161.008 36.5181C161.025 36.3773 161.042 36.2405 161.06 36.1077C161.077 35.9709 161.094 35.8381 161.112 35.7094C161.129 35.5766 161.144 35.4499 161.157 35.3292C161.218 34.8866 161.226 34.5144 161.183 34.2126C161.144 33.9109 161.04 33.6695 160.872 33.4884C160.703 33.3033 160.465 33.1706 160.158 33.0901C159.852 33.0096 159.458 32.9694 158.978 32.9694C158.758 32.9694 158.503 32.9694 158.213 32.9694C157.928 32.9694 157.625 32.9694 157.305 32.9694C156.986 32.9694 156.657 32.9694 156.32 32.9694C155.983 32.9694 155.654 32.9694 155.334 32.9694C155.014 32.9694 154.71 32.9694 154.42 32.9694C154.135 32.9694 153.882 32.9694 153.661 32.9694C153.359 32.9694 153.071 32.9855 152.799 33.0177C152.527 33.0458 152.269 33.0981 152.027 33.1746C151.79 33.247 151.571 33.3456 151.372 33.4703C151.174 33.595 150.996 33.754 150.841 33.9471C150.689 34.1362 150.562 34.3615 150.458 34.623C150.354 34.8846 150.281 35.1903 150.238 35.5404C150.22 35.6812 150.201 35.8341 150.179 35.9991C150.158 36.16 150.136 36.327 150.114 36.5C150.093 36.673 150.071 36.85 150.05 37.0311C150.028 37.2081 150.006 37.3872 149.985 37.5682C149.963 37.7493 149.939 37.9283 149.913 38.1054C149.892 38.2824 149.87 38.4554 149.849 38.6244C149.827 38.7934 149.807 38.9543 149.79 39.1072C149.773 39.2561 149.756 39.3949 149.738 39.5236C149.673 40.0105 149.691 40.4128 149.79 40.7307C149.894 41.0445 150.071 41.296 150.322 41.4851C150.573 41.6702 150.89 41.7989 151.275 41.8713C151.66 41.9437 152.105 41.98 152.611 41.98H160.865L160.658 43.5189H152.326C151.392 43.5189 150.601 43.4324 149.952 43.2594C149.308 43.0864 148.794 42.8329 148.409 42.499C148.024 42.165 147.761 41.7546 147.618 41.2678C147.48 40.7769 147.454 40.2157 147.54 39.584C147.562 39.3989 147.583 39.2219 147.605 39.0529C147.627 38.8799 147.648 38.7089 147.67 38.5399C147.691 38.3709 147.711 38.2039 147.728 38.039C147.75 37.874 147.771 37.709 147.793 37.5441C147.815 37.3751 147.836 37.2061 147.858 37.0371C147.88 36.8641 147.901 36.6871 147.923 36.506C147.944 36.325 147.968 36.1399 147.994 35.9508C148.02 35.7577 148.046 35.5585 148.072 35.3533C148.128 34.9268 148.232 34.5365 148.383 34.1825C148.534 33.8284 148.727 33.5085 148.96 33.2229C149.194 32.9372 149.462 32.6878 149.764 32.4745C150.071 32.2572 150.404 32.0782 150.763 31.9374C151.126 31.7925 151.513 31.6859 151.924 31.6175C152.334 31.5451 152.762 31.5109 153.207 31.5149C153.436 31.5149 153.722 31.5149 154.063 31.5149C154.409 31.5149 154.783 31.5149 155.185 31.5149C155.587 31.5149 156.002 31.5149 156.43 31.5149C156.862 31.5149 157.277 31.5149 157.675 31.5149C158.073 31.5149 158.442 31.5149 158.784 31.5149C159.13 31.5149 159.413 31.5149 159.633 31.5149C160.312 31.5149 160.904 31.5914 161.41 31.7442C161.916 31.8931 162.329 32.1164 162.648 32.4142C162.968 32.7079 163.191 33.074 163.316 33.5126C163.442 33.9471 163.468 34.446 163.394 35.0093C163.351 35.3191 163.316 35.5726 163.29 35.7697C163.269 35.9669 163.249 36.1379 163.232 36.2827C163.215 36.4276 163.197 36.5644 163.18 36.6931C163.167 36.8219 163.148 36.9748 163.122 37.1518C163.1 37.3288 163.072 37.5461 163.037 37.8036C163.007 38.0611 162.966 38.393 162.914 38.7994C162.871 39.1132 162.785 39.3909 162.655 39.6323C162.53 39.8737 162.367 40.0769 162.169 40.2418C161.97 40.4068 161.738 40.5315 161.475 40.616C161.211 40.6965 160.924 40.7367 160.612 40.7367H159.05L159.179 39.7469Z" fill="white"/>
<path d="M168.354 41.992C166.573 41.992 165.31 41.7707 164.567 41.3282C163.823 40.8856 163.538 40.0125 163.711 38.7089H165.883C165.792 39.421 165.993 39.8898 166.486 40.1151C166.983 40.3364 167.668 40.447 168.542 40.447C169.398 40.447 170.102 40.3706 170.655 40.2177C171.213 40.0608 171.522 39.7469 171.583 39.2762C171.661 38.6928 171.373 38.3427 170.72 38.2261C170.072 38.1054 169.199 37.9987 168.101 37.9062C166.635 37.7613 165.583 37.532 164.943 37.2182C164.303 36.9003 164.042 36.2807 164.158 35.3593C164.323 34.1201 164.843 33.3114 165.721 32.9332C166.599 32.555 167.88 32.3659 169.566 32.3659C171.282 32.3659 172.521 32.5912 173.282 33.0418C174.042 33.4924 174.341 34.3434 174.176 35.5947H172.004C172.095 34.8986 171.881 34.446 171.362 34.2368C170.848 34.0235 170.171 33.9169 169.333 33.9169C168.459 33.9169 167.746 33.9893 167.193 34.1342C166.64 34.279 166.326 34.6371 166.253 35.2085C166.179 35.7516 166.482 36.0715 167.16 36.1681C167.839 36.2646 168.691 36.3572 169.715 36.4457C171.267 36.5945 172.354 36.8299 172.977 37.1518C173.599 37.4737 173.848 38.1033 173.723 39.0408C173.567 40.2358 173.061 41.0264 172.205 41.4126C171.354 41.7989 170.07 41.992 168.354 41.992Z" fill="white"/>
<path d="M181.006 34.5989L180.04 41.9498H177.868L178.918 33.9833H175.073L175.287 32.3659H185.136L184.922 33.9833H180.481L180.461 34.1221H180.571C180.723 34.1221 180.837 34.1664 180.915 34.2549C180.997 34.3434 181.028 34.4581 181.006 34.5989Z" fill="white"/>
<path d="M184.72 41.9498L185.984 32.3659H194.621L194.407 33.9833H187.942L187.644 36.2827H193.895L193.681 37.8941H187.423L187.106 40.3323H193.57L193.356 41.9498H184.72Z" fill="white"/>
<path d="M194.357 41.9498L195.621 32.3659H201.911C202.97 32.3659 203.729 32.6395 204.187 33.1867C204.649 33.7339 204.818 34.4842 204.693 35.4378C204.572 36.3672 204.198 37.0995 203.571 37.6346C202.948 38.1657 202.086 38.4313 200.984 38.4313H196.996L196.529 41.9498H194.357ZM201.379 41.9498L200.024 38.6546L200.05 38.3769H195.757L195.913 37.182L201.723 37.1759L202.131 38.0691L201.47 38.4011L201.541 38.5399L202.345 38.4252L203.785 41.9498H201.379ZM197.184 37.0009H200.647C201.209 37.0009 201.643 36.8742 201.95 36.6207C202.261 36.3672 202.451 35.983 202.521 35.468C202.585 34.9489 202.497 34.5587 202.255 34.2971C202.013 34.0316 201.613 33.8988 201.055 33.8988H197.586L197.184 37.0009Z" fill="white"/>
<path d="M215.43 39.9883L219.321 32.3659H221.512L216.481 41.9498H213.446L210.937 32.3659H213.141L215.022 39.9883C215.048 40.0809 215.063 40.1855 215.067 40.3022C215.076 40.4188 215.076 40.5255 215.067 40.622L215.035 40.9721H215.151L215.216 40.622C215.234 40.5255 215.26 40.4188 215.294 40.3022C215.333 40.1855 215.378 40.0809 215.43 39.9883Z" fill="white"/>
<path d="M221.395 41.9498L222.329 34.8403H224.481L223.541 41.9498H221.395ZM222.614 32.6133H224.767L224.579 34.1221H222.426L222.614 32.6133Z" fill="white"/>
<path d="M234.913 39.4874C234.722 40.1513 234.398 40.6683 233.94 41.0385C233.486 41.4086 232.961 41.6661 232.364 41.811C231.772 41.9558 230.886 42.0282 229.706 42.0282L229.868 40.8091C230.538 40.8091 231.022 40.7729 231.32 40.7005C231.619 40.624 231.9 40.4852 232.163 40.2841C232.427 40.0789 232.632 39.8133 232.779 39.4874H234.913ZM234.965 38.8175H226.95L227.086 37.7855H233C233.065 37.1659 232.911 36.7112 232.539 36.4215C232.168 36.1318 231.47 35.987 230.445 35.987C229.377 35.987 228.601 36.154 228.117 36.4879C227.637 36.8178 227.337 37.4395 227.216 38.3528C227.086 39.3225 227.216 39.9743 227.605 40.3082C227.994 40.6422 228.748 40.8091 229.868 40.8091L229.706 42.0282C227.752 42.0282 226.466 41.7385 225.848 41.1592C225.23 40.5798 225.005 39.6624 225.173 38.4071C225.338 37.1558 225.809 36.2385 226.587 35.6551C227.365 35.0717 228.703 34.78 230.601 34.78C232.511 34.78 233.769 35.0797 234.374 35.6792C234.98 36.2747 235.204 37.1578 235.049 38.3287L234.965 38.8175Z" fill="white"/>
<path d="M239.972 41.9498C238.779 41.9498 238.011 41.7768 237.67 41.4308C237.333 41.0847 237.212 40.5416 237.307 39.8013L237.78 36.2163H236.055L236.237 34.8524H236.697C236.922 34.8524 237.129 34.8182 237.32 34.7498C237.51 34.6774 237.678 34.5808 237.825 34.4601C237.972 34.3394 238.091 34.1986 238.182 34.0376C238.277 33.8727 238.338 33.6916 238.364 33.4945L238.506 32.3659H240.659L240.516 33.4945C240.486 33.7077 240.428 33.8908 240.341 34.0437C240.259 34.1966 240.155 34.3233 240.03 34.4239C239.905 34.5245 239.76 34.6009 239.596 34.6532C239.436 34.7015 239.263 34.7277 239.077 34.7317L239.057 34.8524H243.927L243.745 36.2163H239.926L239.518 39.3184C239.457 39.7811 239.548 40.0849 239.79 40.2297C240.037 40.3706 240.389 40.441 240.847 40.441C241.392 40.441 242.178 40.439 243.207 40.4349L243.006 41.9498C241.796 41.9498 240.784 41.9498 239.972 41.9498Z" fill="white"/>
<path d="M250.871 41.9498L251.351 38.3166C251.463 37.4717 251.387 36.8943 251.124 36.5845C250.86 36.2707 250.32 36.1137 249.503 36.1137C248.642 36.1137 247.955 36.323 247.441 36.7414C246.926 37.1558 246.622 37.7271 246.526 38.4554L245.593 37.7855C245.67 37.2101 246.14 36.5583 247 35.8301C247.864 35.1018 249.014 34.7518 250.449 34.78C251.699 34.8041 252.559 35.0978 253.03 35.6611C253.501 36.2204 253.661 37.0693 253.51 38.208L253.017 41.9498H250.871ZM246.961 35.7456L246.449 36.3129L246.539 36.3914L246.941 36.1017L246.915 36.2888L246.17 41.9498H244.017L244.957 34.8463H247.104L246.993 35.6611C246.993 35.6772 246.989 35.6933 246.98 35.7094C246.976 35.7215 246.969 35.7335 246.961 35.7456Z" fill="white"/>
<path d="M261.736 40.9117L262.053 40.5858L261.937 40.5255C261.621 40.8715 261.355 41.125 261.139 41.2859C260.923 41.4468 260.659 41.5877 260.348 41.7084C260.037 41.8251 259.674 41.9095 259.259 41.9618C258.844 42.0142 258.383 42.0403 257.878 42.0403C257.527 42.0403 257.169 42.0222 256.801 41.986C256.438 41.9498 256.094 41.8854 255.77 41.7929C255.446 41.7003 255.163 41.5736 254.921 41.4126C254.679 41.2477 254.497 41.0405 254.376 40.791C254.255 40.5375 254.221 40.2177 254.272 39.8314C254.32 39.4653 254.437 39.1635 254.623 38.9261C254.813 38.6847 255.048 38.4815 255.329 38.3166C255.61 38.1476 255.935 38.0189 256.302 37.9303C256.669 37.8378 257.048 37.7734 257.437 37.7372C257.826 37.697 258.202 37.6769 258.565 37.6769H261.937L261.989 37.3087C262.036 36.9385 261.969 36.6589 261.788 36.4698C261.606 36.2767 261.342 36.152 260.997 36.0956C260.655 36.0353 260.143 36.0051 259.46 36.0051C258.863 36.0051 258.375 36.0373 257.994 36.1017C257.614 36.166 257.301 36.2807 257.054 36.4457C256.812 36.6106 256.665 36.8681 256.613 37.2182H254.668C254.776 36.6106 255.012 36.1479 255.375 35.8301C255.738 35.5082 256.148 35.2809 256.607 35.1481C257.065 35.0113 257.521 34.9168 257.975 34.8644C258.433 34.8121 259.017 34.786 259.726 34.786C261.048 34.786 261.967 34.8705 262.481 35.0395C263 35.2044 263.424 35.4821 263.752 35.8723C264.081 36.2626 264.2 36.7997 264.109 37.4837L263.519 41.9498H261.45L261.528 41.3101C261.541 41.2416 261.565 41.1733 261.6 41.1049C261.638 41.0324 261.684 40.9681 261.736 40.9117ZM258.435 40.8574C258.803 40.8574 259.161 40.8373 259.512 40.7971C259.862 40.7568 260.184 40.6844 260.478 40.5798C260.776 40.4712 261.035 40.3323 261.256 40.1634C261.481 39.9944 261.621 39.8153 261.677 39.6262L261.865 38.7572H258.604C258.336 38.7572 258.079 38.7733 257.832 38.8054C257.586 38.8336 257.361 38.8839 257.158 38.9563C256.959 39.0287 256.797 39.1334 256.672 39.2701C256.546 39.4069 256.468 39.584 256.438 39.8013C256.408 40.0346 256.445 40.2217 256.548 40.3625C256.652 40.5033 256.801 40.61 256.996 40.6824C257.19 40.7508 257.413 40.7971 257.664 40.8212C257.914 40.8453 258.172 40.8574 258.435 40.8574Z" fill="white"/>
<path d="M270.749 41.9498L271.242 38.208C271.341 37.4395 271.287 36.9003 271.08 36.5905C270.877 36.2767 270.427 36.1198 269.731 36.1198C269.026 36.1198 268.46 36.3049 268.032 36.675C267.609 37.0452 267.349 37.5964 267.254 38.3287L266.444 37.9424C266.552 37.1256 266.98 36.3934 267.727 35.7456C268.48 35.0978 269.426 34.78 270.568 34.792C271.782 34.8041 272.593 35.0877 272.999 35.643C273.41 36.1942 273.548 36.9808 273.414 38.0028L272.895 41.9498H270.749ZM276.818 41.9498L277.311 38.208C277.411 37.4395 277.359 36.9003 277.155 36.5905C276.952 36.2767 276.509 36.1198 275.826 36.1198C275.065 36.1198 274.486 36.3049 274.088 36.675C273.695 37.0452 273.451 37.5964 273.356 38.3287L272.137 38.0028C272.24 37.2142 272.722 36.4799 273.583 35.7999C274.443 35.1159 275.47 34.78 276.663 34.792C277.864 34.8041 278.668 35.0877 279.075 35.643C279.481 36.1942 279.617 36.9808 279.483 38.0028L278.958 41.9498H276.818ZM267.591 35.7516L267.079 36.3612L267.17 36.4396L267.559 36.1499L267.539 36.337L266.8 41.9498H264.647L265.588 34.8463H267.734L267.624 35.6611C267.624 35.6772 267.619 35.6933 267.611 35.7094C267.606 35.7255 267.6 35.7396 267.591 35.7516Z" fill="white"/>
<path d="M284.933 41.9498L286.198 32.3659H291.982C293.209 32.3659 294.074 32.6435 294.575 33.1987C295.081 33.754 295.254 34.6371 295.094 35.8482C294.934 37.0673 294.53 37.9525 293.881 38.5037C293.233 39.0549 292.295 39.3305 291.067 39.3305H287.449L287.105 41.9498H284.933ZM287.657 37.7553H290.743C291.426 37.7553 291.938 37.6326 292.28 37.3872C292.621 37.1377 292.844 36.6247 292.948 35.8482C293.051 35.0797 292.965 34.5707 292.688 34.3213C292.412 34.0718 291.932 33.9471 291.249 33.9471H288.156L287.657 37.7553Z" fill="white"/>
<path d="M300.202 42.0101C298.655 42.0101 297.47 41.7225 296.649 41.1471C295.832 40.5677 295.508 39.6383 295.676 38.3588C295.845 37.0874 296.413 36.1721 297.382 35.6128C298.35 35.0495 299.608 34.7679 301.155 34.7679C302.707 34.7679 303.892 35.0495 304.709 35.6128C305.526 36.1721 305.85 37.0874 305.681 38.3588C305.513 39.6383 304.944 40.5677 303.976 41.1471C303.008 41.7225 301.75 42.0101 300.202 42.0101ZM300.371 40.7065C301.322 40.7065 302.057 40.5456 302.575 40.2237C303.094 39.9018 303.414 39.2862 303.535 38.3769C303.656 37.4717 303.498 36.8621 303.062 36.5483C302.629 36.2304 301.938 36.0715 300.987 36.0715C300.036 36.0715 299.299 36.2304 298.776 36.5483C298.257 36.8621 297.939 37.4717 297.822 38.3769C297.701 39.2862 297.859 39.9018 298.296 40.2237C298.732 40.5456 299.424 40.7065 300.371 40.7065Z" fill="white"/>
<path d="M313.46 37.8096C313.546 37.1618 313.466 36.7193 313.22 36.4819C312.978 36.2405 312.444 36.1198 311.618 36.1198C310.797 36.1198 310.161 36.2988 309.712 36.6569C309.267 37.015 309.007 37.4817 308.934 38.0571L308.253 37.4475C308.339 36.7917 308.75 36.1841 309.485 35.6249C310.22 35.0656 311.238 34.786 312.539 34.786C313.806 34.786 314.67 35.0053 315.133 35.4438C315.6 35.8784 315.757 36.667 315.606 37.8096H313.46ZM309.245 35.6611L308.778 36.1258L308.83 36.2646L309.226 35.9689L309.2 36.1862L308.441 41.9498H306.288L307.235 34.792H309.381L309.277 35.5706C309.277 35.5867 309.273 35.6028 309.264 35.6189C309.26 35.6349 309.254 35.649 309.245 35.6611Z" fill="white"/>
<path d="M320.543 41.9498C319.35 41.9498 318.583 41.7768 318.241 41.4308C317.904 41.0847 317.783 40.5416 317.878 39.8013L318.351 36.2163H316.627L316.808 34.8524H317.269C317.493 34.8524 317.701 34.8182 317.891 34.7498C318.081 34.6774 318.25 34.5808 318.397 34.4601C318.544 34.3394 318.663 34.1986 318.753 34.0376C318.849 33.8727 318.909 33.6916 318.935 33.4945L319.078 32.3659H321.23L321.088 33.4945C321.057 33.7077 320.999 33.8908 320.913 34.0437C320.831 34.1966 320.727 34.3233 320.601 34.4239C320.476 34.5245 320.331 34.6009 320.167 34.6532C320.007 34.7015 319.834 34.7277 319.648 34.7317L319.629 34.8524H324.498L324.317 36.2163H320.498L320.089 39.3184C320.029 39.7811 320.119 40.0849 320.361 40.2297C320.608 40.3706 320.96 40.441 321.418 40.441C321.963 40.441 322.75 40.439 323.779 40.4349L323.578 41.9498C322.367 41.9498 321.356 41.9498 320.543 41.9498Z" fill="white"/>
<path d="M332.112 40.9117L332.43 40.5858L332.313 40.5255C331.998 40.8715 331.732 41.125 331.516 41.2859C331.3 41.4468 331.036 41.5877 330.725 41.7084C330.413 41.8251 330.05 41.9095 329.635 41.9618C329.22 42.0142 328.76 42.0403 328.254 42.0403C327.904 42.0403 327.545 42.0222 327.178 41.986C326.815 41.9498 326.471 41.8854 326.147 41.7929C325.823 41.7003 325.539 41.5736 325.297 41.4126C325.055 41.2477 324.874 41.0405 324.753 40.791C324.632 40.5375 324.597 40.2177 324.649 39.8314C324.696 39.4653 324.813 39.1635 324.999 38.9261C325.189 38.6847 325.425 38.4815 325.706 38.3166C325.987 38.1476 326.311 38.0189 326.678 37.9303C327.046 37.8378 327.424 37.7734 327.813 37.7372C328.202 37.697 328.578 37.6769 328.941 37.6769H332.313L332.365 37.3087C332.413 36.9385 332.346 36.6589 332.164 36.4698C331.983 36.2767 331.719 36.152 331.373 36.0956C331.032 36.0353 330.519 36.0051 329.836 36.0051C329.24 36.0051 328.751 36.0373 328.371 36.1017C327.99 36.166 327.677 36.2807 327.431 36.4457C327.189 36.6106 327.042 36.8681 326.99 37.2182H325.044C325.152 36.6106 325.388 36.1479 325.751 35.8301C326.114 35.5082 326.525 35.2809 326.983 35.1481C327.441 35.0113 327.897 34.9168 328.351 34.8644C328.81 34.8121 329.393 34.786 330.102 34.786C331.425 34.786 332.343 34.8705 332.858 35.0395C333.377 35.2044 333.8 35.4821 334.129 35.8723C334.457 36.2626 334.576 36.7997 334.485 37.4837L333.895 41.9498H331.827L331.905 41.3101C331.918 41.2416 331.941 41.1733 331.976 41.1049C332.015 41.0324 332.06 40.9681 332.112 40.9117ZM328.812 40.8574C329.179 40.8574 329.538 40.8373 329.888 40.7971C330.238 40.7568 330.56 40.6844 330.854 40.5798C331.153 40.4712 331.412 40.3323 331.632 40.1634C331.857 39.9944 331.998 39.8153 332.054 39.6262L332.242 38.7572H328.98C328.712 38.7572 328.455 38.7733 328.209 38.8054C327.962 38.8336 327.738 38.8839 327.534 38.9563C327.336 39.0287 327.173 39.1334 327.048 39.2701C326.923 39.4069 326.845 39.584 326.815 39.8013C326.784 40.0346 326.821 40.2217 326.925 40.3625C327.029 40.5033 327.178 40.61 327.372 40.6824C327.567 40.7508 327.789 40.7971 328.04 40.8212C328.291 40.8453 328.548 40.8574 328.812 40.8574Z" fill="white"/>
<path d="M335.095 41.9498L336.379 32.2029H338.525L337.241 41.9498H335.095Z" fill="white"/>
<path d="M7.77468 0.509967C6.14517 0.641831 4.57912 1.20621 3.25532 2.14244C2.92654 2.37452 2.12765 3.09714 1.85943 3.40833C1.38644 3.95161 0.878841 4.75071 0.607738 5.37311C0.365475 5.92957 0.195314 6.50713 0.0770666 7.16645L0.0107327 7.53567L0.00208046 20.999C-0.0036877 30.7806 0.00208046 34.5678 0.0251531 34.8447C0.227039 37.2314 1.60851 39.3913 3.786 40.7232C4.81561 41.3535 6.02981 41.7834 7.25555 41.9521C7.85832 42.0365 8.42071 42.0471 11.4029 42.0392L14.3735 42.0313L14.2293 41.9548C12.8651 41.2374 11.6336 39.3702 10.9558 36.9967C10.5636 35.6227 10.379 34.486 10.2002 32.3393C10.1742 32.0333 10.1627 28.2172 10.1569 17.2567L10.1483 2.58287L10.3184 2.72528C10.4136 2.8044 14.5004 6.5045 19.4033 10.9509L28.318 19.0342V24.0978L27.8364 23.66C27.0403 22.9426 17.2748 14.0682 15.4694 12.4225L13.7966 10.8982L13.788 18.8839C13.7793 26.9434 13.788 27.8163 13.886 29.3196C14.1052 32.719 14.6273 35.2561 15.4954 37.147C15.6626 37.511 16.0578 38.2125 16.277 38.5369C16.7269 39.1988 17.5286 40.0137 18.1458 40.4331C19.1755 41.1346 20.3925 41.6172 21.9528 41.9389L22.4633 42.0471L30.0571 42.0365C38.4036 42.0286 37.7489 42.0418 38.6603 41.873C41.4319 41.3614 43.8142 39.5179 44.8553 37.0837C45.1033 36.5009 45.2591 35.9497 45.3831 35.2139C45.4292 34.9291 45.435 34.1247 45.4437 21.5396C45.4494 12.4305 45.4437 8.04467 45.4206 7.78094C45.3658 7.04778 45.2447 6.48867 45.0053 5.82144C43.9266 2.85187 41.0339 0.773695 37.6192 0.50733C37.4115 0.491506 36.0185 0.480957 34.1583 0.480957H31.0434L31.2107 0.567987C31.4991 0.715675 31.727 0.881823 32.0673 1.19302C33.4084 2.41408 34.3976 4.55028 34.8908 7.28513C35.0466 8.1528 35.1475 9.00991 35.2456 10.3048C35.2686 10.6345 35.2802 14.5957 35.2888 25.3478L35.3004 39.9399L35.1879 39.8529C35.1244 39.8028 32.0904 37.0574 28.4449 33.7502C24.7994 30.4431 20.7588 26.7825 19.4725 25.6142L17.1278 23.4912V18.4092L22.472 23.2697C25.408 25.9439 28.6785 28.9214 29.7398 29.884L31.6635 31.6377V23.66C31.6635 19.0474 31.652 15.3447 31.6347 14.8805C31.4703 10.1492 30.8444 6.98976 29.6302 4.75862C29.189 3.94634 28.7333 3.34504 28.1161 2.76484C27.4787 2.16618 26.8442 1.74685 25.9963 1.36444C25.2291 1.01896 24.4504 0.776332 23.4497 0.570624L23.0055 0.480957L15.5184 0.483594C11.3971 0.486232 7.916 0.496781 7.77468 0.509967Z" fill="white"/>
</mask>
<g mask="url(#mask0_1046_559)">
<path d="M1509.06 -1795.04C1512.79 -1791.77 1514.94 -1787.05 1514.94 -1782.09V159.721C1514.94 190.621 1489.89 215.671 1458.99 215.671H-124.81C-155.71 215.671 -180.76 190.621 -180.76 159.721V-1884.58C-180.76 -1894.09 -177.356 -1901.8 -167.848 -1901.8H1480.51V-1831.74C1480.51 -1824.3 1483.72 -1817.21 1489.32 -1812.31L1509.06 -1795.04Z" fill="url(#paint0_linear_1046_559)"/>
</g>
<defs>
<linearGradient id="paint0_linear_1046_559" x1="667.089" y1="-1901.8" x2="667.089" y2="215.671" gradientUnits="userSpaceOnUse">
<stop stop-color="white"/>
<stop offset="1" stop-color="#B2BDDD"/>
</linearGradient>
</defs>
</svg>
