<svg width="963" height="131" viewBox="0 0 963 131" fill="none" xmlns="http://www.w3.org/2000/svg">
<path d="M7.1 118.622L5.94 128.042H0.88L4.66 97.162H9.74L9.46 99.442C9.46 99.4953 9.44667 99.5486 9.42 99.602C9.39333 99.642 9.36667 99.682 9.34 99.722L8.02 101.242L8.32 101.402L9.28 100.862L9.2 101.542L7.28 117.142L6.44 116.602L6.08 116.762L7.08 118.342C7.09333 118.382 7.1 118.429 7.1 118.482C7.11333 118.522 7.11333 118.569 7.1 118.622ZM19.08 97.002C22.7467 97.0553 25.2533 98.0886 26.6 100.102C27.9467 102.102 28.3733 105.075 27.88 109.022C27.4 112.982 26.24 115.955 24.4 117.942C22.5733 119.915 19.8133 120.935 16.12 121.002C12.48 121.055 9.80667 120.349 8.1 118.882C6.40667 117.415 5.64667 115.982 5.82 114.582L7.94 111.722C7.71333 113.549 8.15333 114.975 9.26 116.002C10.3667 117.029 12.1867 117.542 14.72 117.542C17.3467 117.542 19.24 116.955 20.4 115.782C21.56 114.595 22.3467 112.335 22.76 109.002C23.1733 105.655 22.94 103.395 22.06 102.222C21.1933 101.035 19.4533 100.442 16.84 100.442C14.2933 100.442 12.34 100.962 10.98 102.002C9.62 103.029 8.83333 104.449 8.62 106.262L7.18 103.402C7.35333 102.015 8.46667 100.595 10.52 99.142C12.5867 97.6753 15.44 96.962 19.08 97.002ZM48.925 106.662C49.2183 104.342 49.0517 102.762 48.425 101.922C47.7983 101.069 46.3383 100.642 44.045 100.642C41.725 100.642 39.965 101.209 38.765 102.342C37.5783 103.462 36.8717 104.949 36.645 106.802L35.145 105.302C35.4117 103.155 36.485 101.269 38.365 99.642C40.245 98.002 42.8983 97.182 46.325 97.182C49.725 97.182 51.9517 97.9286 53.005 99.422C54.0717 100.915 54.405 103.329 54.005 106.662H48.925ZM37.465 99.922L36.345 101.322L36.505 101.742L37.385 101.042L37.305 101.722L34.945 121.002H29.865L32.785 97.182H37.865L37.565 99.642C37.5517 99.6953 37.5383 99.7486 37.525 99.802C37.5117 99.842 37.4917 99.882 37.465 99.922ZM67.3594 121.202C63.1327 121.202 60.046 120.295 58.0994 118.482C56.1527 116.669 55.4527 113.542 55.9994 109.102C56.546 104.675 58.0127 101.575 60.3994 99.802C62.786 98.0286 66.0927 97.142 70.3194 97.142C74.546 97.142 77.6327 98.0286 79.5794 99.802C81.526 101.575 82.226 104.675 81.6794 109.102C81.1327 113.542 79.666 116.669 77.2794 118.482C74.8927 120.295 71.586 121.202 67.3594 121.202ZM67.7794 117.802C70.486 117.802 72.5194 117.269 73.8794 116.202C75.2527 115.122 76.166 112.769 76.6194 109.142C77.0594 105.515 76.726 103.175 75.6194 102.122C74.526 101.055 72.6194 100.522 69.8994 100.522C67.1927 100.522 65.1527 101.055 63.7794 102.122C62.406 103.175 61.4994 105.515 61.0594 109.142C60.606 112.769 60.9327 115.122 62.0394 116.202C63.1594 117.269 65.0727 117.802 67.7794 117.802ZM105.914 99.542L107.154 89.262H112.214L108.334 121.002H103.274L103.554 118.742C103.554 118.689 103.561 118.635 103.574 118.582C103.601 118.529 103.627 118.482 103.654 118.442L104.994 116.922L104.694 116.762L103.714 117.342L103.794 116.662L105.714 101.042L106.554 101.562L106.914 101.402L105.934 99.822C105.921 99.782 105.907 99.742 105.894 99.702C105.894 99.6486 105.901 99.5953 105.914 99.542ZM93.9341 121.162C90.2541 121.122 87.7341 120.175 86.3741 118.322C85.0141 116.455 84.5941 113.395 85.1141 109.142C85.6341 104.915 86.8007 101.882 88.6141 100.042C90.4407 98.1886 93.1941 97.2286 96.8741 97.162C100.527 97.122 103.201 97.8353 104.894 99.302C106.601 100.755 107.367 102.182 107.194 103.582L105.054 106.462C105.281 104.635 104.841 103.209 103.734 102.182C102.641 101.142 100.821 100.622 98.2741 100.622C95.6474 100.622 93.7607 101.149 92.6141 102.202C91.4807 103.242 90.6941 105.562 90.2541 109.162C89.8007 112.815 90.0141 115.155 90.8941 116.182C91.7874 117.209 93.5474 117.722 96.1741 117.722C98.7074 117.722 100.654 117.209 102.014 116.182C103.374 115.142 104.167 113.722 104.394 111.922L105.814 114.762C105.641 116.162 104.527 117.589 102.474 119.042C100.421 120.495 97.5741 121.202 93.9341 121.162ZM118.973 97.362L117.393 110.182C117.033 113.142 117.173 115.149 117.813 116.202C118.453 117.242 119.973 117.762 122.373 117.762C124.88 117.762 126.8 117.155 128.133 115.942C129.466 114.729 130.28 112.969 130.573 110.662L132.853 112.142C132.6 114.182 131.446 116.209 129.393 118.222C127.353 120.222 124.3 121.222 120.233 121.222C116.593 121.222 114.253 120.302 113.213 118.462C112.186 116.609 111.886 113.942 112.313 110.462L113.913 97.362H118.973ZM129.893 118.142L131.153 116.362L130.853 116.202L129.753 116.902L129.833 116.322L132.153 97.382H137.213L134.333 121.002H129.473L129.793 118.442C129.793 118.389 129.8 118.335 129.813 118.282C129.84 118.229 129.866 118.182 129.893 118.142ZM150.086 121.242C145.433 121.242 142.246 120.429 140.526 118.802C138.82 117.175 138.26 113.989 138.846 109.242C139.42 104.562 140.76 101.382 142.866 99.702C144.986 98.022 148.38 97.182 153.046 97.182C157.66 97.182 160.66 97.9486 162.046 99.482C163.433 101.015 164.013 103.442 163.786 106.762H158.946C159.146 104.495 158.84 102.915 158.026 102.022C157.213 101.115 155.413 100.662 152.626 100.662C149.826 100.662 147.766 101.195 146.446 102.262C145.14 103.329 144.266 105.655 143.826 109.242C143.373 112.882 143.68 115.215 144.746 116.242C145.813 117.269 147.733 117.782 150.506 117.782C153.293 117.782 155.2 117.355 156.226 116.502C157.266 115.635 157.973 114.035 158.346 111.702H163.186C162.573 115.115 161.386 117.562 159.626 119.042C157.88 120.509 154.7 121.242 150.086 121.242ZM191.584 112.442C191.051 114.829 190.198 116.649 189.024 117.902C187.851 119.142 186.484 120.009 184.924 120.502C183.378 120.995 181.071 121.242 178.004 121.242L178.404 118.022C180.258 118.022 181.604 117.889 182.444 117.622C183.284 117.355 184.071 116.789 184.804 115.922C185.538 115.042 186.118 113.882 186.544 112.442H191.584ZM191.844 110.002H170.904L171.244 107.262H187.184C187.491 104.622 187.151 102.815 186.164 101.842C185.191 100.855 183.298 100.362 180.484 100.362C177.564 100.362 175.458 100.902 174.164 101.982C172.871 103.049 172.011 105.295 171.584 108.722C171.091 112.642 171.338 115.175 172.324 116.322C173.324 117.455 175.351 118.022 178.404 118.022L178.004 121.242C172.978 121.242 169.698 120.315 168.164 118.462C166.644 116.595 166.144 113.502 166.664 109.182C167.211 104.809 168.484 101.715 170.484 99.902C172.498 98.0753 175.951 97.162 180.844 97.162C185.778 97.162 188.998 98.0886 190.504 99.942C192.024 101.782 192.538 104.689 192.044 108.662L191.844 110.002ZM213.183 106.662C213.476 104.342 213.309 102.762 212.683 101.922C212.056 101.069 210.596 100.642 208.303 100.642C205.983 100.642 204.223 101.209 203.023 102.342C201.836 103.462 201.129 104.949 200.903 106.802L199.403 105.302C199.669 103.155 200.743 101.269 202.623 99.642C204.503 98.002 207.156 97.182 210.583 97.182C213.983 97.182 216.209 97.9286 217.263 99.422C218.329 100.915 218.663 103.329 218.263 106.662H213.183ZM201.723 99.922L200.603 101.322L200.763 101.742L201.643 101.042L201.563 101.722L199.203 121.002H194.123L197.043 97.182H202.123L201.823 99.642C201.809 99.6953 201.796 99.7486 201.783 99.802C201.769 99.842 201.749 99.882 201.723 99.922ZM231.572 121.002L248.072 89.282H252.432L235.892 121.002H231.572ZM298.999 95.1639C300.192 95.1639 301.357 94.1554 301.555 92.9622C301.754 91.769 300.916 90.7605 299.723 90.7605C298.53 90.7605 297.351 91.769 297.152 92.9622C296.953 94.1554 297.805 95.1639 298.999 95.1639ZM274.808 93.8429H292.536C293.061 93.8429 293.857 93.8002 294.723 93.6866C294.723 93.4877 294.723 93.2463 294.766 92.9622C295.178 90.448 297.607 88.4025 300.121 88.4025C302.607 88.4025 304.325 90.448 303.913 92.9622C303.501 95.448 301.087 97.5218 298.601 97.5218C298.445 97.5218 298.288 97.5218 298.132 97.4792L297.621 98.644C296.129 102.366 293.501 108.331 289.595 112.564C285.405 117.124 279.652 120.917 272.45 123.118L269.041 118.559C280.007 116.073 288.203 109.596 291.825 98.8002H273.999C272.237 98.8002 270.419 98.8429 269.411 98.9281L270.305 93.5588C271.399 93.6724 273.572 93.8429 274.808 93.8429ZM308.789 97.6071C308.974 96.5275 309.229 94.965 309.329 93.8855C310.92 93.9281 312.354 93.9565 313.391 93.9565H334.442C335.366 93.9565 336.829 93.9707 338.207 93.8855C337.937 95.0502 337.71 96.4423 337.511 97.6071L334.414 116.329C334.158 117.849 333.647 121.485 333.619 121.641H328.335L328.718 119.567H310.281L309.968 121.641H304.727C304.755 121.442 305.408 118.133 305.707 116.286L308.789 97.6071ZM313.704 98.8429L311.09 114.681H329.57L332.184 98.8429H313.704ZM347.074 106.769C345.952 106.769 344.46 106.84 343.366 106.925L344.205 101.925C345.341 102.081 346.648 102.167 347.841 102.167H372.884C373.679 102.167 375.384 102.081 376.406 101.925L375.582 106.883C374.631 106.797 373.196 106.769 372.116 106.769H362.884C361.293 114.212 357.415 120.434 349.915 123.956L345.98 120.675C348.864 119.681 351.903 117.479 353.793 115.235C355.753 112.834 356.903 110.008 357.599 106.769H347.074ZM350.256 92.1241C351.42 92.323 353.011 92.4366 354.29 92.4366H366.804C368.082 92.4366 369.631 92.323 370.98 92.1241L370.156 97.0815C368.849 96.9963 367.386 96.9679 366.065 96.9679H353.537C352.259 96.9679 350.582 96.9963 349.446 97.0815L350.256 92.1241ZM370.455 90.7605L373.693 89.4821C374.418 90.9167 375.384 93.3173 375.866 94.7235L372.571 96.0872C372.031 94.4821 371.25 92.2377 370.455 90.7605ZM377.457 94.3258C376.918 92.7207 376.065 90.4764 375.298 89.0417L378.509 87.7633C379.261 89.2406 380.27 91.6412 380.724 92.9622L377.457 94.3258ZM382.646 116.641C383.668 116.755 385.046 116.84 386.367 116.84H398.768C399.862 113.601 401.609 108.161 402.049 106.002H391.722C390.529 106.002 388.981 106.116 387.887 106.201L388.725 101.158C389.705 101.272 391.452 101.4 392.447 101.4H402.248C403.043 101.4 404.634 101.243 405.202 100.959L408.583 102.763C408.299 103.246 408.058 104.013 407.915 104.368C407.219 106.655 405.174 113.204 403.967 116.84H406.41C407.404 116.84 409.18 116.797 410.202 116.684L409.379 121.599C408.626 121.556 406.765 121.485 405.771 121.485H385.6C384.237 121.485 383.271 121.513 381.822 121.599L382.646 116.641ZM420.22 109.283L421.214 103.289C422.55 103.403 425.334 103.516 427.337 103.516H447.862C449.624 103.516 451.371 103.374 452.379 103.289L451.385 109.283C450.462 109.283 448.544 109.127 446.939 109.127H426.413C424.212 109.127 421.626 109.198 420.22 109.283ZM458.263 97.8059C458.96 97.9196 460.451 98.1184 462.369 98.1184H465.607L466.232 94.3684C466.474 92.8912 466.531 91.6412 466.573 90.9167H471.999C471.758 91.6412 471.445 92.8343 471.19 94.3968L470.579 98.1184H479.656L480.323 94.127C480.579 92.6071 480.664 91.3287 480.664 90.5616H486.104C485.906 91.3287 485.536 92.6071 485.281 94.127L484.613 98.1184H487.454C489.499 98.1184 490.636 98.0332 491.701 97.877L490.849 102.962C490.025 102.877 488.718 102.849 486.673 102.849H483.832L483.633 104.084C482.056 113.601 478.817 119.368 468.903 123.403L465.465 119.567C473.292 117.01 477.085 113.644 478.633 104.283L478.874 102.849H469.798L468.931 108.047C468.647 109.724 468.519 111.272 468.434 112.039H463.065C463.306 111.272 463.69 109.766 463.974 108.047L464.826 102.849H461.587C459.67 102.849 458.263 102.92 457.411 103.005L458.263 97.8059ZM495.923 109.283L496.918 103.289C498.253 103.403 501.037 103.516 503.04 103.516H523.565C525.327 103.516 527.074 103.374 528.082 103.289L527.088 109.283C526.165 109.283 524.247 109.127 522.642 109.127H502.116C499.915 109.127 497.33 109.198 495.923 109.283Z" fill="white"/>
<path d="M540.46 52.2568L548.048 64.5286L562.174 67.4616L549.903 75.0493L546.97 89.1762L539.382 76.9044L525.255 73.9715L537.527 66.3837L540.46 52.2568Z" fill="white"/>
<path d="M648.161 86.5414L648.262 87.3954L648.951 87.9096L663.802 98.9903L645.4 101.163L644.546 101.264L644.031 101.953L632.949 116.803L630.778 98.4016L630.677 97.5476L629.988 97.0333L615.136 85.9503L633.539 83.7802L634.393 83.6794L634.908 82.9902L645.989 68.1373L648.161 86.5414Z" stroke="black" stroke-width="4"/>
<path d="M765.466 3.45536L779.181 30.6911L808.385 39.4687L781.149 53.184L772.372 82.3877L758.656 55.1519L729.453 46.3744L756.689 32.659L765.466 3.45536Z" fill="white"/>
<path d="M919.489 62.1621L919.664 63.004L920.395 63.4572L948.429 80.7898L916.157 87.4908L915.315 87.6656L914.863 88.397L897.529 116.431L890.829 84.1592L890.654 83.3171L889.922 82.8648L861.887 65.5302L894.16 58.8313L895.002 58.6555L895.455 57.9243L912.788 29.889L919.489 62.1621Z" stroke="black" stroke-width="4"/>
</svg>
