<svg width="232" height="260" viewBox="0 0 232 260" fill="none" xmlns="http://www.w3.org/2000/svg">
<rect x="4" y="144" width="224" height="112" rx="4" stroke="#344265" stroke-width="8"/>
<path d="M89.1328 197.625V188.523H125.812V182.273H100.773L100.695 182.156H99.6016C99.263 182.078 99.0026 182.026 98.8203 182C98.638 181.974 98.4557 181.948 98.2734 181.922C98.1172 181.87 97.9479 181.831 97.7656 181.805C97.5833 181.753 97.401 181.701 97.2188 181.648C97.0365 181.57 96.8542 181.518 96.6719 181.492C96.5156 181.44 96.3464 181.375 96.1641 181.297C95.9818 181.219 95.7995 181.154 95.6172 181.102C95.4609 181.023 95.2917 180.958 95.1094 180.906C94.9271 180.828 94.7448 180.737 94.5625 180.633C94.4062 180.503 94.237 180.385 94.0547 180.281C93.8724 180.177 93.6901 180.073 93.5078 179.969C93.3255 179.865 93.1432 179.747 92.9609 179.617C92.8047 179.461 92.6354 179.305 92.4531 179.148C92.2708 178.966 92.0885 178.81 91.9062 178.68C91.75 178.523 91.4896 178.263 91.125 177.898V177.82L89.7578 175.672L89.3281 174.422C89.25 174.057 89.1979 173.784 89.1719 173.602C89.1458 173.419 89.1328 173.25 89.1328 173.094C89.1328 172.911 89.1328 172.781 89.1328 172.703V166.453C89.1849 166.089 89.224 165.828 89.25 165.672C89.3021 165.49 89.3542 165.307 89.4062 165.125C89.4844 164.943 89.5625 164.773 89.6406 164.617C89.7188 164.435 89.7839 164.253 89.8359 164.07C89.9141 163.888 90.0052 163.706 90.1094 163.523C90.2135 163.341 90.3307 163.172 90.4609 163.016C90.6172 162.833 90.7604 162.651 90.8906 162.469C91.0469 162.286 91.1901 162.117 91.3203 161.961C91.4766 161.779 91.737 161.505 92.1016 161.141H92.1797L95.2656 159.148L96.9453 158.484C97.3099 158.354 97.5833 158.276 97.7656 158.25C97.9479 158.198 98.1823 158.133 98.4688 158.055H98.6641C99.0286 158.003 99.2891 157.964 99.4453 157.938C99.6276 157.885 99.8099 157.859 99.9922 157.859C100.174 157.859 100.37 157.859 100.578 157.859H100.695L100.773 157.742H138.234V166.883H101.32V173.133H126.359L126.477 173.25H127.531C127.87 173.302 128.13 173.354 128.312 173.406C128.495 173.432 128.677 173.471 128.859 173.523C129.042 173.549 129.211 173.589 129.367 173.641C129.549 173.667 129.732 173.693 129.914 173.719C130.096 173.745 130.266 173.797 130.422 173.875C130.604 173.953 130.786 174.031 130.969 174.109C131.151 174.161 131.32 174.227 131.477 174.305C131.659 174.383 131.841 174.461 132.023 174.539C132.206 174.591 132.388 174.669 132.57 174.773C132.753 174.878 132.922 174.982 133.078 175.086C133.26 175.19 133.443 175.307 133.625 175.438C133.807 175.542 133.977 175.646 134.133 175.75C134.315 175.854 134.497 175.984 134.68 176.141C134.862 176.271 135.031 176.427 135.188 176.609C135.37 176.766 135.552 176.922 135.734 177.078C135.917 177.208 136.112 177.378 136.32 177.586V177.703L137.727 180.047C137.857 180.385 137.935 180.646 137.961 180.828C138.013 181.01 138.065 181.245 138.117 181.531V181.727L138.234 181.844V188.953C138.156 189.292 138.104 189.552 138.078 189.734C138.052 189.917 138 190.099 137.922 190.281C137.844 190.464 137.766 190.646 137.688 190.828C137.635 190.984 137.57 191.154 137.492 191.336C137.414 191.518 137.323 191.701 137.219 191.883C137.115 192.039 137.01 192.208 136.906 192.391C136.802 192.573 136.672 192.742 136.516 192.898C136.385 193.081 136.229 193.263 136.047 193.445C135.891 193.628 135.773 193.758 135.695 193.836H135.578L131.672 196.375L130.266 196.883C129.927 197.039 129.667 197.13 129.484 197.156C129.302 197.208 129.042 197.26 128.703 197.312H128.469C128.13 197.391 127.87 197.443 127.688 197.469C127.505 197.521 127.323 197.547 127.141 197.547C126.958 197.547 126.763 197.547 126.555 197.547H126.477L126.359 197.625H89.1328ZM54.875 241.625V214.047H36.3984V201.742H85.5781V214.047H67.1016V241.625H54.875ZM100.734 241.625C100.318 241.547 100.005 241.508 99.7969 241.508C99.5885 241.508 99.3802 241.482 99.1719 241.43C98.9635 241.404 98.7552 241.352 98.5469 241.273C98.3385 241.195 98.1302 241.13 97.9219 241.078C97.7135 241.026 97.5052 240.961 97.2969 240.883C97.0885 240.805 96.8802 240.727 96.6719 240.648C96.4635 240.57 96.2552 240.466 96.0469 240.336C95.8385 240.206 95.6302 240.076 95.4219 239.945C95.2135 239.815 95.0052 239.685 94.7969 239.555C94.5885 239.451 94.3802 239.307 94.1719 239.125C93.9635 238.969 93.7552 238.786 93.5469 238.578C93.3385 238.37 93.1302 238.174 92.9219 237.992C92.7135 237.836 92.5703 237.719 92.4922 237.641V237.523L89.9922 233.383L89.3672 231.273V231.156C89.2891 230.74 89.224 230.427 89.1719 230.219C89.1458 230.01 89.1328 229.802 89.1328 229.594C89.1328 229.385 89.1328 229.177 89.1328 228.969C89.1328 228.76 89.1328 228.552 89.1328 228.344C89.1328 228.135 89.1328 227.927 89.1328 227.719C89.1328 227.51 89.1328 227.302 89.1328 227.094C89.1328 226.885 89.1328 226.677 89.1328 226.469C89.1328 226.26 89.1328 226.052 89.1328 225.844C89.1328 225.635 89.1328 225.427 89.1328 225.219C89.1328 225.01 89.1328 224.802 89.1328 224.594C89.1328 224.385 89.1328 224.177 89.1328 223.969C89.1328 223.76 89.1328 223.552 89.1328 223.344C89.1328 223.135 89.1328 222.927 89.1328 222.719C89.1328 222.51 89.1328 222.302 89.1328 222.094C89.1328 221.885 89.1328 221.677 89.1328 221.469C89.1328 221.26 89.1328 221.052 89.1328 220.844C89.1328 220.635 89.1328 220.427 89.1328 220.219C89.1328 220.01 89.1328 219.802 89.1328 219.594C89.1328 219.385 89.1328 219.177 89.1328 218.969C89.1328 218.76 89.1328 218.552 89.1328 218.344C89.1328 218.135 89.1328 217.927 89.1328 217.719C89.1328 217.51 89.1328 217.302 89.1328 217.094C89.1328 216.885 89.1328 216.677 89.1328 216.469C89.1328 216.26 89.1328 216.052 89.1328 215.844C89.1328 215.635 89.1328 215.427 89.1328 215.219C89.1328 215.01 89.1328 214.802 89.1328 214.594C89.1328 214.385 89.1328 214.177 89.1328 213.969C89.1328 213.76 89.1328 213.604 89.1328 213.5C89.2109 213.083 89.263 212.771 89.2891 212.562C89.3411 212.354 89.3672 212.146 89.3672 211.938C89.3672 211.729 89.4062 211.521 89.4844 211.312C89.5625 211.104 89.6276 210.896 89.6797 210.688C89.7318 210.479 89.7969 210.271 89.875 210.062C89.9531 209.854 90.0312 209.646 90.1094 209.438C90.1875 209.229 90.2917 209.021 90.4219 208.812C90.5521 208.604 90.6823 208.396 90.8125 208.188C90.9427 207.979 91.0599 207.771 91.1641 207.562C91.2943 207.354 91.4375 207.146 91.5938 206.938C91.776 206.729 91.9453 206.521 92.1016 206.312C92.2839 206.104 92.4531 205.896 92.6094 205.688C92.7917 205.479 92.9609 205.297 93.1172 205.141H93.2344L96.9844 202.758L99.1328 202.133H99.25C99.6667 202.055 99.9792 202.003 100.188 201.977C100.396 201.924 100.708 201.859 101.125 201.781H126.242C126.659 201.859 126.971 201.898 127.18 201.898C127.388 201.898 127.596 201.924 127.805 201.977C128.013 202.003 128.221 202.055 128.43 202.133C128.638 202.211 128.846 202.276 129.055 202.328C129.263 202.38 129.471 202.445 129.68 202.523C129.888 202.602 130.096 202.68 130.305 202.758C130.513 202.836 130.721 202.94 130.93 203.07C131.138 203.201 131.346 203.305 131.555 203.383C131.763 203.461 131.971 203.565 132.18 203.695C132.388 203.826 132.596 203.982 132.805 204.164C133.013 204.32 133.221 204.49 133.43 204.672C133.638 204.828 133.846 204.984 134.055 205.141C134.263 205.297 134.445 205.466 134.602 205.648V205.766L137.102 209.75L137.883 212.016V212.25L138 212.406V213.891L137.883 214.008V230.766C137.779 231.182 137.688 231.495 137.609 231.703C137.531 231.911 137.466 232.12 137.414 232.328C137.388 232.536 137.323 232.745 137.219 232.953C137.141 233.161 137.062 233.37 136.984 233.578C136.906 233.786 136.828 233.995 136.75 234.203C136.672 234.411 136.568 234.62 136.438 234.828C136.307 235.036 136.203 235.245 136.125 235.453C136.047 235.661 135.917 235.87 135.734 236.078C135.578 236.286 135.409 236.495 135.227 236.703C135.07 236.911 134.901 237.12 134.719 237.328C134.562 237.536 134.276 237.849 133.859 238.266H133.742L129.758 240.766L127.492 241.508H127.258L127.102 241.625H100.734ZM125.617 229.125V214.008H101.242V229.125H125.617ZM141.867 241.625V201.781H179.289C179.732 201.859 180.057 201.924 180.266 201.977C180.5 202.029 180.734 202.081 180.969 202.133C181.203 202.159 181.424 202.198 181.633 202.25C181.867 202.302 182.089 202.38 182.297 202.484C182.531 202.562 182.753 202.628 182.961 202.68C183.195 202.706 183.43 202.784 183.664 202.914C183.898 203.044 184.12 203.161 184.328 203.266C184.562 203.344 184.784 203.461 184.992 203.617C185.227 203.747 185.448 203.904 185.656 204.086C185.891 204.242 186.125 204.411 186.359 204.594C186.594 204.776 186.815 204.958 187.023 205.141C187.258 205.323 187.466 205.505 187.648 205.688V205.805L190.07 209.711L190.734 211.742L191.008 212.406V220.648C190.93 221.091 190.865 221.43 190.812 221.664C190.76 221.872 190.708 222.094 190.656 222.328C190.63 222.536 190.591 222.758 190.539 222.992C190.487 223.227 190.409 223.461 190.305 223.695C190.227 223.904 190.161 224.125 190.109 224.359C190.083 224.568 189.992 224.789 189.836 225.023C189.706 225.232 189.576 225.453 189.445 225.688C189.315 225.922 189.185 226.156 189.055 226.391C188.924 226.599 188.768 226.82 188.586 227.055C188.404 227.263 188.221 227.484 188.039 227.719C187.857 227.927 187.674 228.148 187.492 228.383C187.31 228.617 187.18 228.773 187.102 228.852H186.984L182.922 231.391H182.805C182.336 231.573 181.984 231.69 181.75 231.742C181.542 231.794 181.32 231.872 181.086 231.977C180.878 232.055 180.721 232.094 180.617 232.094H180.383L180.227 232.211H178.898L178.742 232.367H154.094V241.625H141.867ZM178.742 220.102V214.047H154.094V220.102H178.742Z" fill="#344265"/>
<rect width="232" height="132" rx="8" fill="#344265"/>
<path d="M57.5442 21.6309H19.0698V16H57.5442V21.6309ZM59.8977 25.5794C59.4372 36.8069 47.9256 44.2918 22.1907 44.4292V38.9356C36.414 38.4893 45.8791 35.2961 48.9488 30.1459H16.5628V24.6867H59.8977V25.5794Z" fill="#85C9B0"/>
<path d="M40.3023 61.6996C34.4186 60.9099 24.5442 60.0515 18.3535 59.8455V53.8712C25.0558 54.1116 33.8047 54.8326 40.3023 55.588V61.6996ZM59.5395 58.6781C58.0558 75.1931 44.0372 81.6137 19.1209 81.9571V76.0515C37.386 75.1931 48.4372 71.8283 49.9209 58.6781H59.5395Z" fill="#85C9B0"/>
<path d="M60 93.1159C59.693 110.627 46.1349 119.313 23.0605 120V114.541C39.2791 113.476 48.3349 107.914 50.2791 97.3047H32.5256C29.5581 102.112 23.5721 106.06 16 107.674V101.631C20.6047 99.6738 24.3395 96.412 25.6186 91.7081H60V93.1159Z" fill="#85C9B0"/>
<path d="M84 118.625V94.9609H179.367V78.7109H114.266L114.062 78.4062H111.219C110.339 78.2031 109.661 78.0677 109.188 78C108.714 77.9323 108.24 77.8646 107.766 77.7969C107.359 77.6615 106.919 77.5599 106.445 77.4922C105.971 77.3568 105.497 77.2214 105.023 77.0859C104.549 76.8828 104.076 76.7474 103.602 76.6797C103.195 76.5443 102.755 76.375 102.281 76.1719C101.807 75.9688 101.333 75.7995 100.859 75.6641C100.453 75.4609 100.013 75.2917 99.5391 75.1562C99.0651 74.9531 98.5911 74.7161 98.1172 74.4453C97.7109 74.1068 97.2708 73.8021 96.7969 73.5312C96.3229 73.2604 95.849 72.9896 95.375 72.7188C94.901 72.4479 94.4271 72.1432 93.9531 71.8047C93.5469 71.3984 93.1068 70.9922 92.6328 70.5859C92.1589 70.112 91.6849 69.7057 91.2109 69.3672C90.8047 68.9609 90.1276 68.2839 89.1797 67.3359V67.1328L85.625 61.5469L84.5078 58.2969C84.3047 57.349 84.1693 56.638 84.1016 56.1641C84.0339 55.6901 84 55.25 84 54.8438C84 54.3698 84 54.0312 84 53.8281V37.5781C84.1354 36.6302 84.237 35.9531 84.3047 35.5469C84.4401 35.0729 84.5755 34.599 84.7109 34.125C84.9141 33.651 85.1172 33.2109 85.3203 32.8047C85.5234 32.3307 85.6927 31.8568 85.8281 31.3828C86.0312 30.9089 86.2682 30.4349 86.5391 29.9609C86.8099 29.487 87.1146 29.0469 87.4531 28.6406C87.8594 28.1667 88.2318 27.6927 88.5703 27.2188C88.9766 26.7448 89.349 26.3047 89.6875 25.8984C90.0938 25.4245 90.7708 24.7135 91.7188 23.7656H91.9219L99.9453 18.5859L104.312 16.8594C105.26 16.5208 105.971 16.3177 106.445 16.25C106.919 16.1146 107.529 15.9453 108.273 15.7422H108.781C109.729 15.6068 110.406 15.5052 110.812 15.4375C111.286 15.3021 111.76 15.2344 112.234 15.2344C112.708 15.2344 113.216 15.2344 113.758 15.2344H114.062L114.266 14.9297H211.664V38.6953H115.688V54.9453H180.789L181.094 55.25H183.836C184.716 55.3854 185.393 55.5208 185.867 55.6562C186.341 55.724 186.815 55.8255 187.289 55.9609C187.763 56.0286 188.203 56.1302 188.609 56.2656C189.083 56.3333 189.557 56.401 190.031 56.4688C190.505 56.5365 190.945 56.6719 191.352 56.875C191.826 57.0781 192.299 57.2812 192.773 57.4844C193.247 57.6198 193.688 57.7891 194.094 57.9922C194.568 58.1953 195.042 58.3984 195.516 58.6016C195.99 58.737 196.464 58.9401 196.938 59.2109C197.411 59.4818 197.852 59.7526 198.258 60.0234C198.732 60.2943 199.206 60.599 199.68 60.9375C200.154 61.2083 200.594 61.4792 201 61.75C201.474 62.0208 201.948 62.3594 202.422 62.7656C202.896 63.1042 203.336 63.5104 203.742 63.9844C204.216 64.3906 204.69 64.7969 205.164 65.2031C205.638 65.5417 206.146 65.9818 206.688 66.5234V66.8281L210.344 72.9219C210.682 73.8021 210.885 74.4792 210.953 74.9531C211.089 75.4271 211.224 76.0365 211.359 76.7812V77.2891L211.664 77.5938V96.0781C211.461 96.9583 211.326 97.6354 211.258 98.1094C211.19 98.5833 211.055 99.0573 210.852 99.5312C210.648 100.005 210.445 100.479 210.242 100.953C210.107 101.359 209.938 101.799 209.734 102.273C209.531 102.747 209.294 103.221 209.023 103.695C208.753 104.102 208.482 104.542 208.211 105.016C207.94 105.49 207.602 105.93 207.195 106.336C206.857 106.81 206.451 107.284 205.977 107.758C205.57 108.232 205.266 108.57 205.062 108.773H204.758L194.602 115.375L190.945 116.695C190.065 117.102 189.388 117.339 188.914 117.406C188.44 117.542 187.763 117.677 186.883 117.812H186.273C185.393 118.016 184.716 118.151 184.242 118.219C183.768 118.354 183.294 118.422 182.82 118.422C182.346 118.422 181.839 118.422 181.297 118.422H181.094L180.789 118.625H84Z" fill="#85C9B0"/>
</svg>
