<svg width="2360" height="1012" viewBox="0 0 2360 1012" fill="none" xmlns="http://www.w3.org/2000/svg">
<path d="M2415 0H-58V1012H2415V0Z" stroke="black" stroke-width="2"/>
<path d="M2302.46 46.0547H54.5384V965.948H2302.46V46.0547Z" stroke="black" stroke-width="2"/>
<path d="M2196.01 89.6172H160.994V922.384H2196.01V89.6172Z" stroke="black" stroke-width="2"/>
<path d="M2095.63 130.691H261.366V881.309H2095.63V130.691Z" stroke="black" stroke-width="2"/>
<path d="M2001.34 169.277H355.655V842.725H2001.34V169.277Z" stroke="black" stroke-width="2"/>
<path d="M1913.14 205.373H443.861V806.63H1913.14V205.373Z" stroke="black" stroke-width="2"/>
<path d="M1831.02 238.979H525.984V773.023H1831.02V238.979Z" stroke="black" stroke-width="2"/>
<path d="M1754.98 270.096H602.023V741.906H1754.98V270.096Z" stroke="black" stroke-width="2"/>
<path d="M1685.02 298.725H671.98V713.28H1685.02V298.725Z" stroke="black" stroke-width="2"/>
<path d="M1621.15 324.861H735.853V687.14H1621.15V324.861Z" stroke="black" stroke-width="2"/>
<path d="M1563.36 348.51H793.643V663.491H1563.36V348.51Z" stroke="black" stroke-width="2"/>
<path d="M1511.65 369.67H845.35V642.332H1511.65V369.67Z" stroke="black" stroke-width="2"/>
<path d="M1466.02 388.34H890.974V623.662H1466.02V388.34Z" stroke="black" stroke-width="2"/>
<path d="M1426.48 404.521H930.514V607.482H1426.48V404.521Z" stroke="black" stroke-width="2"/>
<path d="M1393.03 418.213H963.972V593.791H1393.03V418.213Z" stroke="black" stroke-width="2"/>
<path d="M1365.65 429.414H991.346V582.588H1365.65V429.414Z" stroke="black" stroke-width="2"/>
<path d="M1344.36 438.127H1012.64V573.875H1344.36V438.127Z" stroke="black" stroke-width="2"/>
<path d="M1329.15 444.352H1027.85V567.653H1329.15V444.352Z" stroke="black" stroke-width="2"/>
<path d="M1320.03 448.084H1036.97V563.917H1320.03V448.084Z" stroke="black" stroke-width="2"/>
<path d="M1316.99 449.328H1040.01V562.672H1316.99V449.328Z" stroke="black" stroke-width="2"/>
<path d="M1040.01 562.672L-58.0019 1012" stroke="black" stroke-width="2"/>
<path d="M1054.59 562.672L124.619 1012" stroke="black" stroke-width="2"/>
<path d="M1069.16 562.672L285.2 1012" stroke="black" stroke-width="2"/>
<path d="M1083.74 562.672L429.47 1012" stroke="black" stroke-width="2"/>
<path d="M1098.32 562.672L561.535 1012" stroke="black" stroke-width="2"/>
<path d="M1112.9 562.672L684.453 1012" stroke="black" stroke-width="2"/>
<path d="M1127.48 562.672L800.584 1012" stroke="black" stroke-width="2"/>
<path d="M1142.05 562.672L911.825 1012" stroke="black" stroke-width="2"/>
<path d="M1156.63 562.672L1019.76 1012" stroke="black" stroke-width="2"/>
<path d="M1171.21 562.672L1125.79 1012" stroke="black" stroke-width="2"/>
<path d="M1185.79 562.672L1231.2 1012" stroke="black" stroke-width="2"/>
<path d="M1200.36 562.672L1337.23 1012" stroke="black" stroke-width="2"/>
<path d="M1214.94 562.672L1445.17 1012" stroke="black" stroke-width="2"/>
<path d="M1229.52 562.672L1556.41 1012" stroke="black" stroke-width="2"/>
<path d="M1244.1 562.672L1672.54 1012" stroke="black" stroke-width="2"/>
<path d="M1258.67 562.672L1795.46 1012" stroke="black" stroke-width="2"/>
<path d="M1273.25 562.672L1927.53 1012" stroke="black" stroke-width="2"/>
<path d="M1287.83 562.672L2071.8 1012" stroke="black" stroke-width="2"/>
<path d="M1302.41 562.672L2232.38 1012" stroke="black" stroke-width="2"/>
<path d="M1316.99 562.672L2415 1012" stroke="black" stroke-width="2"/>
<path d="M1040.01 449.328L-58.0005 0.000243554" stroke="black" stroke-width="2"/>
<path d="M1040.01 455.293L-58.0003 74.7317" stroke="black" stroke-width="2"/>
<path d="M1040.01 461.258L-58.0004 140.444" stroke="black" stroke-width="2"/>
<path d="M1040.01 467.223L-58.0005 199.481" stroke="black" stroke-width="2"/>
<path d="M1040.01 473.189L-58.0005 253.526" stroke="black" stroke-width="2"/>
<path d="M1040.01 479.156L-58.0006 303.828" stroke="black" stroke-width="2"/>
<path d="M1040.01 485.121L-58.0004 351.35" stroke="black" stroke-width="2"/>
<path d="M1040.01 491.086L-58.0004 396.872" stroke="black" stroke-width="2"/>
<path d="M1040.01 497.051L-58.0004 441.042" stroke="black" stroke-width="2"/>
<path d="M1040.01 503.018L-57.9996 484.433" stroke="black" stroke-width="2"/>
<path d="M1040.01 508.982L-57.9996 527.567" stroke="black" stroke-width="2"/>
<path d="M1040.01 514.947L-58.0004 570.956" stroke="black" stroke-width="2"/>
<path d="M1040.01 520.912L-58.0004 615.126" stroke="black" stroke-width="2"/>
<path d="M1040.01 526.879L-58.0004 660.65" stroke="black" stroke-width="2"/>
<path d="M1040.01 532.844L-58.0006 708.172" stroke="black" stroke-width="2"/>
<path d="M1040.01 538.811L-58.0005 758.474" stroke="black" stroke-width="2"/>
<path d="M1040.01 544.775L-58.0005 812.517" stroke="black" stroke-width="2"/>
<path d="M1040.01 550.74L-58.0004 871.554" stroke="black" stroke-width="2"/>
<path d="M1040.01 556.707L-58.0003 937.268" stroke="black" stroke-width="2"/>
<path d="M1040.01 562.672L-58.0005 1012" stroke="black" stroke-width="2"/>
<path d="M1316.99 449.328L2415 0.000243554" stroke="black" stroke-width="2"/>
<path d="M1302.41 449.328L2232.38 0.000350906" stroke="black" stroke-width="2"/>
<path d="M1287.83 449.328L2071.8 0.000324134" stroke="black" stroke-width="2"/>
<path d="M1273.25 449.328L1927.53 0.000283426" stroke="black" stroke-width="2"/>
<path d="M1258.68 449.328L1795.46 0.000312514" stroke="black" stroke-width="2"/>
<path d="M1244.1 449.328L1672.54 0.00032041" stroke="black" stroke-width="2"/>
<path d="M1229.52 449.328L1556.41 0.000264319" stroke="black" stroke-width="2"/>
<path d="M1214.94 449.328L1445.17 0.000309583" stroke="black" stroke-width="2"/>
<path d="M1200.37 449.328L1337.23 0.000297094" stroke="black" stroke-width="2"/>
<path d="M1185.79 449.328L1231.2 0.000252698" stroke="black" stroke-width="2"/>
<path d="M1171.21 449.328L1125.8 0.000252698" stroke="black" stroke-width="2"/>
<path d="M1156.63 449.328L1019.77 0.000297094" stroke="black" stroke-width="2"/>
<path d="M1142.05 449.328L911.826 0.000309583" stroke="black" stroke-width="2"/>
<path d="M1127.48 449.328L800.585 0.000264319" stroke="black" stroke-width="2"/>
<path d="M1112.9 449.328L684.455 0.00032041" stroke="black" stroke-width="2"/>
<path d="M1098.32 449.328L561.537 0.000312514" stroke="black" stroke-width="2"/>
<path d="M1083.74 449.328L429.471 0.000283426" stroke="black" stroke-width="2"/>
<path d="M1069.17 449.328L285.201 0.000324134" stroke="black" stroke-width="2"/>
<path d="M1054.59 449.328L124.621 0.000227783" stroke="black" stroke-width="2"/>
<path d="M1040.01 449.328L-58.0003 0.000137483" stroke="black" stroke-width="2"/>
<path d="M1316.99 562.672L2415 1012" stroke="black" stroke-width="2"/>
<path d="M1316.99 556.707L2415 937.268" stroke="black" stroke-width="2"/>
<path d="M1316.99 550.742L2415 871.556" stroke="black" stroke-width="2"/>
<path d="M1316.99 544.775L2415 812.517" stroke="black" stroke-width="2"/>
<path d="M1316.99 538.811L2415 758.474" stroke="black" stroke-width="2"/>
<path d="M1316.99 532.844L2415 708.172" stroke="black" stroke-width="2"/>
<path d="M1316.99 526.879L2415 660.65" stroke="black" stroke-width="2"/>
<path d="M1316.99 520.912L2415 615.126" stroke="black" stroke-width="2"/>
<path d="M1316.99 514.947L2415 570.956" stroke="black" stroke-width="2"/>
<path d="M1316.99 508.982L2415 527.567" stroke="black" stroke-width="2"/>
<path d="M1316.99 503.018L2415 484.433" stroke="black" stroke-width="2"/>
<path d="M1316.99 497.053L2415 441.044" stroke="black" stroke-width="2"/>
<path d="M1316.99 491.086L2415 396.872" stroke="black" stroke-width="2"/>
<path d="M1316.99 485.121L2415 351.35" stroke="black" stroke-width="2"/>
<path d="M1316.99 479.156L2415 303.828" stroke="black" stroke-width="2"/>
<path d="M1316.99 473.189L2415 253.526" stroke="black" stroke-width="2"/>
<path d="M1316.99 467.223L2415 199.481" stroke="black" stroke-width="2"/>
<path d="M1316.99 461.258L2415 140.444" stroke="black" stroke-width="2"/>
<path d="M1316.99 455.293L2415 74.7316" stroke="black" stroke-width="2"/>
<path d="M1316.99 449.328L2415 0.000137483" stroke="black" stroke-width="2"/>
</svg>
