<svg width="445" height="74" viewBox="0 0 445 74" fill="none" xmlns="http://www.w3.org/2000/svg">
<path d="M292.974 27.5308C291.924 28.417 290.972 29.0078 290.118 29.3033C289.363 29.5659 288.756 29.5823 288.297 29.3525C287.739 29.0571 287.427 28.4827 287.361 27.6292C287.328 26.743 287.607 25.5613 288.198 24.0843C288.789 22.6072 289.577 21.0973 290.561 19.5546C291.021 18.8653 291.694 18.0775 292.58 17.1913C293.499 16.2722 294.254 15.6322 294.845 15.2711C295.764 14.7131 296.634 14.352 297.454 14.1879C298.275 14.0238 298.866 14.1058 299.227 14.4341C299.489 14.631 299.654 14.8772 299.719 15.1726C300.08 16.2558 299.489 18.2088 297.947 21.0317C296.404 23.8217 294.746 25.9881 292.974 27.5308Z" fill="white"/>
<path fill-rule="evenodd" clip-rule="evenodd" d="M282.632 43.6972L282.634 43.6974C287.06 44.0778 291.824 43.191 296.905 41.1055C301.99 39.0506 306.697 36.0895 311.024 32.2325C311.029 32.2277 311.034 32.2228 311.04 32.2179C311.955 31.37 313.028 30.2799 314.254 28.9544C314.866 28.293 315.334 27.7617 315.641 27.3726C315.79 27.1847 315.932 26.9916 316.033 26.8139C316.08 26.7333 316.157 26.5892 316.203 26.4119C316.228 26.3186 316.38 25.7213 315.897 25.2377C315.571 24.9118 315.185 24.8967 315.07 24.8967C314.922 24.8967 314.806 24.9249 314.754 24.9387C314.642 24.9685 314.55 25.0096 314.505 25.0306C314.4 25.0789 314.286 25.1424 314.179 25.2046C313.958 25.3338 313.653 25.5258 313.275 25.7726C310.949 27.249 308.712 28.5664 306.562 29.7266C306.793 29.5805 307.022 29.4322 307.248 29.2818C308.911 28.1954 310.628 26.8636 312.4 25.2923C314.165 23.7273 315.564 22.3 316.574 21.0129C319.365 17.5727 320.863 14.1256 320.863 10.6922C320.863 9.27439 320.652 7.99025 320.191 6.86954C319.758 5.73768 319.031 4.70423 318.055 3.76321C316.624 2.33639 314.564 1.4132 312.011 0.895725C312.004 0.894186 311.996 0.892724 311.988 0.891338C311.154 0.73971 309.848 0.675781 308.139 0.675781C306.416 0.675781 305.052 0.741213 304.08 0.885183L304.069 0.886867L304.063 0.887871C302.191 1.19409 300.308 1.66955 298.414 2.3122C292.312 4.36893 286.758 7.70464 281.756 12.3032C276.763 16.8614 273.438 21.6706 271.883 26.7425C271.296 28.5757 270.993 30.3502 270.993 32.0605C270.993 34.3453 271.486 36.3742 272.525 38.0971C273.565 39.8209 275.109 41.1659 277.094 42.1507C278.778 43.0096 280.628 43.5214 282.632 43.6972ZM296.905 41.1055L296.902 41.1066L296.47 40.0368L296.908 41.1041L296.905 41.1055ZM277.612 41.1198C279.155 41.9076 280.862 42.3835 282.733 42.5477C286.934 42.9087 291.513 42.0718 296.47 40.0368C301.426 38.0345 306.021 35.1459 310.256 31.3712C311.142 30.5506 312.192 29.4838 313.407 28.1708C314.621 26.8579 315.179 26.1522 315.081 26.0537C315.048 26.0209 314.654 26.2507 313.899 26.743C305.266 32.2246 297.75 35.589 291.349 36.8363C290.43 37.0004 289.117 37.0825 287.41 37.0825C286.196 37.0825 285.408 37.0661 285.047 37.0333C284.686 37.0004 284.243 36.902 283.718 36.7379C280.632 35.8844 278.696 34.0463 277.908 31.2235C277.448 29.6807 277.465 27.9575 277.957 26.0537C278.909 22.1149 281.239 18.3729 284.949 14.828C288.658 11.2502 292.892 8.68992 297.651 7.1472C302.641 5.53883 306.842 5.57166 310.256 7.24567C310.978 7.60673 311.667 8.1155 312.324 8.77198C312.914 9.32998 313.308 9.80593 313.505 10.1998C313.702 10.5937 313.85 11.1845 313.948 11.9723C314.244 14.0402 313.669 16.1737 312.225 18.3729C311.437 19.6202 310.469 20.7855 309.32 21.8687C308.171 22.919 307.055 23.7232 305.972 24.2812C304.068 25.2331 303.116 25.1839 303.116 24.1335C303.116 23.8381 304.118 21.6881 306.12 17.6836C308.155 13.6463 309.156 11.5948 309.123 11.5292C309.09 11.4635 308.122 11.4471 306.218 11.4799C304.347 11.4799 303.363 11.5128 303.264 11.5784C303.1 11.6441 302.952 11.8246 302.821 12.12L302.624 12.6124L301.984 12.2185C301.525 11.9231 301.081 11.7261 300.655 11.6276C300.195 11.4635 299.555 11.3979 298.735 11.4307C297.947 11.4307 297.225 11.5128 296.568 11.6769C294.993 12.0708 293.269 12.875 291.398 14.0894C289.56 15.2711 288.05 16.5676 286.869 17.9791C285.621 19.4889 284.555 21.0809 283.668 22.7549C282.815 24.4289 282.273 25.9716 282.044 27.3831C281.584 30.0418 282.273 31.7979 284.112 32.6513C284.473 32.8154 284.752 32.9139 284.949 32.9467C285.178 32.9795 285.671 32.9959 286.426 32.9959C287.476 32.9959 288.329 32.8811 288.986 32.6513C290.529 32.1261 292.022 31.3547 293.466 30.3372C294.09 29.9105 294.418 29.7136 294.451 29.7464C294.484 29.7464 294.451 29.8449 294.353 30.0418C294.188 30.4685 294.172 30.9116 294.303 31.3712C294.467 31.8307 294.73 32.1425 295.091 32.3066C295.583 32.5692 296.535 32.5528 297.947 32.2574C299.128 32.0276 300.523 31.5517 302.132 30.8296C303.74 30.0746 305.234 29.2376 306.612 28.3186C308.221 27.2682 309.895 25.9716 311.634 24.4289C313.374 22.8862 314.72 21.5076 315.672 20.2931C318.363 16.9779 319.709 13.7776 319.709 10.6922C319.709 9.37922 319.512 8.2468 319.118 7.29491C318.757 6.34302 318.133 5.44036 317.247 4.58694C316.033 3.37246 314.211 2.51904 311.782 2.02669C311.06 1.89539 309.845 1.82974 308.139 1.82974C306.432 1.82974 305.135 1.89539 304.249 2.02669C302.444 2.3221 300.622 2.78163 298.784 3.40529C292.843 5.40754 287.427 8.65709 282.536 13.154C277.645 17.618 274.461 22.2626 272.984 27.0877C272.426 28.8273 272.147 30.4849 272.147 32.0605C272.147 36.2947 273.969 39.3145 277.612 41.1198Z" fill="white"/>
<path fill-rule="evenodd" clip-rule="evenodd" d="M165.025 30.6819C166.272 33.1437 168.127 35.1787 170.589 36.7871C173.05 38.3626 175.775 39.2981 178.762 39.5935C182.044 39.8889 185.179 39.3638 188.166 38.018C191.186 36.6722 193.549 34.7356 195.256 32.2082C196.503 30.3372 197.356 28.1544 197.816 25.6598C197.98 24.8064 198.046 23.5591 198.013 21.9179C198.013 20.2439 197.931 18.9966 197.767 18.176C197.012 14.6967 195.518 11.841 193.286 9.60899C191.054 7.37697 188.379 5.86708 185.261 5.07931C182.143 4.25871 179.024 4.25871 175.906 5.07931C172.788 5.86708 170.113 7.37697 167.881 9.60899C166.075 11.4143 164.762 13.5478 163.942 16.0096C163.154 18.4058 162.859 20.9168 163.056 23.5427C163.252 26.1358 163.909 28.5155 165.025 30.6819ZM187.673 30.4357C186.525 33.3898 184.686 35.1787 182.159 35.8024C180.78 36.1306 179.418 36.0322 178.072 35.507C176.595 34.949 175.397 33.9478 174.478 32.5036C173.559 31.0265 172.87 29.0735 172.41 26.6445C172.246 25.7255 172.164 24.1992 172.164 22.0656C172.164 20.3588 172.213 19.0622 172.312 18.176C172.41 17.2569 172.64 16.223 173.001 15.0742C173.625 12.875 174.593 11.1845 175.906 10.0029C177.219 8.82122 178.778 8.23039 180.583 8.23039C182.454 8.23039 184.046 8.87045 185.359 10.1506C186.705 11.4307 187.69 13.2853 188.313 15.7142C188.773 17.5524 189.003 19.6695 189.003 22.0656C189.003 25.348 188.56 28.138 187.673 30.4357Z" fill="white"/>
<path d="M10.9303 39.6428C11.0616 39.7084 12.4238 39.7412 15.0169 39.7412C17.6428 39.7412 19.0214 39.7084 19.1527 39.6428C19.284 39.5443 19.3496 34.3417 19.3496 24.0351L19.3989 8.52581H23.9778C27.0632 8.52581 28.7044 8.49298 28.9014 8.42733L29.1968 8.32886V4.78389L28.2613 4.73466C27.6705 4.66901 23.1244 4.63619 14.623 4.63619C6.12164 4.63619 1.55913 4.66901 0.935478 4.73466L0 4.78389L0 8.3781L0.393886 8.47657C0.656476 8.5094 2.42896 8.52581 5.71134 8.52581L10.6841 8.52581L10.6841 24.0351C10.717 34.3417 10.799 39.5443 10.9303 39.6428Z" fill="white"/>
<path d="M34.9681 39.4951C35.0994 39.5607 36.4452 39.5935 39.0054 39.5935C41.5985 39.5935 42.9607 39.5607 43.092 39.4951C43.1248 39.4622 43.1577 39.3638 43.1905 39.1996C43.2233 39.0027 43.2397 38.576 43.2397 37.9195C43.2725 37.2302 43.2889 36.3768 43.2889 35.3593C43.2889 34.3089 43.3054 32.799 43.3382 30.8296L43.3382 22.3118H49.0003L54.6624 22.361L54.7116 30.8788C54.7444 36.5573 54.8265 39.4294 54.9578 39.4951C55.0891 39.5607 56.4185 39.5935 58.9459 39.5935C61.5062 39.5935 62.8355 39.5607 62.934 39.4951C63.0653 39.4294 63.1309 33.6688 63.1309 22.2133C63.1309 10.725 63.0653 4.94801 62.934 4.88237C62.8355 4.78389 61.5062 4.73466 58.9459 4.73466C56.4185 4.73466 55.0891 4.78389 54.9578 4.88237C54.8265 4.94801 54.7444 7.22927 54.7116 11.7261L54.6624 18.4714L43.3382 18.5699V11.7754C43.3054 7.24568 43.2233 4.94801 43.092 4.88237C42.9607 4.78389 41.5985 4.73466 39.0054 4.73466C36.4452 4.73466 35.0994 4.78389 34.9681 4.88237C34.8696 4.94801 34.8204 10.725 34.8204 22.2133C34.8204 33.6688 34.8696 39.4294 34.9681 39.4951Z" fill="white"/>
<path d="M76.6061 39.5443C74.8993 39.3802 73.3402 38.7073 71.9287 37.5256C70.5173 36.344 69.4998 34.8505 68.8761 33.0452L68.5807 32.1097V18.5699C68.5807 9.57617 68.6135 5.04648 68.6792 4.98083C68.7448 4.91519 72.3554 4.86595 79.511 4.83313C86.6994 4.8003 90.6875 4.8003 91.4753 4.83313L92.6077 4.9316V8.52581L92.0661 8.57504C91.6722 8.64069 89.0792 8.67351 84.2869 8.67351L77.0985 8.67351V18.4714L82.219 18.4714C85.6327 18.5042 87.438 18.5371 87.6349 18.5699L87.9303 18.6684L88.0288 22.2133L87.6349 22.2626C87.3723 22.3282 85.5506 22.361 82.1698 22.361L77.0985 22.361V26.2999C77.0985 28.4991 77.1313 29.9105 77.197 30.5342C77.2954 31.1578 77.5088 31.7651 77.837 32.3559C78.395 33.3406 79.232 34.112 80.348 34.67C80.7747 34.8997 81.103 35.0474 81.3327 35.1131C81.5953 35.1459 82.1698 35.1787 83.056 35.2116C84.3033 35.2772 86.1414 35.31 88.5704 35.31C90.9994 35.31 92.2795 35.3593 92.4108 35.4577C92.5421 35.5562 92.5913 36.2455 92.5585 37.5256V39.4951L92.1646 39.5443C91.9348 39.6099 89.4238 39.6428 84.6315 39.6428C79.8393 39.6428 77.1641 39.6099 76.6061 39.5443Z" fill="white"/>
<path d="M111.285 39.5443C111.417 39.6099 112.779 39.6428 115.372 39.6428C117.965 39.6428 119.311 39.6099 119.409 39.5443C119.541 39.4458 119.606 35.3757 119.606 27.3338C119.606 19.292 119.541 15.2383 119.409 15.1726C119.311 15.107 117.965 15.0742 115.372 15.0742C112.779 15.0742 111.417 15.107 111.285 15.1726C111.187 15.2383 111.138 19.292 111.138 27.3338C111.138 35.3757 111.187 39.4458 111.285 39.5443Z" fill="white"/>
<path d="M111.039 8.47657C111.039 10.6429 111.121 11.8082 111.285 11.9723C111.417 12.1036 112.779 12.1692 115.372 12.1692C117.998 12.1692 119.376 12.1036 119.508 11.9723C119.639 11.8082 119.705 10.6429 119.705 8.47657C119.705 6.27738 119.639 5.11213 119.508 4.98083C119.376 4.84954 117.998 4.78389 115.372 4.78389C112.779 4.78389 111.417 4.84954 111.285 4.98083C111.121 5.11213 111.039 6.27738 111.039 8.47657Z" fill="white"/>
<path fill-rule="evenodd" clip-rule="evenodd" d="M127.756 39.5443C127.625 39.5115 127.543 39.4294 127.51 39.2981C127.477 39.134 127.444 38.7401 127.411 38.1165C127.346 37.1646 127.329 31.404 127.362 20.8347C127.395 10.2655 127.444 4.94801 127.51 4.88237C127.608 4.81672 130.119 4.8003 135.043 4.83313C139.999 4.83313 142.806 4.86595 143.462 4.9316C148.484 5.6209 152.308 7.26209 154.934 9.85517C156.871 11.8246 158.2 14.5161 158.922 17.9298C159.152 18.9474 159.267 20.326 159.267 22.0656C159.267 23.8053 159.152 25.1182 158.922 26.0045C158.2 29.0243 156.871 31.6009 154.934 33.7345C153.03 35.868 150.634 37.4272 147.746 38.4119C145.973 38.9699 144.168 39.3309 142.33 39.4951C141.64 39.5607 139.096 39.5935 134.698 39.5935C130.333 39.5935 128.018 39.5771 127.756 39.5443ZM141 34.9654C142.445 34.6043 143.84 33.8494 145.185 32.7005C146.531 31.5189 147.614 30.1239 148.435 28.5155C149.518 26.3491 149.994 23.9694 149.863 21.3763C149.731 18.7832 149.042 16.5184 147.795 14.5818C146.58 12.7437 144.972 11.3158 142.97 10.2983C141.558 9.57617 139.835 9.18228 137.8 9.11663L135.978 9.0674V35.2608L138.095 35.2116C139.54 35.1787 140.508 35.0967 141 34.9654Z" fill="white"/>
<path d="M210.806 39.5443C208.836 39.3474 207.08 38.4611 205.537 36.8856C204.553 35.9337 203.863 34.9818 203.47 34.0299C203.076 33.078 202.829 31.8635 202.731 30.3865C202.665 29.172 202.633 24.6423 202.633 16.7974C202.665 8.95251 202.731 4.99725 202.83 4.9316C202.961 4.83313 204.339 4.78389 206.965 4.78389C209.591 4.78389 210.97 4.83313 211.101 4.9316C211.232 4.99725 211.314 9.32999 211.347 17.9298V20.3424C211.38 25.7911 211.413 29.0243 211.446 30.0418C211.511 31.0265 211.692 31.7651 211.987 32.2574C212.053 32.3559 212.102 32.4215 212.135 32.4544C212.66 33.3734 213.464 34.112 214.548 34.67C215.007 34.8669 215.352 34.9982 215.582 35.0638C215.844 35.0967 216.402 35.1459 217.256 35.2116C218.437 35.2444 220.095 35.2772 222.228 35.31C224.395 35.31 225.544 35.3593 225.675 35.4577C225.806 35.5562 225.855 36.2455 225.823 37.5256V39.4458L225.527 39.5443C225.297 39.6099 222.918 39.6428 218.388 39.6428C213.858 39.6428 211.331 39.6099 210.806 39.5443Z" fill="white"/>
<path d="M230.325 39.5443C230.457 39.6099 231.54 39.6428 233.575 39.6428C235.643 39.6428 236.742 39.6099 236.874 39.5443C237.005 39.4458 237.087 36.0486 237.12 29.3525L237.169 19.2592L246.721 39.6428H250.364L254.992 29.5494L259.571 19.5054L259.621 29.451C259.686 36.0814 259.768 39.4458 259.867 39.5443C259.998 39.6099 261.147 39.6428 263.313 39.6428C265.512 39.6428 266.661 39.5935 266.76 39.4951C266.858 39.4622 266.907 38.4775 266.907 36.5409C266.94 34.5715 266.957 29.7956 266.957 22.2133C266.957 10.725 266.891 4.94801 266.76 4.88237C266.661 4.81672 265.447 4.78389 263.116 4.78389C260.786 4.75107 259.473 4.76748 259.177 4.83313C259.013 4.86595 258.669 5.42396 258.144 6.50714C257.651 7.5575 256.19 10.7414 253.762 16.0589L248.69 27.1861L248.346 26.5461C248.149 26.1194 246.442 22.4267 243.225 15.468C240.008 8.47657 238.302 4.94801 238.105 4.88237C237.908 4.78389 236.595 4.75107 234.166 4.78389C231.737 4.78389 230.457 4.81672 230.325 4.88237C230.194 4.94801 230.128 10.725 230.128 22.2133C230.128 33.6688 230.194 39.4458 230.325 39.5443Z" fill="white"/>
<path d="M323.337 39.692C323.206 39.6264 323.124 39.5115 323.091 39.3473V35.6547L323.387 35.507C323.584 35.4413 325.553 35.4085 329.295 35.4085C333.037 35.4085 335.121 35.3593 335.548 35.2608C337.419 34.8669 338.42 33.8165 338.551 32.1097C338.65 30.8624 338.256 29.73 337.37 28.7124C336.483 27.6621 334.941 26.5461 332.741 25.3644C329.919 23.7889 328.048 22.7221 327.128 22.1641C326.242 21.6061 325.471 21.0153 324.814 20.3916C322.057 17.7657 321.319 14.7131 322.599 11.2338C323.255 9.42846 324.47 7.95139 326.242 6.80256C328.015 5.65372 330.148 4.98084 332.643 4.78389C333.398 4.71825 335.482 4.68542 338.896 4.68542C342.31 4.6526 344.18 4.66901 344.509 4.73466L344.853 4.83313V8.42733L344.509 8.47657C344.246 8.54222 342.392 8.57504 338.945 8.57504C335.499 8.57504 333.546 8.60787 333.086 8.67351C331.543 8.96893 330.477 9.67464 329.886 10.7906C329.656 11.2174 329.541 11.8082 329.541 12.5631C329.541 13.2853 329.689 13.8925 329.984 14.3849C330.739 15.7963 332.922 17.4539 336.533 19.3577C338.929 20.6378 340.734 21.721 341.948 22.6072C343.196 23.4606 344.148 24.3141 344.804 25.1675C346.117 26.94 346.691 28.8273 346.527 30.8296C346.363 32.799 345.477 34.6207 343.869 36.2947C342.785 37.4764 341.423 38.3298 339.782 38.855C338.568 39.2817 337.517 39.5279 336.631 39.5935C335.778 39.6592 333.578 39.7084 330.033 39.7412C325.766 39.7741 323.534 39.7577 323.337 39.692Z" fill="white"/>
<path d="M362.408 39.6428C362.539 39.7084 363.901 39.7412 366.494 39.7412C369.12 39.7412 370.499 39.7084 370.63 39.6428C370.761 39.5443 370.827 34.3417 370.827 24.0351L370.876 8.52581H375.455C378.541 8.52581 380.182 8.49298 380.379 8.42733L380.674 8.32886V4.78389L379.739 4.73466C379.148 4.66901 374.602 4.63619 366.1 4.63619C357.599 4.63619 353.037 4.66901 352.413 4.73466L351.477 4.78389V8.3781L351.871 8.47657C352.134 8.5094 353.906 8.52581 357.189 8.52581L362.162 8.52581V24.0351C362.194 34.3417 362.277 39.5443 362.408 39.6428Z" fill="white"/>
<path d="M394.619 39.5443C392.912 39.3802 391.353 38.7073 389.941 37.5256C388.53 36.344 387.512 34.8505 386.889 33.0452L386.593 32.1097V18.5699C386.593 9.57617 386.626 5.04648 386.692 4.98083C386.757 4.91519 390.368 4.86595 397.524 4.83313C404.712 4.8003 408.7 4.8003 409.488 4.83313L410.62 4.9316V8.52581L410.079 8.57504C409.685 8.64069 407.092 8.67351 402.299 8.67351H395.111V18.4714H400.232C403.645 18.5042 405.451 18.5371 405.647 18.5699L405.943 18.6684L406.041 22.2133L405.647 22.2626C405.385 22.3282 403.563 22.361 400.182 22.361H395.111V26.2999C395.111 28.4991 395.144 29.9105 395.21 30.5342C395.308 31.1578 395.521 31.7651 395.85 32.3559C396.408 33.3406 397.245 34.112 398.361 34.67C398.787 34.8997 399.116 35.0474 399.345 35.1131C399.608 35.1459 400.182 35.1787 401.069 35.2116C402.316 35.2772 404.154 35.31 406.583 35.31C409.012 35.31 410.292 35.3593 410.423 35.4577C410.555 35.5562 410.604 36.2455 410.571 37.5256V39.4951L410.177 39.5443C409.947 39.6099 407.436 39.6428 402.644 39.6428C397.852 39.6428 395.177 39.6099 394.619 39.5443Z" fill="white"/>
<path fill-rule="evenodd" clip-rule="evenodd" d="M414.672 39.4951C414.803 39.5607 416.165 39.5935 418.758 39.5935C421.352 39.5935 422.697 39.5607 422.796 39.4951C422.894 39.4622 422.943 39.0027 422.943 38.1165C422.976 37.1974 423.009 35.0967 423.042 31.8143V24.232L423.337 24.2812C423.501 24.2812 425.307 26.8087 428.753 31.8635C431.018 35.2116 432.462 37.3287 433.086 38.2149C433.71 39.0684 434.104 39.5115 434.268 39.5443C434.465 39.5771 436.024 39.5935 438.945 39.5935C441.899 39.5935 443.376 39.5771 443.376 39.5443C443.376 39.5115 441.538 36.8035 437.862 31.4204C434.218 26.0045 432.397 23.2637 432.397 23.198C432.397 23.1324 432.643 22.9847 433.135 22.7549C434.317 22.2297 435.433 21.442 436.483 20.3916C437.566 19.3084 438.321 18.1104 438.748 16.7974C438.945 16.1737 439.06 15.386 439.093 14.4341C439.093 12.0708 438.338 10.0849 436.828 8.47657C434.859 6.34302 432.036 5.14495 428.359 4.88237C427.408 4.81672 424.896 4.8003 420.826 4.83313C416.756 4.83313 414.688 4.86595 414.623 4.9316C414.557 4.99725 414.524 10.7578 414.524 22.2133C414.524 33.6688 414.573 39.4294 414.672 39.4951ZM428.803 18.5699C428.08 19.3248 427.243 19.85 426.292 20.1454C425.799 20.3095 425.143 20.3916 424.322 20.3916H423.042V9.01816H424.273C426.242 9.01816 427.769 9.52693 428.852 10.5445C429.541 11.1681 430.001 11.9887 430.23 13.0063C430.493 13.991 430.493 14.9757 430.23 15.9604C430.001 16.9451 429.525 17.8149 428.803 18.5699Z" fill="white"/>
<path d="M283.793 55.8241C283.865 55.6245 284.096 55.4626 284.309 55.4626L427.511 55.4626C427.723 55.4626 427.837 55.6245 427.764 55.8241L427.501 56.547C427.428 56.7466 427.197 56.9085 426.985 56.9085L283.783 56.9085C283.57 56.9085 283.457 56.7466 283.53 56.547L283.793 55.8241Z" fill="white"/>
<path d="M364.151 55.4626L411.707 55.4626L411.181 56.9085L363.625 56.9085L364.151 55.4626Z" fill="white"/>
<path d="M404.732 55.4626L430.903 55.4626C431.115 55.4626 431.229 55.6245 431.156 55.8241L430.893 56.547C430.82 56.7466 430.589 56.9085 430.377 56.9085L404.205 56.9085L404.732 55.4626Z" fill="white"/>
<path d="M441.203 51.3247C441.406 51.0124 441.89 51.1426 441.91 51.5147L442.037 53.9902C442.046 54.1566 442.161 54.2986 442.321 54.3419L444.715 54.9856C445.075 55.0823 445.101 55.583 444.753 55.7162L442.438 56.6025C442.282 56.6621 442.183 56.8151 442.191 56.9815L442.319 59.457C442.338 59.8292 441.87 60.0084 441.636 59.7186L440.077 57.7909C439.973 57.6613 439.796 57.6139 439.641 57.6735L437.326 58.5597C436.978 58.693 436.663 58.303 436.866 57.9907L438.218 55.913C438.309 55.7733 438.299 55.591 438.194 55.4614L436.636 53.5337C436.402 53.2439 436.675 52.8237 437.035 52.9204L439.429 53.5641C439.59 53.6074 439.76 53.5421 439.851 53.4024L441.203 51.3247Z" fill="white"/>
<path d="M140.349 64.6943C140.349 64.6615 140.932 62.6346 142.097 58.6137L143.845 52.5577L144.042 52.3362C144.338 51.9915 144.756 51.6879 145.298 51.4253L145.741 51.2037L147.021 51.1791C147.874 51.1791 148.317 51.1955 148.35 51.2284C148.383 51.2448 147.858 53.1321 146.775 56.8905C145.691 60.6324 145.142 62.5444 145.125 62.6264C145.109 62.6757 145.265 62.5608 145.593 62.2818C145.757 62.1341 145.987 61.9289 146.282 61.6663C147.07 60.9606 147.48 60.5913 147.513 60.5585C147.513 60.5257 147.956 58.9666 148.843 55.8811C149.745 52.7793 150.197 51.2201 150.197 51.2037C150.311 51.1873 150.673 51.1791 151.28 51.1791C151.887 51.1791 152.543 51.1873 153.249 51.2037C153.971 51.2037 154.332 51.2119 154.332 51.2284C154.365 51.2448 153.979 52.648 153.175 55.438L151.969 59.6477L149.163 62.1341C148.49 62.7413 147.981 63.1926 147.636 63.488C147.308 63.7835 147.029 64.0296 146.799 64.2266C146.57 64.4235 146.414 64.5466 146.332 64.5958C146.266 64.6451 146.217 64.6779 146.184 64.6943C146.102 64.6943 145.577 64.6943 144.608 64.6943C143.64 64.7107 142.688 64.7107 141.753 64.6943C140.817 64.6943 140.349 64.6943 140.349 64.6943Z" fill="white"/>
<path d="M154.559 64.1773C154.609 63.7835 155.175 61.773 156.258 58.146C157.046 55.5037 157.53 53.9199 157.71 53.3947C157.907 52.8531 158.112 52.4675 158.326 52.2377C158.687 51.8438 159.064 51.573 159.458 51.4253C159.852 51.2612 160.435 51.1709 161.206 51.1545L162.56 51.0807L162.511 51.5484C162.478 51.8766 161.977 53.6819 161.009 56.9643C160.057 60.2467 159.475 62.1423 159.261 62.651C158.917 63.4388 158.482 63.9886 157.957 64.3004C157.431 64.6123 156.668 64.7682 155.667 64.7682H154.485L154.559 64.1773Z" fill="white"/>
<path d="M168.018 64.6943C164.703 64.7107 163.045 64.7107 163.045 64.6943C163.045 64.6779 163.611 62.7003 164.744 58.7614C164.826 58.4988 164.933 58.1131 165.064 57.6044C165.802 55.1098 166.245 53.6327 166.393 53.1732C166.557 52.7136 166.762 52.3772 167.009 52.1638C167.058 52.1146 167.099 52.0818 167.132 52.0654C167.542 51.6715 167.985 51.3761 168.461 51.1791L168.756 51.056H172.892L177.028 51.0314L177.003 51.3022C176.971 51.5648 176.864 51.8192 176.683 52.0654C176.519 52.3115 176.314 52.4921 176.068 52.607L175.797 52.73L173.36 52.7547H170.898L170.775 53.247C170.693 53.5588 170.644 53.7394 170.627 53.7886C170.611 53.805 170.627 53.8214 170.677 53.8378C170.742 53.8378 170.865 53.8461 171.046 53.8625C171.226 53.8625 171.464 53.8625 171.76 53.8625C172.055 53.8625 172.474 53.8625 173.015 53.8625C174.624 53.8789 175.436 53.8953 175.453 53.9117C175.485 53.9445 175.477 54.0594 175.428 54.2563C175.379 54.4369 175.329 54.601 175.28 54.7487C175.1 55.1262 174.829 55.397 174.468 55.5611L174.172 55.7088H172.105L170.061 55.7334L169.027 59.2784C168.748 60.2467 168.51 61.0837 168.313 61.7894C168.116 62.4787 168.018 62.8234 168.018 62.8234C168.034 62.8398 169.077 62.848 171.144 62.848H174.246V62.9957C174.246 63.2583 174.164 63.5455 174 63.8573C173.82 64.202 173.573 64.4399 173.262 64.5712L173.015 64.6943H168.018Z" fill="white"/>
<path d="M178.905 64.6943C178.921 64.6287 179.512 62.5772 180.677 58.5399C181.843 54.4861 182.417 52.4592 182.401 52.4592C182.384 52.4428 181.72 52.4346 180.407 52.4346L178.413 52.41L178.56 52.1392C178.659 51.9423 178.807 51.7453 179.003 51.5484L179.299 51.253L179.939 51.2284C180.316 51.1955 182.269 51.1873 185.798 51.2037C189.343 51.2037 191.124 51.2201 191.14 51.253C191.173 51.2694 191.156 51.3761 191.091 51.573C191.042 51.7699 190.976 51.9423 190.894 52.09C190.795 52.2705 190.697 52.369 190.598 52.3854C190.516 52.4018 189.868 52.4182 188.654 52.4346H186.832L186.758 52.6808C184.772 59.6559 183.722 63.2255 183.607 63.3896C183.279 63.8491 182.795 64.243 182.155 64.5712L181.761 64.7682L180.333 64.7928H178.88L178.905 64.6943Z" fill="white"/>
<path d="M191.68 64.1035C191.729 63.6932 192.287 61.6827 193.354 58.0721C194.141 55.397 194.617 53.805 194.781 53.2963C194.962 52.7875 195.167 52.41 195.397 52.1638C195.971 51.5238 196.693 51.1709 197.563 51.1053C198.433 51.0232 199.048 51.2612 199.41 51.8192C199.574 52.0654 199.968 53.5671 200.591 56.3243L201.527 60.4354L202.487 57.112C203.012 55.2739 203.398 54.043 203.644 53.4193C203.89 52.7957 204.153 52.3444 204.432 52.0654C204.809 51.7043 205.154 51.4663 205.466 51.3514C205.794 51.2201 206.27 51.1381 206.893 51.1053L208.075 51.0314L208.001 51.6469C207.952 52.0407 207.386 54.0758 206.303 57.7521C205.515 60.4108 205.031 62.011 204.85 62.5526C204.67 63.0942 204.481 63.4634 204.284 63.6604C203.89 64.0378 203.537 64.2922 203.225 64.4235C202.913 64.5384 202.487 64.5958 201.945 64.5958C201.141 64.5958 200.616 64.3825 200.37 63.9558C200.14 63.5127 199.738 62.0192 199.163 59.4753L198.203 55.1918L197.022 59.1307C196.775 59.9841 196.587 60.6078 196.455 61.0016C196.341 61.3955 196.201 61.814 196.037 62.2571C195.889 62.6839 195.783 62.9711 195.717 63.1188C195.651 63.2665 195.545 63.4388 195.397 63.6357C195.266 63.8163 195.151 63.9394 195.052 64.005C194.954 64.0707 194.798 64.1609 194.584 64.2758C194.223 64.4892 193.633 64.6123 192.812 64.6451L191.581 64.7189L191.68 64.1035Z" fill="white"/>
<path d="M208.365 64.1035C208.414 63.6932 208.939 61.6991 209.941 58.1214C209.957 58.0557 209.982 57.9654 210.014 57.8506C210.786 55.0277 211.286 53.3537 211.516 52.8285C211.746 52.3033 212.148 51.8602 212.722 51.4991C212.739 51.4827 212.755 51.4745 212.772 51.4745L213.387 51.0807L217.818 51.0314C220.772 51.015 222.307 51.0478 222.422 51.1299C222.488 51.1955 222.438 51.5894 222.274 52.3115C222.11 53.0173 221.683 54.642 220.994 57.1859C220.978 57.2515 220.953 57.35 220.92 57.4813C220.083 60.5503 219.55 62.372 219.32 62.9464C219.09 63.5045 218.713 63.9394 218.188 64.2512C218.171 64.2676 218.155 64.284 218.138 64.3004C217.777 64.5138 217.195 64.6451 216.39 64.6943C215.603 64.7271 215.184 64.6779 215.135 64.5466C215.102 64.4153 215.406 63.1352 216.046 60.7062L217.031 57.0628L216.095 56.595C215.471 56.2668 215.127 56.0863 215.061 56.0535C215.045 56.0535 214.979 56.2094 214.864 56.5212C214.766 56.833 214.634 57.2679 214.47 57.8259C214.306 58.3839 214.134 58.983 213.953 59.623L212.919 63.2419L212.402 63.7342C212.025 64.1117 211.639 64.3661 211.245 64.4974C210.851 64.6287 210.285 64.6943 209.547 64.6943H208.291L208.365 64.1035ZM217.892 53.9363L218.188 52.8285H215.8L215.504 54.0102L216.514 54.5271C217.186 54.8554 217.531 55.0277 217.548 55.0441C217.564 55.0441 217.58 54.9949 217.597 54.8964C217.63 54.7979 217.671 54.6666 217.72 54.5025C217.769 54.322 217.827 54.1333 217.892 53.9363Z" fill="white"/>
<path d="M223.988 64.8666C223.282 64.8831 222.929 64.8748 222.929 64.842C222.929 64.8092 223.512 62.7987 224.677 58.8106C225.531 55.8565 226.039 54.1168 226.203 53.5917C226.368 53.0501 226.499 52.7136 226.597 52.5823C227.024 52.0243 227.607 51.5976 228.345 51.3022L228.616 51.2037L234.573 51.1791C238.529 51.1791 240.638 51.1873 240.9 51.2037L241.294 51.253L240.359 54.5025C239.735 56.6853 239.407 57.7849 239.374 57.8013C239.341 57.8013 239.325 57.8341 239.325 57.8998C239.325 57.9818 239.079 58.8845 238.586 60.6078C238.094 62.331 237.823 63.2419 237.774 63.3403C237.708 63.4716 237.552 63.6604 237.306 63.9065C237.076 64.1363 236.879 64.3004 236.715 64.3989C236.518 64.5302 236.297 64.6369 236.051 64.7189C235.804 64.801 235.361 64.8502 234.721 64.8666C234.081 64.8831 233.728 64.8748 233.663 64.842C233.613 64.8256 233.663 64.5466 233.81 64.005C233.958 63.4634 234.442 61.7484 235.263 58.8599C236.412 54.9046 236.986 52.9188 236.986 52.9024C236.986 52.9024 236.953 52.9024 236.888 52.9024C236.822 52.9024 236.732 52.9024 236.617 52.9024C236.502 52.9024 236.379 52.9024 236.247 52.9024H235.534L234.056 58.0475C233.055 61.4776 232.522 63.2583 232.456 63.3896C232.358 63.5701 232.177 63.7752 231.915 64.005C231.669 64.2348 231.447 64.4071 231.25 64.522C230.955 64.6697 230.708 64.76 230.512 64.7928C230.315 64.842 229.921 64.8666 229.33 64.8666C228.624 64.8831 228.271 64.8831 228.271 64.8666C228.271 64.8502 228.829 62.9054 229.945 59.0322C231.061 55.1426 231.636 53.1403 231.669 53.0255L231.718 52.9024H230.191L228.69 58.0967C227.968 60.6406 227.525 62.1505 227.36 62.6264C227.213 63.1024 227.09 63.4142 226.991 63.5619C226.794 63.8409 226.556 64.0871 226.277 64.3004C225.998 64.4974 225.695 64.6451 225.366 64.7436C225.169 64.8092 224.71 64.8502 223.988 64.8666Z" fill="white"/>
<path d="M238.464 55.8241C238.536 55.6245 238.767 55.4626 238.98 55.4626L343.825 55.4626C344.038 55.4626 344.151 55.6245 344.079 55.8241L343.815 56.547C343.743 56.7466 343.512 56.9085 343.299 56.9085L238.454 56.9085C238.241 56.9085 238.128 56.7466 238.201 56.547L238.464 55.8241Z" fill="white"/>
<path d="M285.803 64.7879C286.006 64.4756 286.491 64.6058 286.51 64.9779L286.637 67.4534C286.646 67.6198 286.761 67.7618 286.922 67.8051L289.315 68.4488C289.675 68.5455 289.701 69.0462 289.353 69.1794L287.038 70.0657C286.882 70.1253 286.783 70.2783 286.791 70.4447L286.919 72.9202C286.938 73.2924 286.47 73.4716 286.236 73.1818L284.677 71.2541C284.573 71.1245 284.396 71.0771 284.241 71.1367L281.926 72.0229C281.578 72.1562 281.263 71.7662 281.466 71.4539L282.818 69.3762C282.909 69.2365 282.899 69.0542 282.795 68.9246L281.236 66.9969C281.002 66.7071 281.275 66.2869 281.635 66.3836L284.029 67.0273C284.19 67.0706 284.36 67.0053 284.451 66.8656L285.803 64.7879Z" fill="white"/>
<path d="M304.651 64.7879C304.854 64.4756 305.339 64.6058 305.358 64.9779L305.485 67.4534C305.494 67.6198 305.609 67.7618 305.77 67.8051L308.163 68.4488C308.523 68.5455 308.549 69.0462 308.201 69.1794L305.886 70.0657C305.73 70.1253 305.631 70.2783 305.639 70.4447L305.767 72.9202C305.786 73.2924 305.318 73.4716 305.084 73.1818L303.525 71.2541C303.421 71.1245 303.244 71.0771 303.089 71.1367L300.774 72.0229C300.426 72.1562 300.111 71.7662 300.314 71.4539L301.666 69.3762C301.757 69.2365 301.747 69.0542 301.643 68.9246L300.084 66.9969C299.85 66.7071 300.123 66.2869 300.483 66.3836L302.877 67.0273C303.038 67.0706 303.209 67.0053 303.299 66.8656L304.651 64.7879Z" fill="white"/>
<path d="M323.499 64.7879C323.703 64.4756 324.187 64.6058 324.206 64.9779L324.333 67.4534C324.342 67.6198 324.457 67.7618 324.618 67.8051L327.011 68.4488C327.371 68.5455 327.397 69.0462 327.049 69.1794L324.734 70.0657C324.578 70.1253 324.479 70.2783 324.488 70.4447L324.615 72.9202C324.634 73.2924 324.166 73.4716 323.932 73.1818L322.374 71.2541C322.269 71.1245 322.092 71.0771 321.937 71.1367L319.622 72.0229C319.274 72.1562 318.959 71.7662 319.162 71.4539L320.514 69.3762C320.605 69.2365 320.595 69.0542 320.491 68.9246L318.932 66.9969C318.698 66.7071 318.972 66.2869 319.331 66.3836L321.725 67.0273C321.886 67.0706 322.057 67.0053 322.147 66.8656L323.499 64.7879Z" fill="white"/>
<path d="M342.347 64.7879C342.551 64.4756 343.035 64.6058 343.054 64.9779L343.181 67.4534C343.19 67.6198 343.305 67.7618 343.466 67.8051L345.859 68.4488C346.219 68.5455 346.245 69.0462 345.897 69.1794L343.582 70.0657C343.427 70.1253 343.327 70.2783 343.336 70.4447L343.463 72.9202C343.482 73.2924 343.014 73.4716 342.78 73.1818L341.222 71.2541C341.117 71.1245 340.941 71.0771 340.785 71.1367L338.47 72.0229C338.122 72.1562 337.807 71.7662 338.01 71.4539L339.362 69.3762C339.453 69.2365 339.443 69.0542 339.339 68.9246L337.78 66.9969C337.546 66.7071 337.82 66.2869 338.179 66.3836L340.573 67.0273C340.734 67.0706 340.905 67.0053 340.995 66.8656L342.347 64.7879Z" fill="white"/>
<path d="M361.195 64.7879C361.399 64.4756 361.883 64.6058 361.902 64.9779L362.029 67.4534C362.038 67.6198 362.153 67.7618 362.314 67.8051L364.707 68.4488C365.067 68.5455 365.093 69.0462 364.745 69.1794L362.43 70.0657C362.275 70.1253 362.175 70.2783 362.184 70.4447L362.311 72.9202C362.33 73.2924 361.862 73.4716 361.628 73.1818L360.07 71.2541C359.965 71.1245 359.789 71.0771 359.633 71.1367L357.318 72.0229C356.97 72.1562 356.655 71.7662 356.858 71.4539L358.21 69.3762C358.301 69.2365 358.291 69.0542 358.187 68.9246L356.628 66.9969C356.394 66.7071 356.668 66.2869 357.027 66.3836L359.421 67.0273C359.582 67.0706 359.753 67.0053 359.844 66.8656L361.195 64.7879Z" fill="white"/>
<path d="M380.043 64.7879C380.247 64.4756 380.731 64.6058 380.75 64.9779L380.878 67.4534C380.886 67.6198 381.001 67.7618 381.162 67.8051L383.556 68.4488C383.915 68.5455 383.941 69.0462 383.593 69.1794L381.278 70.0657C381.123 70.1253 381.023 70.2783 381.032 70.4447L381.159 72.9202C381.178 73.2924 380.71 73.4716 380.476 73.1818L378.918 71.2541C378.813 71.1245 378.637 71.0771 378.481 71.1367L376.166 72.0229C375.818 72.1562 375.503 71.7662 375.706 71.4539L377.058 69.3762C377.149 69.2365 377.139 69.0542 377.035 68.9246L375.476 66.9969C375.242 66.7071 375.516 66.2869 375.875 66.3836L378.269 67.0273C378.43 67.0706 378.601 67.0053 378.692 66.8656L380.043 64.7879Z" fill="white"/>
</svg>
