<svg width="450" height="74" viewBox="0 0 450 74" fill="none" xmlns="http://www.w3.org/2000/svg">
<path d="M296.266 27.4224C295.204 28.3186 294.241 28.916 293.378 29.2148C292.615 29.4803 292.001 29.4969 291.536 29.2646C290.972 28.9658 290.656 28.385 290.59 27.5219C290.557 26.6257 290.839 25.4308 291.436 23.9371C292.034 22.4435 292.83 20.9166 293.826 19.3566C294.291 18.6595 294.971 17.8629 295.867 16.9667C296.797 16.0373 297.56 15.39 298.158 15.0249C299.087 14.4607 299.967 14.0955 300.797 13.9296C301.626 13.7636 302.224 13.8466 302.589 14.1785C302.855 14.3777 303.021 14.6266 303.087 14.9253C303.452 16.0207 302.855 17.9957 301.294 20.8502C299.734 23.6716 298.058 25.8623 296.266 27.4224Z" fill="#3D3D3D"/>
<path fill-rule="evenodd" clip-rule="evenodd" d="M285.808 43.7704L285.81 43.7706C290.286 44.1553 295.103 43.2585 300.241 41.1496C305.384 39.0716 310.143 36.0772 314.518 32.177C314.524 32.1721 314.529 32.1671 314.535 32.1621C315.461 31.3047 316.545 30.2024 317.785 28.862C318.404 28.1931 318.877 27.6559 319.188 27.2624C319.338 27.0724 319.482 26.8771 319.584 26.6975C319.631 26.6159 319.709 26.4702 319.756 26.2909C319.781 26.1966 319.935 25.5925 319.446 25.1036C319.117 24.774 318.727 24.7587 318.611 24.7587C318.461 24.7587 318.343 24.7872 318.291 24.8012C318.178 24.8313 318.085 24.8728 318.039 24.8941C317.933 24.943 317.817 25.0072 317.709 25.0701C317.485 25.2007 317.177 25.3948 316.795 25.6444C314.443 27.1374 312.18 28.4697 310.006 29.6429C310.24 29.4951 310.472 29.3452 310.7 29.193C312.382 28.0945 314.118 26.7477 315.91 25.1587C317.695 23.5762 319.109 22.1328 320.131 20.8312C322.953 17.3524 324.468 13.8666 324.468 10.3946C324.468 8.96085 324.254 7.66228 323.789 6.52898C323.351 5.3844 322.615 4.33933 321.629 3.38774C320.182 1.94489 318.099 1.01133 315.517 0.48804C315.509 0.486484 315.502 0.485005 315.494 0.483604C314.651 0.330272 313.329 0.265625 311.601 0.265625C309.859 0.265625 308.479 0.331792 307.496 0.47738L307.485 0.479083L307.479 0.480097C305.587 0.789754 303.682 1.27056 301.767 1.92043C295.596 4.00027 289.98 7.37346 284.922 12.0237C279.872 16.6332 276.51 21.4964 274.938 26.6252C274.344 28.479 274.038 30.2735 274.038 32.0029C274.038 34.3135 274.536 36.3651 275.588 38.1074C276.639 39.8506 278.2 41.2107 280.207 42.2065C281.91 43.0751 283.781 43.5927 285.808 43.7704ZM300.241 41.1496L300.238 41.1507L299.801 40.0689L300.244 41.1482L300.241 41.1496ZM280.732 41.1641C282.292 41.9607 284.018 42.442 285.91 42.608C290.158 42.9731 294.789 42.1268 299.801 40.0689C304.813 38.0441 309.46 35.123 313.742 31.3059C314.638 30.4761 315.7 29.3973 316.928 28.0696C318.156 26.7419 318.721 26.0283 318.621 25.9287C318.588 25.8955 318.189 26.1279 317.426 26.6257C308.696 32.1689 301.095 35.5711 294.623 36.8325C293.693 36.9984 292.366 37.0814 290.64 37.0814C289.411 37.0814 288.615 37.0648 288.25 37.0316C287.885 36.9984 287.437 36.8989 286.905 36.7329C283.785 35.8699 281.827 34.0111 281.03 31.1565C280.566 29.5965 280.582 27.8539 281.08 25.9287C282.043 21.9456 284.399 18.1616 288.15 14.5768C291.901 10.9588 296.183 8.36981 300.996 6.80976C306.041 5.18332 310.29 5.21651 313.742 6.90933C314.472 7.27445 315.169 7.78894 315.833 8.45279C316.43 9.01707 316.829 9.49836 317.028 9.89667C317.227 10.295 317.376 10.8924 317.476 11.6891C317.775 13.7802 317.194 15.9377 315.733 18.1616C314.937 19.4229 313.957 20.6013 312.796 21.6966C311.634 22.7588 310.505 23.572 309.41 24.1363C307.485 25.0989 306.522 25.0491 306.522 23.9869C306.522 23.6882 307.535 21.5141 309.559 17.4646C311.617 13.3819 312.63 11.3074 312.597 11.241C312.563 11.1746 311.584 11.158 309.659 11.1912C307.767 11.1912 306.771 11.2244 306.672 11.2908C306.506 11.3571 306.356 11.5397 306.224 11.8384L306.024 12.3363L305.377 11.938C304.912 11.6393 304.464 11.4401 304.033 11.3405C303.568 11.1746 302.921 11.1082 302.091 11.1414C301.294 11.1414 300.564 11.2244 299.9 11.3903C298.307 11.7886 296.565 12.6019 294.673 13.83C292.814 15.0249 291.287 16.336 290.092 17.7633C288.831 19.2902 287.752 20.9 286.856 22.5928C285.993 24.2857 285.445 25.8457 285.213 27.273C284.748 29.9616 285.445 31.7374 287.304 32.6004C287.669 32.7664 287.951 32.8659 288.15 32.8991C288.383 32.9323 288.88 32.9489 289.644 32.9489C290.706 32.9489 291.569 32.8328 292.233 32.6004C293.793 32.0693 295.303 31.2893 296.764 30.2603C297.394 29.8288 297.726 29.6297 297.759 29.6629C297.793 29.6629 297.759 29.7624 297.66 29.9616C297.494 30.3931 297.477 30.8412 297.61 31.3059C297.776 31.7706 298.042 32.0859 298.407 32.2519C298.905 32.5174 299.867 32.5008 301.294 32.2021C302.489 31.9697 303.9 31.4885 305.527 30.7582C307.153 29.9948 308.663 29.1484 310.057 28.219C311.684 27.1568 313.377 25.8457 315.136 24.2857C316.895 22.7256 318.256 21.3315 319.219 20.1034C321.94 16.7509 323.301 13.5147 323.301 10.3946C323.301 9.06685 323.102 7.92171 322.704 6.95912C322.339 5.99654 321.708 5.08374 320.812 4.22073C319.584 2.9926 317.741 2.1296 315.285 1.63171C314.555 1.49894 313.327 1.43255 311.601 1.43255C309.875 1.43255 308.564 1.49894 307.667 1.63171C305.842 1.93044 304 2.39514 302.141 3.0258C296.133 5.05055 290.656 8.33661 285.711 12.884C280.765 17.3982 277.545 22.0949 276.051 26.9743C275.487 28.7335 275.205 30.4097 275.205 32.0029C275.205 36.2848 277.047 39.3385 280.732 41.1641Z" fill="#3D3D3D"/>
<path fill-rule="evenodd" clip-rule="evenodd" d="M166.879 30.6089C168.141 33.0983 170.016 35.1562 172.505 36.7827C174.995 38.3759 177.75 39.3219 180.77 39.6207C184.09 39.9194 187.259 39.3883 190.28 38.0274C193.334 36.6665 195.724 34.7081 197.45 32.1523C198.711 30.2603 199.574 28.053 200.039 25.5304C200.205 24.6674 200.271 23.4061 200.238 21.7464C200.238 20.0536 200.155 18.7923 199.989 17.9625C199.225 14.4441 197.715 11.5563 195.458 9.29921C193.201 7.04211 190.496 5.51525 187.342 4.71863C184.189 3.88881 181.036 3.88881 177.883 4.71863C174.729 5.51525 172.024 7.04211 169.767 9.29921C167.941 11.1248 166.614 13.2823 165.784 15.7718C164.987 18.1948 164.688 20.7341 164.888 23.3895C165.087 26.0117 165.751 28.4181 166.879 30.6089ZM189.782 30.3599C188.62 33.3472 186.762 35.1562 184.206 35.7869C182.812 36.1188 181.434 36.0193 180.073 35.4882C178.58 34.9239 177.368 33.9115 176.439 32.451C175.509 30.9574 174.812 28.9824 174.348 26.5262C174.182 25.5968 174.099 24.0533 174.099 21.8958C174.099 20.1698 174.148 18.8587 174.248 17.9625C174.348 17.0331 174.58 15.9875 174.945 14.8258C175.576 12.6019 176.555 10.8925 177.883 9.69752C179.21 8.50258 180.787 7.90512 182.612 7.90512C184.504 7.90512 186.114 8.55237 187.442 9.84689C188.803 11.1414 189.799 13.0168 190.429 15.473C190.894 17.3318 191.126 19.4727 191.126 21.8958C191.126 25.2151 190.678 28.0364 189.782 30.3599Z" fill="#3D3D3D"/>
<path d="M11.0531 39.6704C11.1859 39.7368 12.5634 39.77 15.1856 39.77C17.841 39.77 19.2351 39.7368 19.3679 39.6704C19.5007 39.5709 19.567 34.3098 19.567 23.8874L19.6168 8.20385H24.2472C27.3673 8.20385 29.0269 8.17066 29.2261 8.10427L29.5248 8.0047V4.41989L28.5788 4.37011C27.9814 4.30372 23.3842 4.27053 14.7873 4.27053C6.19042 4.27053 1.57665 4.30372 0.945989 4.37011L0 4.41989L0 8.05449L0.398311 8.15406C0.663852 8.18726 2.45625 8.20385 5.77551 8.20385L10.8042 8.20385L10.8042 23.8874C10.8374 34.3098 10.9204 39.5709 11.0531 39.6704Z" fill="#3D3D3D"/>
<path d="M35.361 39.5211C35.4938 39.5875 36.8547 39.6207 39.4437 39.6207C42.0659 39.6207 43.4434 39.5875 43.5762 39.5211C43.6094 39.4879 43.6426 39.3883 43.6758 39.2223C43.709 39.0232 43.7256 38.5917 43.7256 37.9278C43.7587 37.2308 43.7753 36.3678 43.7753 35.3388C43.7753 34.2766 43.7919 32.7498 43.8251 30.7582L43.8251 22.1447H49.5509L55.2766 22.1945L55.3264 30.808C55.3596 36.5503 55.4425 39.4547 55.5753 39.5211C55.7081 39.5875 57.0524 39.6207 59.6082 39.6207C62.1972 39.6207 63.5415 39.5875 63.6411 39.5211C63.7739 39.4547 63.8403 33.6294 63.8403 22.0452C63.8403 10.4278 63.7739 4.58586 63.6411 4.51947C63.5415 4.4199 62.1972 4.37011 59.6082 4.37011C57.0524 4.37011 55.7081 4.4199 55.5753 4.51947C55.4425 4.58586 55.3596 6.89274 55.3264 11.4401L55.2766 18.2612L43.8251 18.3608V11.4899C43.7919 6.90934 43.709 4.58586 43.5762 4.51947C43.4434 4.4199 42.0659 4.37011 39.4437 4.37011C36.8547 4.37011 35.4938 4.4199 35.361 4.51947C35.2614 4.58586 35.2116 10.4278 35.2116 22.0452C35.2116 33.6294 35.2614 39.4547 35.361 39.5211Z" fill="#3D3D3D"/>
<path d="M77.4669 39.5709C75.7409 39.4049 74.1642 38.7244 72.7369 37.5295C71.3096 36.3346 70.2807 34.8243 69.65 32.9987L69.3513 32.0527V18.3608C69.3513 9.26602 69.3845 4.68544 69.4509 4.61905C69.5172 4.55267 73.1684 4.50288 80.4044 4.46969C87.6736 4.43649 91.7065 4.43649 92.5031 4.46969L93.6483 4.56926V8.20385L93.1006 8.25364C92.7023 8.32003 90.0801 8.35322 85.2339 8.35322L77.9648 8.35322V18.2612H83.1428C86.5948 18.2944 88.4204 18.3276 88.6196 18.3608L88.9183 18.4604L89.0179 22.0452L88.6196 22.095C88.354 22.1613 86.5119 22.1945 83.093 22.1945H77.9648V26.1776C77.9648 28.4016 77.9979 29.8288 78.0643 30.4595C78.1639 31.0902 78.3797 31.7042 78.7116 32.3017C79.2759 33.2975 80.1223 34.0775 81.2508 34.6418C81.6823 34.8741 82.0143 35.0235 82.2466 35.0899C82.5121 35.1231 83.093 35.1562 83.9892 35.1894C85.2505 35.2558 87.1093 35.289 89.5656 35.289C92.0218 35.289 93.3163 35.3388 93.4491 35.4384C93.5819 35.538 93.6317 36.235 93.5985 37.5295V39.5211L93.2002 39.5709C92.9678 39.6372 90.4286 39.6704 85.5825 39.6704C80.7363 39.6704 78.0312 39.6372 77.4669 39.5709Z" fill="#3D3D3D"/>
<path d="M112.536 39.5709C112.669 39.6372 114.046 39.6704 116.668 39.6704C119.29 39.6704 120.651 39.6372 120.751 39.5709C120.884 39.4713 120.95 35.3554 120.95 27.2232C120.95 19.091 120.884 14.9917 120.751 14.9254C120.651 14.859 119.29 14.8258 116.668 14.8258C114.046 14.8258 112.669 14.859 112.536 14.9254C112.436 14.9917 112.386 19.091 112.386 27.2232C112.386 35.3554 112.436 39.4713 112.536 39.5709Z" fill="#3D3D3D"/>
<path d="M112.287 8.15406C112.287 10.3448 112.37 11.5231 112.536 11.6891C112.669 11.8218 114.046 11.8882 116.668 11.8882C119.324 11.8882 120.718 11.8218 120.851 11.6891C120.983 11.5231 121.05 10.3448 121.05 8.15406C121.05 5.93016 120.983 4.75182 120.851 4.61905C120.718 4.48628 119.324 4.41989 116.668 4.41989C114.046 4.41989 112.669 4.48628 112.536 4.61905C112.37 4.75182 112.287 5.93016 112.287 8.15406Z" fill="#3D3D3D"/>
<path fill-rule="evenodd" clip-rule="evenodd" d="M129.191 39.5709C129.059 39.5377 128.976 39.4547 128.942 39.3219C128.909 39.156 128.876 38.7576 128.843 38.127C128.776 37.1644 128.76 31.3391 128.793 20.6511C128.826 9.96306 128.876 4.58586 128.942 4.51947C129.042 4.45309 131.581 4.43649 136.56 4.46969C141.572 4.46969 144.41 4.50288 145.074 4.56926C150.152 5.26631 154.019 6.92594 156.675 9.54815C158.633 11.5397 159.977 14.2615 160.708 17.7135C160.94 18.7425 161.056 20.1366 161.056 21.8958C161.056 23.655 160.94 24.9827 160.708 25.8789C159.977 28.9326 158.633 31.5383 156.675 33.6958C154.75 35.8533 152.327 37.4299 149.406 38.4257C147.613 38.99 145.788 39.3551 143.929 39.5211C143.232 39.5875 140.659 39.6207 136.212 39.6207C131.797 39.6207 129.457 39.6041 129.191 39.5709ZM142.585 34.9405C144.045 34.5754 145.456 33.8119 146.817 32.6502C148.177 31.4553 149.273 30.0446 150.103 28.4181C151.198 26.2274 151.679 23.821 151.547 21.1988C151.414 18.5765 150.717 16.2863 149.455 14.3279C148.227 12.4691 146.601 11.0252 144.576 9.99625C143.149 9.26602 141.406 8.8677 139.348 8.80132L137.506 8.75153V35.2392L139.647 35.1894C141.107 35.1562 142.087 35.0733 142.585 34.9405Z" fill="#3D3D3D"/>
<path d="M213.174 39.5709C211.183 39.3717 209.407 38.4755 207.847 36.8823C206.851 35.9197 206.154 34.9571 205.756 33.9945C205.357 33.0319 205.108 31.8038 205.009 30.3101C204.943 29.082 204.909 24.5014 204.909 16.5684C204.943 8.63535 205.009 4.63565 205.109 4.56926C205.241 4.46968 206.635 4.41989 209.291 4.41989C211.946 4.41989 213.34 4.46968 213.473 4.56926C213.606 4.63565 213.689 9.01707 213.722 17.7135V20.1532C213.755 25.6632 213.788 28.9326 213.822 29.9616C213.888 30.9574 214.071 31.7042 214.369 32.2021C214.436 32.3017 214.485 32.3681 214.519 32.4013C215.05 33.3307 215.863 34.0775 216.958 34.6418C217.423 34.8409 217.771 34.9737 218.004 35.0401C218.269 35.0733 218.834 35.1231 219.697 35.1894C220.892 35.2226 222.568 35.2558 224.725 35.289C226.916 35.289 228.078 35.3388 228.211 35.4384C228.343 35.538 228.393 36.235 228.36 37.5295V39.4713L228.061 39.5709C227.829 39.6372 225.422 39.6704 220.842 39.6704C216.261 39.6704 213.705 39.6372 213.174 39.5709Z" fill="#3D3D3D"/>
<path d="M232.913 39.5709C233.046 39.6372 234.141 39.6704 236.199 39.6704C238.29 39.6704 239.402 39.6372 239.535 39.5709C239.668 39.4713 239.751 36.0359 239.784 29.2646L239.834 19.0578L249.493 39.6704H253.177L257.858 29.4637L262.488 19.3068L262.538 29.3641C262.604 36.069 262.687 39.4713 262.787 39.5709C262.919 39.6372 264.081 39.6704 266.272 39.6704C268.496 39.6704 269.658 39.6207 269.757 39.5211C269.857 39.4879 269.906 38.4921 269.906 36.5337C269.94 34.5422 269.956 29.7127 269.956 22.0452C269.956 10.4278 269.89 4.58586 269.757 4.51947C269.658 4.45309 268.429 4.41989 266.073 4.41989C263.716 4.3867 262.388 4.4033 262.09 4.46969C261.924 4.50288 261.575 5.06715 261.044 6.16251C260.546 7.22467 259.069 10.4444 256.613 15.8216L251.485 27.0739L251.136 26.4266C250.937 25.9951 249.211 22.2609 245.958 15.2241C242.705 8.15406 240.979 4.58586 240.78 4.51947C240.581 4.4199 239.253 4.3867 236.797 4.41989C234.341 4.41989 233.046 4.45309 232.913 4.51947C232.781 4.58586 232.714 10.4278 232.714 22.0452C232.714 33.6294 232.781 39.4713 232.913 39.5709Z" fill="#3D3D3D"/>
<path d="M326.97 39.7202C326.838 39.6538 326.755 39.5377 326.721 39.3717V35.6375L327.02 35.4882C327.219 35.4218 329.211 35.3886 332.995 35.3886C336.779 35.3886 338.887 35.3388 339.318 35.2392C341.21 34.8409 342.222 33.7788 342.355 32.0527C342.455 30.7914 342.056 29.6463 341.16 28.6173C340.264 27.5551 338.704 26.4266 336.48 25.2317C333.625 23.6384 331.733 22.5597 330.804 21.9954C329.908 21.4311 329.128 20.8336 328.464 20.203C325.676 17.5476 324.929 14.4607 326.224 10.9422C326.887 9.11665 328.116 7.62298 329.908 6.46124C331.7 5.2995 333.858 4.61905 336.38 4.41989C337.144 4.35351 339.252 4.32032 342.704 4.32032C346.156 4.28713 348.048 4.30372 348.38 4.37011L348.728 4.46969V8.10427L348.38 8.15406C348.114 8.22045 346.239 8.25364 342.753 8.25364C339.268 8.25364 337.293 8.28683 336.829 8.35322C335.269 8.65195 334.19 9.36559 333.592 10.4941C333.36 10.9256 333.244 11.5231 333.244 12.2865C333.244 13.0168 333.393 13.6308 333.692 14.1287C334.455 15.556 336.663 17.2322 340.314 19.1574C342.737 20.4519 344.562 21.5473 345.791 22.4435C347.052 23.3065 348.014 24.1695 348.678 25.0325C350.006 26.8249 350.587 28.7335 350.421 30.7582C350.255 32.7498 349.359 34.592 347.732 36.2848C346.637 37.4797 345.26 38.3427 343.6 38.8738C342.372 39.3053 341.31 39.5543 340.413 39.6207C339.55 39.687 337.326 39.7368 333.742 39.77C329.427 39.8032 327.17 39.7866 326.97 39.7202Z" fill="#3D3D3D"/>
<path d="M366.48 39.6704C366.613 39.7368 367.99 39.77 370.612 39.77C373.268 39.77 374.662 39.7368 374.795 39.6704C374.927 39.5709 374.994 34.3098 374.994 23.8874L375.043 8.20385H379.674C382.794 8.20385 384.454 8.17066 384.653 8.10427L384.951 8.0047V4.41989L384.006 4.37011C383.408 4.30372 378.811 4.27053 370.214 4.27053C361.617 4.27053 357.003 4.30372 356.373 4.37011L355.427 4.41989V8.05449L355.825 8.15406C356.091 8.18726 357.883 8.20385 361.202 8.20385L366.231 8.20385V23.8874C366.264 34.3098 366.347 39.5709 366.48 39.6704Z" fill="#3D3D3D"/>
<path d="M399.053 39.5709C397.327 39.4049 395.75 38.7244 394.323 37.5295C392.895 36.3346 391.866 34.8243 391.236 32.9987L390.937 32.0527V18.3608C390.937 9.26602 390.97 4.68544 391.037 4.61905C391.103 4.55267 394.754 4.50288 401.99 4.46969C409.259 4.43649 413.292 4.43649 414.089 4.46969L415.234 4.56926V8.20385L414.686 8.25364C414.288 8.32003 411.666 8.35322 406.82 8.35322L399.551 8.35322V18.2612H404.729C408.181 18.2944 410.006 18.3276 410.205 18.3608L410.504 18.4604L410.604 22.0452L410.205 22.095C409.94 22.1613 408.098 22.1945 404.679 22.1945H399.551V26.1776C399.551 28.4016 399.584 29.8288 399.65 30.4595C399.75 31.0902 399.965 31.7042 400.297 32.3017C400.862 33.2975 401.708 34.0775 402.837 34.6418C403.268 34.8741 403.6 35.0235 403.832 35.0899C404.098 35.1231 404.679 35.1562 405.575 35.1894C406.836 35.2558 408.695 35.289 411.151 35.289C413.608 35.289 414.902 35.3388 415.035 35.4384C415.168 35.538 415.217 36.235 415.184 37.5295V39.5211L414.786 39.5709C414.554 39.6372 412.014 39.6704 407.168 39.6704C402.322 39.6704 399.617 39.6372 399.053 39.5709Z" fill="#3D3D3D"/>
<path fill-rule="evenodd" clip-rule="evenodd" d="M419.331 39.5211C419.464 39.5875 420.841 39.6207 423.464 39.6207C426.086 39.6207 427.447 39.5875 427.546 39.5211C427.646 39.4879 427.696 39.0232 427.696 38.127C427.729 37.1976 427.762 35.0733 427.795 31.754V24.0865L428.094 24.1363C428.26 24.1363 430.086 26.6921 433.571 31.8038C435.861 35.1894 437.322 37.3304 437.952 38.2266C438.583 39.0896 438.981 39.5377 439.147 39.5709C439.346 39.6041 440.923 39.6207 443.877 39.6207C446.864 39.6207 448.358 39.6041 448.358 39.5709C448.358 39.5377 446.499 36.7993 442.782 31.3557C439.097 25.8789 437.255 23.1073 437.255 23.0409C437.255 22.9746 437.504 22.8252 438.002 22.5928C439.197 22.0618 440.325 21.2651 441.388 20.203C442.483 19.1076 443.246 17.8961 443.678 16.5684C443.877 15.9377 443.993 15.1411 444.026 14.1785C444.026 11.7887 443.263 9.7805 441.736 8.15406C439.745 5.99654 436.89 4.78501 433.172 4.51947C432.21 4.45309 429.671 4.43649 425.555 4.46969C421.439 4.46969 419.348 4.50288 419.281 4.56926C419.215 4.63565 419.182 10.4609 419.182 22.0452C419.182 33.6294 419.232 39.4547 419.331 39.5211ZM433.621 18.3608C432.89 19.1242 432.044 19.6553 431.081 19.954C430.583 20.12 429.92 20.203 429.09 20.203H427.795V8.70174H429.04C431.031 8.70174 432.575 9.21623 433.67 10.2452C434.367 10.8759 434.832 11.7057 435.064 12.7346C435.33 13.7304 435.33 14.7262 435.064 15.722C434.832 16.7178 434.351 17.5974 433.621 18.3608Z" fill="#3D3D3D"/>
<path d="M286.981 56.0336C287.055 55.8317 287.289 55.6681 287.503 55.6681L432.314 55.6681C432.529 55.6681 432.644 55.8317 432.57 56.0336L432.304 56.7646C432.231 56.9665 431.997 57.1301 431.782 57.1301L286.971 57.1301C286.756 57.1301 286.642 56.9665 286.715 56.7646L286.981 56.0336Z" fill="#3D3D3D"/>
<path d="M368.243 55.6681L416.333 55.6681L415.801 57.1301L367.711 57.1301L368.243 55.6681Z" fill="#3D3D3D"/>
<path d="M409.279 55.6681L435.744 55.6681C435.959 55.6681 436.074 55.8317 436 56.0336L435.734 56.7646C435.661 56.9665 435.427 57.1301 435.212 57.1301L408.747 57.1301L409.279 55.6681Z" fill="#3D3D3D"/>
<path d="M446.16 51.4837C446.366 51.1678 446.856 51.2995 446.875 51.6758L447.004 54.1791C447.013 54.3474 447.129 54.491 447.291 54.5347L449.712 55.1856C450.076 55.2835 450.102 55.7898 449.75 55.9245L447.409 56.8207C447.252 56.881 447.151 57.0357 447.16 57.204L447.289 59.7073C447.308 60.0836 446.835 60.2649 446.598 59.9719L445.022 58.0225C444.916 57.8914 444.738 57.8435 444.58 57.9037L442.24 58.8C441.888 58.9347 441.569 58.5404 441.774 58.2246L443.141 56.1235C443.233 55.9823 443.224 55.7979 443.118 55.6669L441.542 53.7174C441.305 53.4244 441.582 52.9994 441.946 53.0973L444.366 53.7482C444.529 53.792 444.701 53.7259 444.793 53.5847L446.16 51.4837Z" fill="#3D3D3D"/>
<path d="M141.926 65.0035C141.926 64.9703 142.516 62.9206 143.694 58.8545L145.461 52.7305L145.661 52.5065C145.959 52.1579 146.382 51.8509 146.93 51.5854L147.378 51.3613L148.673 51.3364C149.536 51.3364 149.984 51.353 150.017 51.3862C150.05 51.4028 149.519 53.3114 148.424 57.1119C147.328 60.8959 146.772 62.8294 146.756 62.9123C146.739 62.9621 146.897 62.846 147.229 62.5638C147.395 62.4144 147.627 62.207 147.926 61.9415C148.723 61.2278 149.137 60.8544 149.171 60.8212C149.171 60.788 149.619 59.2114 150.515 56.0913C151.428 52.9546 151.884 51.3779 151.884 51.3613C152 51.3447 152.365 51.3364 152.98 51.3364C153.594 51.3364 154.257 51.3447 154.971 51.3613C155.701 51.3613 156.066 51.3696 156.066 51.3862C156.1 51.4028 155.71 52.8218 154.896 55.6432L153.677 59.9001L150.839 62.4144C150.158 63.0285 149.644 63.4849 149.295 63.7836C148.963 64.0824 148.681 64.3313 148.449 64.5305C148.216 64.7296 148.059 64.8541 147.976 64.9039C147.909 64.9537 147.86 64.9869 147.826 65.0035C147.743 65.0035 147.212 65.0035 146.233 65.0035C145.254 65.0201 144.291 65.0201 143.345 65.0035C142.399 65.0035 141.926 65.0035 141.926 65.0035Z" fill="#3D3D3D"/>
<path d="M156.296 64.4807C156.346 64.0824 156.918 62.0493 158.014 58.3815C158.81 55.7095 159.3 54.108 159.482 53.5769C159.682 53.0292 159.889 52.6392 160.105 52.4069C160.47 52.0086 160.852 51.7347 161.25 51.5854C161.648 51.4194 162.237 51.3281 163.017 51.3115L164.387 51.2368L164.337 51.7098C164.304 52.0418 163.797 53.8674 162.818 57.1866C161.856 60.5059 161.267 62.4227 161.051 62.9372C160.702 63.7339 160.262 64.2898 159.731 64.6052C159.2 64.9205 158.429 65.0782 157.416 65.0782H156.221L156.296 64.4807Z" fill="#3D3D3D"/>
<path d="M169.906 65.0035C166.553 65.0201 164.877 65.0201 164.877 65.0035C164.877 64.9869 165.45 62.987 166.595 59.0039C166.678 58.7384 166.786 58.3484 166.918 57.8339C167.665 55.3112 168.113 53.8176 168.263 53.3529C168.429 52.8882 168.636 52.5479 168.885 52.3322C168.935 52.2824 168.976 52.2492 169.01 52.2326C169.424 51.8343 169.873 51.5356 170.354 51.3364L170.653 51.2119H174.835L179.017 51.187L178.992 51.4609C178.959 51.7264 178.851 51.9837 178.669 52.2326C178.503 52.4816 178.295 52.6641 178.046 52.7803L177.772 52.9048L175.308 52.9297H172.818L172.694 53.4276C172.611 53.7429 172.561 53.9254 172.545 53.9752C172.528 53.9918 172.545 54.0084 172.594 54.025C172.661 54.025 172.785 54.0333 172.968 54.0499C173.15 54.0499 173.391 54.0499 173.69 54.0499C173.988 54.0499 174.412 54.0499 174.959 54.0499C176.586 54.0665 177.407 54.0831 177.424 54.0997C177.457 54.1329 177.449 54.2491 177.399 54.4482C177.349 54.6308 177.299 54.7967 177.25 54.9461C177.067 55.3278 176.793 55.6017 176.428 55.7676L176.129 55.917H174.038L171.972 55.9419L170.926 59.5267C170.644 60.5059 170.404 61.3523 170.205 62.0659C170.005 62.763 169.906 63.1115 169.906 63.1115C169.922 63.1281 170.976 63.1364 173.067 63.1364H176.204V63.2858C176.204 63.5513 176.121 63.8417 175.955 64.1571C175.773 64.5056 175.524 64.7462 175.208 64.879L174.959 65.0035H169.906Z" fill="#3D3D3D"/>
<path d="M180.915 65.0035C180.932 64.9371 181.529 62.8625 182.708 58.7799C183.886 54.6806 184.467 52.6309 184.45 52.6309C184.434 52.6143 183.761 52.606 182.434 52.606L180.417 52.5811L180.567 52.3073C180.666 52.1081 180.816 51.909 181.015 51.7098L181.313 51.4111L181.961 51.3862C182.342 51.353 184.317 51.3447 187.886 51.3613C191.47 51.3613 193.271 51.3779 193.288 51.4111C193.321 51.4277 193.304 51.5356 193.238 51.7347C193.188 51.9339 193.122 52.1081 193.039 52.2575C192.939 52.4401 192.84 52.5396 192.74 52.5562C192.657 52.5728 192.002 52.5894 190.773 52.606H188.931L188.857 52.855C186.848 59.9084 185.786 63.5181 185.67 63.6841C185.338 64.1488 184.849 64.5471 184.201 64.879L183.803 65.0782L182.359 65.1031H180.89L180.915 65.0035Z" fill="#3D3D3D"/>
<path d="M193.833 64.406C193.883 63.9911 194.447 61.958 195.526 58.3069C196.323 55.6017 196.804 53.9918 196.97 53.4773C197.153 52.9629 197.36 52.5811 197.592 52.3322C198.173 51.6849 198.903 51.3281 199.783 51.2617C200.663 51.1787 201.285 51.4194 201.65 51.9837C201.816 52.2326 202.214 53.7512 202.845 56.5394L203.791 60.6967L204.762 57.336C205.293 55.4772 205.683 54.2325 205.932 53.6018C206.181 52.9711 206.446 52.5148 206.729 52.2326C207.11 51.8675 207.459 51.6269 207.774 51.5107C208.106 51.3779 208.587 51.2949 209.218 51.2617L210.413 51.187L210.338 51.8094C210.288 52.2077 209.716 54.2657 208.621 57.9832C207.824 60.6718 207.334 62.29 207.152 62.8377C206.969 63.3853 206.778 63.7588 206.579 63.9579C206.181 64.3396 205.824 64.5969 205.509 64.7296C205.193 64.8458 204.762 64.9039 204.214 64.9039C203.401 64.9039 202.87 64.6881 202.621 64.2566C202.389 63.8085 201.982 62.2983 201.401 59.7258L200.43 55.3942L199.235 59.3773C198.986 60.2403 198.796 60.871 198.663 61.2693C198.547 61.6676 198.406 62.0908 198.24 62.5389C198.09 62.9704 197.982 63.2609 197.916 63.4102C197.85 63.5596 197.742 63.7339 197.592 63.933C197.46 64.1156 197.343 64.24 197.244 64.3064C197.144 64.3728 196.987 64.4641 196.771 64.5803C196.406 64.796 195.808 64.9205 194.978 64.9537L193.734 65.0284L193.833 64.406Z" fill="#3D3D3D"/>
<path d="M210.706 64.406C210.756 63.9911 211.287 61.9746 212.299 58.3567C212.316 58.2903 212.341 58.199 212.374 58.0828C213.154 55.2282 213.66 53.5354 213.893 53.0043C214.125 52.4733 214.532 52.0252 215.113 51.66C215.129 51.6434 215.146 51.6352 215.162 51.6352L215.785 51.2368L220.266 51.187C223.253 51.1705 224.805 51.2036 224.921 51.2866C224.987 51.353 224.938 51.7513 224.772 52.4816C224.606 53.1952 224.174 54.8382 223.477 57.4107C223.461 57.477 223.436 57.5766 223.402 57.7094C222.556 60.8129 222.017 62.6551 221.784 63.236C221.552 63.8002 221.17 64.24 220.639 64.5554C220.623 64.572 220.606 64.5886 220.589 64.6052C220.224 64.8209 219.635 64.9537 218.822 65.0035C218.025 65.0367 217.602 64.9869 217.552 64.8541C217.519 64.7213 217.826 63.4268 218.473 60.9706L219.469 57.2862L218.523 56.8132C217.892 56.4813 217.544 56.2987 217.478 56.2655C217.461 56.2655 217.395 56.4232 217.278 56.7385C217.179 57.0538 217.046 57.4936 216.88 58.0579C216.714 58.6222 216.54 59.228 216.357 59.8752L215.312 63.5347L214.789 64.0326C214.407 64.4143 214.017 64.6715 213.619 64.8043C213.221 64.9371 212.648 65.0035 211.901 65.0035H210.632L210.706 64.406ZM220.34 54.1246L220.639 53.0043H218.224L217.926 54.1993L218.946 54.7221C219.627 55.054 219.975 55.2283 219.992 55.2449C220.008 55.2449 220.025 55.1951 220.042 55.0955C220.075 54.9959 220.116 54.8631 220.166 54.6972C220.216 54.5146 220.274 54.3238 220.34 54.1246Z" fill="#3D3D3D"/>
<path d="M226.505 65.1777C225.791 65.1943 225.434 65.186 225.434 65.1528C225.434 65.1196 226.023 63.0866 227.202 59.0537C228.065 56.0664 228.579 54.3072 228.745 53.7761C228.911 53.2284 229.044 52.8882 229.143 52.7554C229.575 52.1911 230.164 51.7596 230.911 51.4609L231.185 51.3613L237.209 51.3364C241.209 51.3364 243.341 51.3447 243.607 51.3613L244.005 51.4111L243.059 54.6972C242.429 56.9045 242.097 58.0164 242.064 58.033C242.03 58.033 242.014 58.0662 242.014 58.1326C242.014 58.2156 241.765 59.1284 241.267 60.871C240.769 62.6136 240.495 63.5347 240.445 63.6343C240.379 63.767 240.221 63.9579 239.972 64.2068C239.74 64.4392 239.541 64.6052 239.375 64.7047C239.176 64.8375 238.952 64.9454 238.703 65.0284C238.454 65.1114 238.006 65.1611 237.358 65.1777C236.711 65.1943 236.354 65.186 236.288 65.1528C236.238 65.1362 236.288 64.8541 236.437 64.3064C236.587 63.7587 237.076 62.0244 237.906 59.1035C239.068 55.1038 239.649 53.0956 239.649 53.079C239.649 53.079 239.616 53.079 239.549 53.079C239.483 53.079 239.392 53.079 239.275 53.079C239.159 53.079 239.035 53.079 238.902 53.079H238.18L236.686 58.282C235.674 61.7506 235.135 63.5513 235.068 63.6841C234.969 63.8666 234.786 64.0741 234.521 64.3064C234.272 64.5388 234.048 64.713 233.848 64.8292C233.55 64.9786 233.301 65.0699 233.102 65.1031C232.902 65.1528 232.504 65.1777 231.907 65.1777C231.193 65.1943 230.836 65.1943 230.836 65.1777C230.836 65.1611 231.4 63.1945 232.529 59.2777C233.658 55.3444 234.238 53.3197 234.272 53.2035L234.321 53.079H232.778L231.259 58.3318C230.529 60.9042 230.081 62.431 229.915 62.9123C229.766 63.3936 229.641 63.709 229.542 63.8583C229.342 64.1405 229.102 64.3894 228.82 64.6052C228.538 64.8043 228.231 64.9537 227.899 65.0533C227.699 65.1196 227.235 65.1611 226.505 65.1777Z" fill="#3D3D3D"/>
<path d="M241.143 56.0336C241.217 55.8317 241.45 55.6681 241.665 55.6681L347.689 55.6681C347.903 55.6681 348.018 55.8317 347.945 56.0336L347.679 56.7646C347.605 56.9665 347.371 57.1301 347.156 57.1301L241.133 57.1301C240.918 57.1301 240.803 56.9665 240.877 56.7646L241.143 56.0336Z" fill="#3D3D3D"/>
<path d="M289.014 65.0981C289.22 64.7823 289.71 64.9139 289.729 65.2903L289.858 67.7936C289.867 67.9619 289.983 68.1054 290.145 68.1492L292.566 68.8001C292.93 68.8979 292.956 69.4043 292.604 69.539L290.263 70.4352C290.106 70.4955 290.005 70.6502 290.014 70.8185L290.143 73.3218C290.162 73.6981 289.689 73.8794 289.452 73.5863L287.876 71.6369C287.77 71.5059 287.592 71.4579 287.435 71.5182L285.094 72.4144C284.742 72.5491 284.423 72.1549 284.628 71.839L285.996 69.738C286.087 69.5967 286.078 69.4124 285.972 69.2813L284.396 67.3319C284.159 67.0389 284.436 66.6139 284.8 66.7118L287.22 67.3627C287.383 67.4064 287.556 67.3404 287.647 67.1992L289.014 65.0981Z" fill="#3D3D3D"/>
<path d="M308.074 65.0981C308.28 64.7823 308.769 64.9139 308.789 65.2903L308.918 67.7936C308.926 67.9619 309.043 68.1054 309.205 68.1492L311.626 68.8001C311.99 68.8979 312.016 69.4043 311.664 69.539L309.323 70.4352C309.166 70.4955 309.065 70.6502 309.074 70.8185L309.203 73.3218C309.222 73.6981 308.749 73.8794 308.512 73.5863L306.936 71.6369C306.83 71.5059 306.652 71.4579 306.494 71.5182L304.153 72.4144C303.801 72.5491 303.483 72.1549 303.688 71.839L305.055 69.738C305.147 69.5967 305.138 69.4124 305.032 69.2813L303.456 67.3319C303.219 67.0389 303.496 66.6139 303.86 66.7118L306.28 67.3627C306.443 67.4064 306.615 67.3404 306.707 67.1992L308.074 65.0981Z" fill="#3D3D3D"/>
<path d="M327.134 65.0981C327.34 64.7823 327.829 64.9139 327.849 65.2903L327.978 67.7936C327.986 67.9619 328.102 68.1054 328.265 68.1492L330.686 68.8001C331.05 68.8979 331.076 69.4043 330.724 69.539L328.383 70.4352C328.225 70.4955 328.125 70.6502 328.133 70.8185L328.262 73.3218C328.282 73.6981 327.808 73.8794 327.571 73.5863L325.996 71.6369C325.89 71.5059 325.711 71.4579 325.554 71.5182L323.213 72.4144C322.861 72.5491 322.543 72.1549 322.748 71.839L324.115 69.738C324.207 69.5967 324.198 69.4124 324.092 69.2813L322.516 67.3319C322.279 67.0389 322.555 66.6139 322.919 66.7118L325.34 67.3627C325.503 67.4064 325.675 67.3404 325.767 67.1992L327.134 65.0981Z" fill="#3D3D3D"/>
<path d="M346.194 65.0981C346.399 64.7823 346.889 64.9139 346.908 65.2903L347.037 67.7936C347.046 67.9619 347.162 68.1054 347.325 68.1492L349.746 68.8001C350.109 68.8979 350.135 69.4043 349.784 69.539L347.443 70.4352C347.285 70.4955 347.185 70.6502 347.193 70.8185L347.322 73.3218C347.342 73.6981 346.868 73.8794 346.631 73.5863L345.056 71.6369C344.95 71.5059 344.771 71.4579 344.614 71.5182L342.273 72.4144C341.921 72.5491 341.602 72.1549 341.808 71.839L343.175 69.738C343.267 69.5967 343.257 69.4124 343.151 69.2813L341.576 67.3319C341.339 67.0389 341.615 66.6139 341.979 66.7118L344.4 67.3627C344.563 67.4064 344.735 67.3404 344.827 67.1992L346.194 65.0981Z" fill="#3D3D3D"/>
<path d="M365.254 65.0981C365.459 64.7823 365.949 64.9139 365.968 65.2903L366.097 67.7936C366.106 67.9619 366.222 68.1054 366.385 68.1492L368.805 68.8001C369.169 68.8979 369.195 69.4043 368.843 69.539L366.502 70.4352C366.345 70.4955 366.244 70.6502 366.253 70.8185L366.382 73.3218C366.401 73.6981 365.928 73.8794 365.691 73.5863L364.115 71.6369C364.009 71.5059 363.831 71.4579 363.674 71.5182L361.333 72.4144C360.981 72.5491 360.662 72.1549 360.868 71.839L362.235 69.738C362.327 69.5967 362.317 69.4124 362.211 69.2813L360.635 67.3319C360.399 67.0389 360.675 66.6139 361.039 66.7118L363.46 67.3627C363.622 67.4064 363.795 67.3404 363.887 67.1992L365.254 65.0981Z" fill="#3D3D3D"/>
<path d="M384.314 65.0981C384.519 64.7823 385.009 64.9139 385.028 65.2903L385.157 67.7936C385.166 67.9619 385.282 68.1054 385.445 68.1492L387.865 68.8001C388.229 68.8979 388.255 69.4043 387.903 69.539L385.562 70.4352C385.405 70.4955 385.304 70.6502 385.313 70.8185L385.442 73.3218C385.461 73.6981 384.988 73.8794 384.751 73.5863L383.175 71.6369C383.069 71.5059 382.891 71.4579 382.734 71.5182L380.393 72.4144C380.041 72.5491 379.722 72.1549 379.928 71.839L381.295 69.738C381.387 69.5967 381.377 69.4124 381.271 69.2813L379.695 67.3319C379.458 67.0389 379.735 66.6139 380.099 66.7118L382.519 67.3627C382.682 67.4064 382.855 67.3404 382.947 67.1992L384.314 65.0981Z" fill="#3D3D3D"/>
</svg>
